<?xml version="1.0" encoding="UTF-8"?>
<svg width="400px" height="272px" viewBox="0 0 400 272" version="1.1" xmlns="http://www.w3.org/2000/svg" xmlns:xlink="http://www.w3.org/1999/xlink">
    <!-- Generator: Sketch 55 (78076) - https://sketchapp.com -->
    <title>undraw_web_browsing_p77h (1)</title>
    <desc>Created with Sketch.</desc>
    <g id="Home" stroke="none" stroke-width="1" fill="none" fill-rule="evenodd">
        <g id="Desktop-HD-Copy" transform="translate(-820.000000, -1484.000000)" fill-rule="nonzero">
            <g id="undraw_web_browsing_p77h-(1)" transform="translate(820.000000, 1484.000000)">
                <path d="M105.429151,246.218009 L7.86815023,246.218009 C7.86815023,246.218009 5.89056413,217.830439 17.5912923,217.507852 C29.2920204,217.185265 27.9736285,230.088708 42.6407358,212.346475 C57.3078431,194.604242 75.1061363,195.57201 77.4133213,206.056047 C79.7205063,216.540084 72.9637507,224.927331 85.323673,222.346642 C97.6835953,219.765954 115.481889,226.540262 105.429151,246.218009 Z" id="Path" fill="#CE7953"></path>
                <path d="M59.6642515,246.218009 L59.3548387,246.20514 C60.0764229,227.582583 63.8345808,215.617384 66.8601927,208.859252 C70.1453204,201.521139 73.3109599,198.550518 73.3425642,198.521327 L73.5483871,198.761528 C73.5172328,198.790405 70.3884845,201.731522 67.1296811,209.019963 C64.1207782,215.749516 60.3831871,227.665585 59.6642515,246.218009 Z" id="Path" fill="#F2F2F2"></path>
                <path d="M91.9246998,247.507109 L91.6129032,247.413312 C95.3674639,234.088687 104.208933,225.675896 104.297902,225.592417 L104.516129,225.841006 C104.427952,225.923833 95.6526157,234.2771 91.9246998,247.507109 Z" id="Path" fill="#F2F2F2"></path>
                <path d="M25.5393361,246.218009 L25.305899,246.173162 C26.2299853,236.961114 24.5607721,229.813857 22.997689,225.44033 C21.3052369,220.704849 19.3741679,218.118465 19.3548387,218.09286 L19.5178665,217.85782 C19.5374831,217.883742 21.4984058,220.509895 23.2089221,225.296091 C24.7866171,229.710647 26.4716496,236.923899 25.5393361,246.218009 Z" id="Path" fill="#F2F2F2"></path>
                <path d="M120.093909,247.507109 L0.194976249,247.507109 L0.167316431,247.099741 C0.0983836545,246.086335 -1.43112193,222.182179 6.29106148,213.653031 C8.01736508,211.746357 10.0968444,210.745539 12.4716255,210.678534 C17.5052247,210.534921 20.668484,212.426017 23.219853,213.943887 C28.0287812,216.805282 31.2056501,218.695736 42.7563989,204.37659 C55.2694319,188.864358 68.7705159,185.527094 76.5318624,187.382765 C81.5465231,188.582039 85.0027468,191.971372 86.0144039,196.681824 C86.9722299,201.142183 86.6671373,205.333235 86.422043,208.7008 C86.1597155,212.303954 85.9524909,215.149988 87.4279557,216.439738 C88.659598,217.515885 91.1179981,217.613832 95.1641931,216.747666 C103.394239,214.986743 114.87775,216.493513 120.64174,223.963148 C123.742873,227.981783 126.185738,235.286676 120.214313,247.265534 L120.093909,247.507109 Z M1.01323504,246.633036 L119.554358,246.633036 C124.004153,237.578099 124.143081,229.928571 119.952636,224.498127 C114.665008,217.64584 103.571708,215.842237 95.3459003,217.602523 C90.9499329,218.543376 88.3304801,218.388022 86.8554416,217.0987 C85.0514838,215.522145 85.2727479,212.483847 85.5527349,208.637209 C85.7939997,205.325339 86.0939873,201.20364 85.1625494,196.865761 C84.2245073,192.497588 81.0050793,189.351099 76.3297643,188.233125 C68.81607,186.435066 55.6922016,189.730296 43.4338369,204.926277 C31.4097099,219.83226 27.7875382,217.677837 22.7754281,214.695654 C20.1925697,213.159224 17.2599389,211.416644 12.49633,211.552151 C10.3674922,211.612329 8.49692838,212.516902 6.93616099,214.240697 C-0.00416649497,221.906035 0.843240597,243.401398 1.01323504,246.633036 Z" id="Shape" fill="#CFCCE0"></path>
                <path d="M381.596106,246.218009 L285.285887,246.218009 C285.285887,246.218009 283.333654,217.830439 294.884373,217.507852 C306.435092,217.185265 305.133603,230.088708 319.61267,212.346475 C334.091738,194.604242 351.661848,195.57201 353.939453,206.056047 C356.217059,216.540084 349.546928,224.927331 361.74839,222.346642 C373.949852,219.765954 391.519962,226.540262 381.596106,246.218009 Z" id="Path" fill="#CE7953"></path>
                <path d="M335.793284,246.218009 L335.483871,246.20514 C336.205455,227.582583 339.963613,215.617384 342.989225,208.859252 C346.274353,201.521139 349.439992,198.550518 349.471596,198.521327 L349.677419,198.761528 C349.646265,198.790405 346.517517,201.731522 343.258713,209.019963 C340.24981,215.749516 336.512219,227.665585 335.793284,246.218009 Z" id="Path" fill="#F2F2F2"></path>
                <path d="M368.053732,247.507109 L367.741935,247.413312 C371.496496,234.088687 380.337965,225.675896 380.426935,225.592417 L380.645161,225.841006 C380.556984,225.923833 371.781648,234.2771 368.053732,247.507109 Z" id="Path" fill="#F2F2F2"></path>
                <path d="M300.378046,246.218009 L300.144609,246.173162 C301.068695,236.961114 299.399482,229.813857 297.836399,225.44033 C296.143947,220.704849 294.212878,218.118465 294.193548,218.09286 L294.356576,217.85782 C294.376193,217.883742 296.337115,220.509895 298.047632,225.296091 C299.625327,229.710647 301.310359,236.923899 300.378046,246.218009 Z" id="Path" fill="#F2F2F2"></path>
                <path d="M396.222941,247.507109 L276.324009,247.507109 L276.296349,247.099741 C276.227416,246.086335 274.69791,222.182179 282.420094,213.653031 C284.146397,211.746357 286.225877,210.745539 288.600658,210.678534 C293.634257,210.534921 296.797516,212.426017 299.348885,213.943887 C304.157813,216.805282 307.334682,218.695736 318.885431,204.37659 C331.398464,188.864358 344.899548,185.527094 352.660895,187.382765 C357.675555,188.582039 361.131779,191.971372 362.143436,196.681824 C363.101262,201.142183 362.79617,205.333235 362.551075,208.7008 C362.288748,212.303954 362.081523,215.149988 363.556988,216.439738 C364.78863,217.515885 367.24703,217.613832 371.293225,216.747666 C379.523271,214.986743 391.006782,216.493513 396.770772,223.963148 C399.871905,227.981783 402.31477,235.286676 396.343346,247.265534 L396.222941,247.507109 Z M277.142267,246.63305 L395.68339,246.63305 C400.133185,237.578113 400.272113,229.928585 396.081668,224.498141 C390.79404,217.645854 379.700741,215.842252 371.474933,217.602537 C367.078965,218.54339 364.459512,218.388037 362.984474,217.098715 C361.180516,215.52216 361.40178,212.483861 361.681767,208.637223 C361.923032,205.325354 362.22302,201.203655 361.291582,196.865776 C360.35354,192.497603 357.134112,189.351113 352.458797,188.233139 C344.945102,186.435081 331.821234,189.730311 319.562869,204.926291 C307.538742,219.832274 303.91657,217.677851 298.90446,214.695669 C296.321602,213.159239 293.388971,211.416658 288.625362,211.552165 C286.496525,211.612343 284.625961,212.516916 283.065193,214.240712 C276.124866,221.906035 276.972273,243.401398 277.142267,246.633036 L277.142267,246.63305 Z" id="Shape" fill="#CFCCE0"></path>
                <path d="M189.032678,165.004739 C180.844282,165.004739 173.664121,173.877683 169.704704,187.127171 C169.42464,188.056959 169.162079,189.012172 168.917022,189.981912 C167.249619,196.774149 166.421454,203.758783 166.452452,210.767773 C166.452452,236.002817 176.580296,256.530806 189.032678,256.530806 C201.485059,256.530806 211.612903,236.002817 211.612903,210.767773 C211.612903,185.532729 201.485063,165.004739 189.032678,165.004739 Z M189.032678,255.804408 C176.968886,255.804408 167.152614,235.599666 167.152614,210.767773 C167.1201,203.729134 167.958987,196.715304 169.648691,189.898377 C169.879745,188.986748 170.127136,188.093279 170.390863,187.21797 C174.245255,174.335313 181.159355,165.731137 189.032678,165.731137 C201.096469,165.731137 210.912741,185.935879 210.912741,210.767773 C210.912741,235.599666 201.096476,255.804408 189.032678,255.804408 Z" id="Shape" fill="#3F3D56"></path>
                <path d="M194.193548,237.194313 C189.490328,237.194313 185.806452,225.86944 185.806452,211.412322 C185.806452,196.955205 189.490328,185.630332 194.193548,185.630332 C198.896769,185.630332 202.580645,196.955205 202.580645,211.412322 C202.580645,225.86944 198.896769,237.194313 194.193548,237.194313 Z M194.193548,186.338136 C190.060684,186.338136 186.568915,197.820609 186.568915,211.412322 C186.568915,225.004035 190.060684,236.486508 194.193548,236.486508 C198.326412,236.486508 201.818182,225.004035 201.818182,211.412322 C201.818182,197.820609 198.326424,186.338126 194.193548,186.338126 L194.193548,186.338136 Z" id="Shape" fill="#3F3D56"></path>
                <ellipse id="Oval" fill="#CFCCE0" cx="194.83871" cy="211.412322" rx="2.58064516" ry="6.44549763"></ellipse>
                <polygon id="Path" fill="#3F3D56" points="185.806452 131.672309 238.709677 131.488152 238.709677 151.367171 185.806452 153.402844"></polygon>
                <polygon id="Path" fill="#3F3D56" points="143.95884 195.943128 143.225806 195.902272 145.448411 154.691943 190.967742 154.691943 190.967742 155.44159 146.143618 155.44159"></polygon>
                <polygon id="Path" fill="#3F3D56" points="145.654358 259.109005 120 254.675618 120.152094 253.952607 145.806452 258.385993"></polygon>
                <polygon id="Rectangle" fill="#3F3D56" transform="translate(165.748175, 269.650269) rotate(-85.292150) translate(-165.748175, -269.650269) " points="165.369751 254.059399 166.09127 254.060228 166.126598 285.241139 165.405079 285.24031"></polygon>
                <path d="M221.935484,196.940779 C221.66057,197.616166 221.40154,198.305554 221.158393,199.008943 L220.392299,199.073398 L196.55175,201.099526 L141.935484,196.895941 L198.751062,194.654028 L221.217042,196.870719 L221.935484,196.940779 Z" id="Path" fill="#3F3D56"></path>
                <path d="M209.543512,65.1059615 C209.543512,65.1059615 201.533778,62.2886787 196.384661,73.5578064 C191.235545,84.8269341 183.225806,97.2229699 183.225806,97.2229699 L187.802799,98.349867 C187.802799,98.349867 188.947032,90.461478 191.807668,89.3345663 L190.663417,99.4767787 C190.663417,99.4767787 224.990865,111.309362 240.438215,98.3498816 L239.866099,94.4056871 C239.866099,94.4056871 242.154597,94.9691356 242.154597,98.3498816 L243.870968,96.6595141 C243.870968,96.6595141 242.154597,93.2787754 237.005477,88.771125 C233.625823,85.8124993 232.46442,80.1837502 232.065318,76.6645641 C231.766318,73.7260012 230.572529,70.9450379 228.640516,68.6864021 C225.218654,64.7807566 218.983564,60.6296122 209.543512,65.1059615 Z" id="Path" fill="#2F2E41"></path>
                <path d="M166.456122,78.6350711 L163.331132,44.3135034 C163.331132,44.3135034 157.081152,25.6922273 166.456122,27.1527196 C175.831092,28.6132118 170.275554,42.8530112 170.275554,42.8530112 L175.483871,78.6350711 L166.456122,78.6350711 Z" id="Path" fill="#FFB9B9"></path>
                <polygon id="Path" fill="#FFB9B9" points="140.684262 232.037915 136.774194 243.433555 144.203324 248.796209 149.677419 234.384076"></polygon>
                <path d="M169.913454,238.483412 L166.451613,252.085635 L178.568057,260.398104 C178.568057,260.398104 178.914241,244.906684 180.645161,241.883968 L169.913454,238.483412 Z" id="Path" fill="#FFB9B9"></path>
                <path d="M185.105459,169.634699 L183.275434,173.346766 C183.275434,173.346766 162.413151,163.695392 156.923077,177.058832 C151.433002,190.422272 139.354839,232.739833 139.354839,232.739833 L149.968983,237.194313 L169.367246,192.278306 L213.653846,191.164686 L215.483871,166.293839 L185.105459,169.634699 Z" id="Path" fill="#2F2E41"></path>
                <path d="M199.906559,176.266782 C199.906559,176.266782 170.616371,170.090823 168.473187,184.985782 C166.330002,199.880741 169.544779,228.217492 169.901976,228.944076 C170.259174,229.670659 168.473187,243.112452 168.473187,243.112452 L181.332294,244.92891 C181.332294,244.92891 189.547834,205.330116 185.97586,195.157949 L210.143755,193.637523 C218.486329,193.112682 225.30172,186.41002 225.781468,177.922908 C225.965114,174.674136 225.165517,171.725636 222.409996,170.090823 C213.837258,165.004739 198.120572,165.004739 198.120572,165.004739 L199.906559,176.266782 Z" id="Path" fill="#2F2E41"></path>
                <path d="M141.498206,243.341904 C141.498206,243.341904 138.985063,237.912462 135.394859,240.446202 C131.804654,242.979941 123.547184,248.409384 123.547184,248.409384 C123.547184,248.409384 110.773595,252.944224 122.111102,256.010603 C132.19576,258.73813 134.676818,258.18238 134.676818,258.18238 C134.676818,258.18238 142.934288,259.630231 144.011349,258.906306 C145.088411,258.18238 145.806452,246.59957 145.806452,246.59957 C145.806452,246.59957 140.780165,245.513681 141.498206,243.341904 Z" id="Path" fill="#2F2E41"></path>
                <path d="M171.347955,254.671902 C171.347955,254.671902 167.659184,249.80978 165.077045,251.893547 C162.494906,253.977313 153.27298,259.881319 153.27298,259.881319 C153.27298,259.881319 137.780145,264.048853 151.428595,267.869092 C165.077045,271.689331 180.201003,270.994742 180.56988,269.605564 C180.938757,268.216386 179.832126,258.144847 179.832126,258.144847 C179.832126,258.144847 172.085709,257.797552 171.347955,254.671902 Z" id="Path" fill="#2F2E41"></path>
                <ellipse id="Oval" fill="#FFB9B9" cx="212.903226" cy="88.9478673" rx="12.9032258" ry="12.8909953"></ellipse>
                <path d="M205.072216,97.971564 C205.072216,97.971564 204.30971,112.378694 200.497178,113.432874 C196.684646,114.487055 186.009556,126.083038 190.965848,129.596972 C195.922139,133.110906 224.516129,130.651152 224.516129,130.651152 L221.847357,112.378694 C221.847357,112.378694 215.747306,108.513367 220.703597,101.836892 L205.072216,97.971564 Z" id="Path" fill="#FFB9B9"></path>
                <path d="M204.952983,119.766649 L202.357461,107.706259 L193.82932,104.417062 L186.784333,120.497581 C186.784333,120.497581 178.812374,172.576538 181.037107,173.307471 C182.285428,173.74173 183.608638,173.928047 184.930389,173.85567 C184.930389,173.85567 196.79563,170.201006 200.503517,172.028338 C204.211405,173.85567 223.492421,175.317536 223.492421,175.317536 C223.492421,175.317536 236.840817,168.373675 236.099239,162.160747 C235.357662,155.947818 236.099239,121.228514 236.099239,121.228514 L234.43069,105.696194 L219.800529,107.951969 L204.952983,119.766649 Z" id="Path" fill="#3F3D56"></path>
                <polygon id="Path" fill="#3F3D56" points="192.258065 105.171424 191.920123 103.051571 182.457757 91.0390732 177.050691 70.9004739 163.870968 76.2001053 173.333333 100.57841 186.850998 118.597156"></polygon>
                <path d="M195.415523,90.2369668 C195.415523,90.2369668 200.029971,84.65087 204.067614,83.6352166 C208.105257,82.6195632 208.682063,77.5412898 208.682063,77.5412898 C208.682063,77.5412898 219.064571,87.6978334 225.409436,88.2056601 C231.754301,88.7134868 225.986234,76.0178097 225.986234,76.0178097 L214.450115,73.478673 L203.490801,74.4943132 L194.83871,79.5725867 L195.415523,90.2369668 Z" id="Path" fill="#2F2E41"></path>
                <polygon id="Path" fill="#3F3D56" points="240.575605 175.694411 240.229335 160.584785 206.940573 160.584785 205.876724 201.099526 205.16129 201.079274 206.244099 159.848341 240.921159 159.848341 240.932606 160.204044 241.290323 175.669372"></polygon>
                <polygon id="Path" fill="#3F3D56" points="239.509134 154.691943 238.709677 154.691943 238.709677 126.331754 251.612903 129.813476 251.389455 130.527208 239.509134 127.32117"></polygon>
                <path d="M239.355258,175.317536 C231.166863,175.317536 223.986701,184.190479 220.027285,197.439967 C219.74722,198.369756 219.48466,199.324968 219.239603,200.294708 C217.5722,207.086945 216.744035,214.071579 216.775032,221.080569 C216.775032,246.315613 226.902876,266.843602 239.355258,266.843602 C251.80764,266.843602 261.935484,246.315613 261.935484,221.080569 C261.935484,195.845525 251.807643,175.317536 239.355258,175.317536 Z M239.355258,266.117205 C227.291466,266.117205 217.475194,245.912462 217.475194,221.080569 C217.44268,214.04193 218.281567,207.0281 219.971272,200.211173 C220.202326,199.299544 220.449716,198.406075 220.713444,197.530767 C224.567836,184.64811 231.481936,176.043933 239.355258,176.043933 C251.41905,176.043933 261.235322,196.248675 261.235322,221.080569 C261.235322,245.912462 251.419057,266.117205 239.355258,266.117205 Z" id="Shape" fill="#3F3D56"></path>
                <path d="M247.096774,244.92891 C242.393553,244.92891 238.709677,233.604037 238.709677,219.146919 C238.709677,204.689802 242.393553,193.364929 247.096774,193.364929 C251.799995,193.364929 255.483871,204.689802 255.483871,219.146919 C255.483871,233.604037 251.799995,244.92891 247.096774,244.92891 Z M247.096774,194.072733 C242.96391,194.072733 239.472141,205.555206 239.472141,219.146919 C239.472141,232.738632 242.96391,244.221105 247.096774,244.221105 C251.229638,244.221105 254.721408,232.738632 254.721408,219.146919 C254.721408,205.555206 251.22965,194.072723 247.096774,194.072723 L247.096774,194.072733 Z" id="Shape" fill="#3F3D56"></path>
                <ellipse id="Oval" fill="#CFCCE0" cx="245.16129" cy="219.146919" rx="2.58064516" ry="6.44549763"></ellipse>
                <polygon id="Path" fill="#3F3D56" points="243.870968 126.331754 250.322581 128.502869 249.093702 131.488152 243.870968 129.588426"></polygon>
                <polygon id="Path" fill="#3F3D56" points="212.903226 157.270142 212.903226 162.42654 234.83871 162.42654 234.83871 157.61272"></polygon>
                <polygon id="Path" fill="#3F3D56" points="158.709677 154.691943 158.709677 159.848341 180.645161 159.848341 180.645161 155.034521"></polygon>
                <g>
                    <animateTransform repeatCount="indefinite"  attributeName="transform" type="translate" dur="2s" values="0 15; 0 0; 0 15"></animateTransform>
                    <animateTransform repeatCount="indefinite"  attributeName="transform" type="rotate" dur="2s" values="0 100 0; 5 100 0; 0 100 0"></animateTransform>

                    <g id="Group-11" transform="translate(82.580645, 0.000000)">
                        <polygon id="Path" fill="#FFFFFF" points="9.9475983e-14 32.2274882 145.806452 32.2274882 145.806452 -3.90798505e-14 9.9475983e-14 -3.90798505e-14"></polygon>
                        <rect id="Rectangle" fill="#CFCCE0" x="14.1935484" y="11.6018957" width="16.7741935" height="16.7582938"></rect>
                        <path d="M28.3870968,24.492891 L11.6129032,24.492891 L11.6129032,7.73459716 L28.3870968,7.73459716 L28.3870968,24.492891 Z M12.4516124,23.6549768 L27.5484016,23.6549768 L27.5484016,8.57251132 L12.4516124,8.57251132 L12.4516124,23.6549768 Z" id="Shape" fill="#3F3D56"></path>
                        <rect id="Rectangle" fill="#3F3D56" x="54.1935484" y="10.3127962" width="77.4193548" height="1.28909953"></rect>
                        <rect id="Rectangle" fill="#3F3D56" x="54.1935484" y="15.4691943" width="77.4193548" height="1.28909953"></rect>
                        <rect id="Rectangle" fill="#3F3D56" x="54.1935484" y="21.9146919" width="77.4193548" height="1.28909953"></rect>
                    </g>
                </g>
                <path d="M197.419343,139.146613 L197.234504,139.146613 L197.234504,134.295732 C197.23451,133.551114 196.925742,132.836991 196.376128,132.310466 C195.826513,131.783942 195.081073,131.488146 194.3038,131.488152 L183.575865,131.488152 C182.798592,131.488146 182.053153,131.783942 181.503538,132.310466 C180.953923,132.836991 180.645155,133.551114 180.645161,134.295732 L180.645161,160.90806 C180.645155,161.652678 180.953923,162.3668 181.503538,162.893325 C182.053153,163.41985 182.798592,163.715646 183.575865,163.71564 L194.303812,163.71564 C195.081085,163.715646 195.826524,163.41985 196.376139,162.893325 C196.925754,162.3668 197.234522,161.652678 197.234516,160.90806 L197.234516,142.599554 L197.419355,142.599554 L197.419343,139.146613 Z" id="Path" fill="#3F3D56"></path>
                <ellipse id="Oval" fill="#D0CDE1" cx="190.967742" cy="140.511848" rx="2.58064516" ry="2.57819905"></ellipse>
                <path d="M234.984439,156.856724 L198.529192,156.107904 C198.529192,156.107904 178.17283,161.196688 180.895877,150.077991 C183.618925,138.959294 197.87522,147.537078 197.87522,147.537078 L236.129032,145.964649 L234.984439,156.856724 Z" id="Path" fill="#FFB9B9"></path>
                <path d="M228.690525,108.5705 L232.134515,106.082197 C232.134515,106.082197 237.874497,103.238423 239.022494,113.191634 C240.17049,123.144846 248.589132,156.203727 240.17049,156.559199 C231.751849,156.91467 210.322581,157.270142 210.322581,157.270142 L212.618574,146.250515 L230.221187,145.1841 L228.690525,108.5705 Z" id="Path" fill="#3F3D56"></path>
                <polygon id="Path" fill="#000000" opacity="0.15" points="230.967742 123.753555 229.897049 144.906506 214.193548 148.246445 228.469458 142.308775"></polygon>
            </g>
        </g>
    </g>
</svg>
