<?xml version="1.0" encoding="UTF-8"?>
<svg width="400px" height="302px" viewBox="0 0 400 302" version="1.1" xmlns="http://www.w3.org/2000/svg" xmlns:xlink="http://www.w3.org/1999/xlink">
    <style lang="css">
        @media (prefers-color-scheme: dark) {
            #Path-1, #tree {
                fill: #1a1a1a !important;
            }
        }
    </style>
    <g id="Home" stroke="none" stroke-width="1" fill="none" fill-rule="evenodd">
        <g id="Desktop-HD-Copy" transform="translate(-220.000000, -1096.000000)" fill-rule="nonzero">
            <g id="undraw_code_review_l1q9" transform="translate(220.000000, 1096.000000)">
                <path d="M192.683241,266.869447 C106.519646,260.357238 3.76555165,194.05108 8.99691548,125.778043 C14.2282793,57.5050051 113.746727,-6.05148342 199.910319,0.460714851 C286.07391,6.97291313 335.672622,134.563732 330.441258,202.836758 C325.209894,271.109785 278.846833,273.381656 192.683241,266.869447 Z" id="Path-1" fill="#FFFFFF"></path>
                <ellipse id="Oval" fill="#3F3D56" cx="201.257862" cy="267.395833" rx="179.874214" ry="10.6958333"></ellipse>
                <ellipse id="Oval" fill="#000000" opacity="0.1" cx="201.257862" cy="266.1375" rx="150.943396" ry="6.92083333"></ellipse>
                <ellipse id="Oval" fill="#3F3D56" cx="76.1006289" cy="296.3375" rx="76.1006289" ry="5.6625"></ellipse>
                <ellipse id="Oval" fill="#000000" opacity="0.1" cx="76.1006289" cy="294.45" rx="63.5220126" ry="5.03333333"></ellipse>
                <rect id="Rectangle" fill="#3F3D56" x="70.4402516" y="55.3666667" width="265.408805" height="210.141667"></rect>
                <path d="M200.469636,88.0833305 L135.38275,88.0833305 C135.100153,88.0842793 134.838768,87.8446506 134.697298,87.4549321 C134.555827,87.0652135 134.555827,86.5847865 134.697298,86.1950679 C134.838768,85.8053494 135.100153,85.5657207 135.38275,85.5666695 L200.469636,85.5666695 C200.90523,85.5681319 201.257862,86.1310771 201.257862,86.825 C201.257862,87.5189229 200.90523,88.0818681 200.469636,88.0833305 L200.469636,88.0833305 Z" id="Path" fill="#F2F2F2"></path>
                <path d="M270.914339,98.15 L169.337233,98.15 C168.904367,98.1499999 168.553459,97.5866249 168.553459,96.8916667 C168.553459,96.1967084 168.904367,95.6333334 169.337233,95.6333333 L270.914339,95.6333333 C271.194354,95.6333333 271.453099,95.8731702 271.593107,96.2625 C271.733115,96.6518297 271.733115,97.1315037 271.593107,97.5208334 C271.453099,97.9101631 271.194354,98.1500001 270.914339,98.15 Z" id="Path" fill="#F2F2F2"></path>
                <path d="M200.467972,103.183333 L135.381085,103.183333 C134.944841,103.183333 134.591195,102.619958 134.591195,101.925 C134.591195,101.230042 134.944841,100.666667 135.381085,100.666667 L200.467972,100.666667 C200.904216,100.666667 201.257862,101.230042 201.257862,101.925 C201.257862,102.619958 200.904216,103.183333 200.467972,103.183333 L200.467972,103.183333 Z" id="Path" fill="#F2F2F2"></path>
                <path d="M272.166085,103.183333 L207.079198,103.183333 C206.642954,103.183333 206.289308,102.619958 206.289308,101.925 C206.289308,101.230042 206.642954,100.666667 207.079198,100.666667 L272.166085,100.666667 C272.602329,100.666667 272.955975,101.230042 272.955975,101.925 C272.955975,102.619958 272.602329,103.183333 272.166085,103.183333 L272.166085,103.183333 Z" id="Path" fill="#F2F2F2"></path>
                <path d="M200.467972,113.25 L135.381085,113.25 C134.944841,113.25 134.591195,112.686625 134.591195,111.991667 C134.591195,111.296708 134.944841,110.733333 135.381085,110.733333 L200.467972,110.733333 C200.904216,110.733333 201.257862,111.296708 201.257862,111.991667 C201.257862,112.686625 200.904216,113.25 200.467972,113.25 Z" id="Path" fill="#F2F2F2"></path>
                <path d="M200.467972,122.058333 L135.381085,122.058333 C134.944841,122.058333 134.591195,121.494958 134.591195,120.8 C134.591195,120.105042 134.944841,119.541667 135.381085,119.541667 L200.467972,119.541667 C200.904216,119.541667 201.257862,120.105042 201.257862,120.8 C201.257862,121.494958 200.904216,122.058333 200.467972,122.058333 L200.467972,122.058333 Z" id="Path" fill="#F2F2F2"></path>
                <path d="M231.869103,88.0833333 L212.156054,88.0833333 C211.694731,88.0833333 211.320755,87.5199583 211.320755,86.825 C211.320755,86.1300417 211.694731,85.5666667 212.156054,85.5666667 L231.869103,85.5666667 C232.330426,85.5666667 232.704403,86.1300417 232.704403,86.825 C232.704403,87.5199583 232.330426,88.0833333 231.869103,88.0833333 L231.869103,88.0833333 Z" id="Path" fill="#F2F2F2"></path>
                <path d="M231.869103,113.25 L212.156054,113.25 C211.694731,113.25 211.320755,112.686625 211.320755,111.991667 C211.320755,111.296708 211.694731,110.733333 212.156054,110.733333 L231.869103,110.733333 C232.330426,110.733333 232.704403,111.296708 232.704403,111.991667 C232.704403,112.686625 232.330426,113.25 231.869103,113.25 L231.869103,113.25 Z" id="Path" fill="#F2F2F2"></path>
                <path d="M231.867481,122.058331 L212.157676,122.058331 C211.858883,122.059279 211.582517,121.819651 211.432939,121.429932 C211.28336,121.040214 211.28336,120.559786 211.432939,120.170068 C211.582517,119.780349 211.858883,119.540721 212.157676,119.541669 L231.867481,119.541669 C232.166274,119.540721 232.44264,119.780349 232.592219,120.170068 C232.741797,120.559786 232.741797,121.040214 232.592219,121.429932 C232.44264,121.819651 232.166274,122.059279 231.867481,122.058331 L231.867481,122.058331 Z" id="Path" fill="#F2F2F2"></path>
                <path d="M262.056022,122.058331 L242.342973,122.058331 C241.882338,122.056868 241.509434,121.493923 241.509434,120.8 C241.509434,120.106077 241.882338,119.543132 242.342973,119.541669 L262.056022,119.541669 C262.354865,119.540721 262.631276,119.780349 262.780879,120.170068 C262.930483,120.559786 262.930483,121.040214 262.780879,121.429932 C262.631276,121.819651 262.354865,122.059279 262.056022,122.058331 Z" id="Path" fill="#F2F2F2"></path>
                <path d="M155.139544,98.15 L135.426494,98.15 C134.965171,98.1499999 134.591195,97.5866249 134.591195,96.8916667 C134.591195,96.1967084 134.965171,95.6333334 135.426494,95.6333333 L155.139544,95.6333333 C155.600867,95.6333334 155.974843,96.1967084 155.974843,96.8916667 C155.974843,97.5866249 155.600867,98.1499999 155.139544,98.15 Z" id="Path" fill="#F2F2F2"></path>
                <path d="M200.467972,213.916667 L135.381085,213.916667 C134.944841,213.916667 134.591195,213.353292 134.591195,212.658333 C134.591195,211.963375 134.944841,211.4 135.381085,211.4 L200.467972,211.4 C200.904216,211.4 201.257862,211.963375 201.257862,212.658333 C201.257862,213.353292 200.904216,213.916667 200.467972,213.916667 Z" id="Path" fill="#F2F2F2"></path>
                <path d="M200.467972,231.533333 L135.381085,231.533333 C134.944841,231.533333 134.591195,230.969958 134.591195,230.275 C134.591195,229.580042 134.944841,229.016667 135.381085,229.016667 L200.467972,229.016667 C200.904216,229.016667 201.257862,229.580042 201.257862,230.275 C201.257862,230.969958 200.904216,231.533333 200.467972,231.533333 Z" id="Path" fill="#F2F2F2"></path>
                <path d="M200.466347,240.341664 L135.38271,240.341664 C135.100128,240.342613 134.838756,240.102984 134.697292,239.713265 C134.555829,239.323547 134.555829,238.84312 134.697292,238.453401 C134.838756,238.063683 135.100128,237.824054 135.38271,237.825003 L200.466347,237.825003 C200.748929,237.824054 201.010301,238.063683 201.151764,238.453401 C201.293227,238.84312 201.293227,239.323547 201.151764,239.713265 C201.010301,240.102984 200.748929,240.342613 200.466347,240.341664 Z" id="Path" fill="#F2F2F2"></path>
                <path d="M231.869103,231.533333 L212.156054,231.533333 C211.694731,231.533333 211.320755,230.969958 211.320755,230.275 C211.320755,229.580042 211.694731,229.016667 212.156054,229.016667 L231.869103,229.016667 C232.330426,229.016667 232.704403,229.580042 232.704403,230.275 C232.704403,230.969958 232.330426,231.533333 231.869103,231.533333 Z" id="Path" fill="#F2F2F2"></path>
                <path d="M231.869105,240.341667 L212.156052,240.341667 C211.69473,240.341667 211.320755,239.778292 211.320755,239.083333 C211.320755,238.388375 211.69473,237.825 212.156052,237.825 L231.869105,237.825 C232.330427,237.825 232.704403,238.388375 232.704403,239.083333 C232.704403,239.778292 232.330427,240.341667 231.869105,240.341667 L231.869105,240.341667 Z" id="Path" fill="#F2F2F2"></path>
                <path d="M258.284198,231.533333 L238.571148,231.533333 C238.109825,231.533333 237.735849,230.969958 237.735849,230.275 C237.735849,229.580042 238.109825,229.016667 238.571148,229.016667 L258.284198,229.016667 C258.745521,229.016667 259.119497,229.580042 259.119497,230.275 C259.119497,230.969958 258.745521,231.533333 258.284198,231.533333 L258.284198,231.533333 Z" id="Path" fill="#F2F2F2"></path>
                <path d="M270.914339,225.241667 L169.337234,225.241667 C168.904367,225.241667 168.553459,224.678292 168.553459,223.983333 C168.553459,223.288375 168.904367,222.725 169.337234,222.725 L270.914339,222.725 C271.347205,222.725 271.698113,223.288375 271.698113,223.983333 C271.698113,224.678292 271.347205,225.241667 270.914339,225.241667 L270.914339,225.241667 Z" id="Path" fill="#F2F2F2"></path>
                <path d="M155.139543,225.241667 L135.426494,225.241667 C134.965171,225.241667 134.591195,224.678292 134.591195,223.983333 C134.591195,223.288375 134.965171,222.725 135.426494,222.725 L155.139543,222.725 C155.600867,222.725 155.974843,223.288375 155.974843,223.983333 C155.974843,224.678292 155.600867,225.241667 155.139543,225.241667 L155.139543,225.241667 Z" id="Path" fill="#F2F2F2"></path>
                <path d="M270.914353,249.149997 L169.338873,249.149997 C169.058469,249.150946 168.799112,248.911317 168.658739,248.521599 C168.518366,248.13188 168.518366,247.651453 168.658739,247.261735 C168.799112,246.872016 169.058469,246.632387 169.338873,246.633336 L270.914353,246.633336 C271.347212,246.633336 271.698113,247.19671 271.698113,247.891667 C271.698113,248.586623 271.347212,249.149997 270.914353,249.149997 L270.914353,249.149997 Z" id="Path" fill="#F2F2F2"></path>
                <path d="M155.137921,249.149997 L135.428117,249.149997 C135.129324,249.150946 134.852958,248.911317 134.703379,248.521599 C134.5538,248.13188 134.5538,247.651453 134.703379,247.261735 C134.852958,246.872016 135.129324,246.632387 135.428117,246.633336 L155.137921,246.633336 C155.436714,246.632387 155.71308,246.872016 155.862659,247.261735 C156.012237,247.651453 156.012237,248.13188 155.862659,248.521599 C155.71308,248.911317 155.436714,249.150946 155.137921,249.149997 L155.137921,249.149997 Z" id="Path" fill="#F2F2F2"></path>
                <polygon id="Path" fill="#CE7953" transform="translate(0, 0)" points="183.558606 142.191667 155.974843 166.729167 183.558606 191.266667 189.764818 185.675931 168.904899 166.884369 189.937107 147.937605">
                    <animateTransform repeatCount="indefinite"  attributeName="transform" type="translate" dur="2s" values="0 0; 5 0; 0 0"></animateTransform>
                </polygon>
                <polygon id="Path" fill="#CE7953" points="220.214979 142.191667 247.798742 166.729167 220.214979 191.266667 214.008766 185.675931 234.869069 166.884369 213.836478 147.937605">
                    <animateTransform repeatCount="indefinite"  attributeName="transform" type="translate" dur="2s" values="0 0; -5 0; 0 0"></animateTransform>
                </polygon>
                <ellipse id="Oval" fill="#CE7953" cx="76.1006289" cy="61.0291667" rx="3.14465409" ry="3.14583333"></ellipse>
                <ellipse id="Oval" fill="#CE7953" cx="84.9056604" cy="61.0291667" rx="3.14465409" ry="3.14583333"></ellipse>
                <ellipse id="Oval" fill="#CE7953" cx="92.4528302" cy="61.0291667" rx="3.14465409" ry="3.14583333"></ellipse>
                <rect id="Rectangle" fill="#000000" opacity="0.1" x="70.4402516" y="70.4666667" width="265.408805" height="1.25833333"></rect>
                <path d="M400,215.840235 C400,237.731417 386.484069,245.375 369.811321,245.375 C353.138572,245.375 339.622642,237.731417 339.622642,215.840235 C339.622642,193.949053 369.811321,166.1 369.811321,166.1 C369.811321,166.1 400,193.949053 400,215.840235 Z" id="tree" fill="#F2F2F2"></path>
                <polygon id="Path" fill="#3F3D56" points="369.896069 240.600574 370.218672 222.016221 383.647799 199.024914 370.269276 219.101002 370.414391 210.744641 379.669404 194.110965 370.452717 208.533503 370.452717 208.533503 370.713552 193.504382 380.624189 180.261581 370.754482 191.141076 370.917458 163.583333 369.893092 200.065019 369.977185 198.560053 359.900967 184.126371 369.815697 201.449157 368.876912 218.233957 368.849005 217.788247 357.232704 202.598949 368.813657 219.36216 368.696448 221.461174 368.675239 221.492861 368.684913 221.665225 366.302788 264.25 369.485281 264.25 369.867046 242.254227 381.420091 225.531757"></polygon>
                <path d="M42.8854581,267.64483 C41.8629307,268.171109 40.784272,268.598208 39.6666963,268.919312 C37.6677425,269.424148 35.5312226,269.23894 33.5121369,269.669891 C32.6854736,269.846334 31.7857568,270.215397 31.5228614,270.961159 C31.3300242,271.508175 31.5398092,272.098878 31.7406991,272.643413 C33.9717464,278.690978 35.3164824,285.112035 38.8745071,290.589903 C40.3698133,292.890635 42.2257571,294.973735 44.3818269,296.771283 C45.1906923,297.445281 46.1073254,298.104629 47.1902207,298.210375 C48.2060063,298.30957 49.2016347,297.899073 49.8005774,297.134126 C50.3995201,296.36918 50.5103535,295.366546 50.0911623,294.505402 C49.7721377,293.850028 49.1791185,293.34239 48.7966596,292.716707 C48.3819355,291.919698 48.138719,291.055766 48.0805387,290.172965 C47.7290196,287.58643 47.3903865,284.883085 48.3597561,282.435107 C49.00992,280.793232 50.2025509,279.3935 51.1960945,277.905777 C52.1896382,276.418053 53.0151326,274.713904 52.7940517,272.977457 C52.6431825,271.792467 52.0179444,270.708026 51.3574646,269.682936 C50.6956663,268.655827 49.3876794,265.895593 48.0580886,265.552831 C46.6779141,265.197034 44.0891173,267.074518 42.8854581,267.64483 Z" id="Path" fill="#2F2E41"></path>
                <path d="M75.4453074,285.899949 C75.4646709,286.535092 75.3825267,287.169091 75.2024733,287.77417 C74.8152481,288.877115 73.8546765,289.632896 73.3584302,290.683801 C72.6682381,292.145405 72.9810654,293.912117 73.438335,295.476493 C73.7250119,296.457249 74.1010293,297.477769 74.8708809,298.084318 C75.5292486,298.52453 76.2779229,298.783225 77.0508736,298.837587 C83.6548475,299.823489 90.3633168,299.257827 97.0274857,299.464393 C98.2421175,299.50204 99.5280827,299.547915 100.588368,298.907618 C101.648653,298.26732 102.304145,296.657594 101.583017,295.602613 C100.935467,294.655278 99.6551037,294.664098 98.5651824,294.60827 C95.726997,294.45273 93.0241556,293.25172 90.9078948,291.205749 C90.4905355,290.821137 90.1285565,290.371674 89.8338498,289.872125 C89.607203,289.428734 89.4191306,288.963643 89.2720444,288.482816 C88.3378312,285.753127 87.2264329,283.097853 85.9461094,280.53673 C85.5877332,279.819904 85.1819551,279.073393 84.5159289,278.689762 C84.0283743,278.450657 83.4992782,278.326053 82.9637034,278.324208 C81.3027351,278.208089 77.0016192,277.598325 75.7172358,278.991549 C74.5305045,280.278867 75.4716189,284.264898 75.4453074,285.899949 Z" id="Path" fill="#2F2E41"></path>
                <ellipse id="Oval" fill="#FBBEBE" cx="87.4213836" cy="132.754167" rx="10.6918239" ry="10.6958333"></ellipse>
                <path d="M77.2868566,141.764391 C76.6918147,143.345679 75.6824962,144.830768 74.2138365,145.681693 L88.0503145,148.483333 C87.5484583,146.478773 87.4823339,144.391119 87.8563394,142.359224 C87.9936502,141.867398 88.0218917,141.351866 87.9391174,140.84816 C87.6789442,139.851708 86.5489096,139.372078 85.5378163,139.14329 C83.0125053,138.571865 80.7792979,138.265437 78.4325733,137.158333 C77.7152651,138.377247 77.8157001,140.359026 77.2868566,141.764391 Z" id="Path" fill="#FBBEBE"></path>
                <path d="M73.5146153,140.662631 C76.3730061,139.26211 79.6662059,139.355282 82.4531472,140.915522 C84.1345381,141.874918 85.5267575,143.323081 86.8945795,144.751861 C88.1554002,146.068873 89.5003794,147.576864 89.5898657,149.471287 C89.6332115,150.389025 89.3686664,151.286566 89.2350947,152.194049 C88.7430294,156.040825 90.5522192,159.803667 93.7447578,161.573469 C94.7866274,163.452719 95.0016545,165.729519 95.0176347,167.921301 C95.0781781,176.225789 92.6583577,184.63272 94.3858859,192.724075 C94.791484,194.623799 95.4205591,196.46384 95.7709546,198.376395 C96.2248041,200.853647 96.2023998,203.400914 96.4398476,205.913311 C96.6973568,208.633976 97.2592622,211.310677 98.1132075,213.884552 C97.5424635,214.867409 96.3546451,215.244287 95.2849223,215.164686 C94.2151994,215.085086 93.214928,214.582452 92.2604012,214.053566 C87.638399,211.492592 83.4049741,208.115641 78.6178521,205.939139 C75.4507334,204.499183 72.0767265,203.602252 69.0042551,201.939169 C65.9317837,200.276086 63.0743165,197.636688 62.1348764,194.059162 C61.7286664,192.512267 61.7036603,190.882397 61.6814884,189.27437 C61.5881076,182.501433 61.501344,175.654561 62.8629023,169.043247 C64.0636246,163.212927 66.378165,157.635414 66.8831066,151.686973 C67.0474671,149.750726 67.0509753,147.677949 68.0501014,146.062282 C69.4623001,143.778632 72.5114868,143.187217 73.5146153,140.662631 Z" id="Path" fill="#2F2E41"></path>
                <path d="M81.6802045,132.177991 C82.29029,131.351116 83.4669348,131.238352 84.4415923,131.482943 C85.4162498,131.727534 86.3149427,132.249538 87.2992873,132.447858 C87.7517128,132.581325 88.2373185,132.510449 88.6368588,132.252635 C88.9809595,131.900501 89.1867179,131.427953 89.2141129,130.926904 C89.5589059,128.795106 89.6394711,126.626189 89.4538413,124.473115 C89.4025846,124.171062 89.4220437,123.860626 89.5105744,123.568035 C89.7542727,122.957801 90.497767,122.812554 91.1050081,122.616792 C93.1659719,121.892885 94.4919697,119.808598 94.3255743,117.554502 C94.3103895,117.028941 94.0979132,116.530416 93.7335875,116.165546 C93.3136438,115.809948 92.7258699,115.788099 92.1841772,115.783576 C89.4010447,115.760351 86.6178563,115.761051 83.834612,115.785674 C82.8045113,115.79479 81.7226945,115.821143 80.829701,116.354825 C80.1694679,116.749405 79.6784909,117.384506 79.0857715,117.881538 C77.5398917,119.177871 75.4489315,119.441637 73.5681987,120.106033 C72.6501009,120.377716 71.8164054,120.894341 71.1499646,121.604566 C70.524514,122.347084 70.2238038,123.451201 70.6166119,124.349609 C70.8182704,124.724067 71.0435023,125.08428 71.290838,125.427896 C72.400212,127.271208 71.6616668,129.662126 71.827328,131.829418 C72.0341929,134.535768 75.8883532,138.926003 78.5017996,139.566421 C82.7210357,140.600332 80.2834773,133.954505 81.6802045,132.177991 Z" id="Path" fill="#2F2E41"></path>
                <path d="M75.9243634,247.114523 C76.1518718,249.010108 76.4436403,250.912234 76.3656434,252.824147 C76.2567501,255.49339 75.4315984,258.065215 75.2790549,260.731547 C75.1651205,262.723007 75.4286336,264.736004 75.1915713,266.712643 C75.0397759,267.978312 74.6859885,269.198385 74.4669744,270.450583 C73.7661135,274.573731 74.5348554,278.852051 76.5960708,282.299755 C76.7459349,282.591767 76.9589963,282.832661 77.2138751,282.998264 C77.458344,283.103912 77.7200012,283.144297 77.9796093,283.116452 C80.5545658,283.055319 83.1226512,282.783046 85.664868,282.301646 C85.8509617,282.292744 86.027269,282.201993 86.1583506,282.047636 C86.2156759,281.945296 86.2523219,281.8291 86.2655219,281.707821 C86.7368892,278.881013 85.6619552,276.046611 85.3886104,273.184522 C85.0967351,270.128435 85.7253023,267.065947 86.3492193,264.078336 C86.6321366,262.604574 86.9855901,261.150455 87.4079189,259.722812 C87.7094946,258.762014 88.073706,257.827519 88.3350879,256.850824 C88.7052887,255.316461 88.9307384,253.739519 89.0074273,252.148047 C89.1889183,249.636776 89.2850732,247.119753 89.2958921,244.596979 C89.3575434,242.206351 89.1869871,239.815266 88.787482,237.469406 C88.2140698,234.499406 87.0398267,231.741466 85.8758703,229.016667 C85.2535064,229.190679 84.6692265,229.514645 84.160568,229.967751 C82.6606413,231.101061 81.094533,232.110458 79.4737327,232.988535 C78.3847534,233.578673 76.2610522,233.9978 75.5699073,235.227529 C74.8883224,236.440253 75.328085,238.914497 75.3801592,240.251995 C75.4695256,242.547722 75.650927,244.835231 75.9243634,247.114523 Z" id="Path" fill="#2F2E41"></path>
                <path d="M75.9243634,247.114523 C76.1518718,249.010108 76.4436403,250.912234 76.3656434,252.824147 C76.2567501,255.49339 75.4315984,258.065215 75.2790549,260.731547 C75.1651205,262.723007 75.4286336,264.736004 75.1915713,266.712643 C75.0397759,267.978312 74.6859885,269.198385 74.4669744,270.450583 C73.7661135,274.573731 74.5348554,278.852051 76.5960708,282.299755 C76.7459349,282.591767 76.9589963,282.832661 77.2138751,282.998264 C77.458344,283.103912 77.7200012,283.144297 77.9796093,283.116452 C80.5545658,283.055319 83.1226512,282.783046 85.664868,282.301646 C85.8509617,282.292744 86.027269,282.201993 86.1583506,282.047636 C86.2156759,281.945296 86.2523219,281.8291 86.2655219,281.707821 C86.7368892,278.881013 85.6619552,276.046611 85.3886104,273.184522 C85.0967351,270.128435 85.7253023,267.065947 86.3492193,264.078336 C86.6321366,262.604574 86.9855901,261.150455 87.4079189,259.722812 C87.7094946,258.762014 88.073706,257.827519 88.3350879,256.850824 C88.7052887,255.316461 88.9307384,253.739519 89.0074273,252.148047 C89.1889183,249.636776 89.2850732,247.119753 89.2958921,244.596979 C89.3575434,242.206351 89.1869871,239.815266 88.787482,237.469406 C88.2140698,234.499406 87.0398267,231.741466 85.8758703,229.016667 C85.2535064,229.190679 84.6692265,229.514645 84.160568,229.967751 C82.6606413,231.101061 81.094533,232.110458 79.4737327,232.988535 C78.3847534,233.578673 76.2610522,233.9978 75.5699073,235.227529 C74.8883224,236.440253 75.328085,238.914497 75.3801592,240.251995 C75.4695256,242.547722 75.650927,244.835231 75.9243634,247.114523 Z" id="Path" fill="#000000" opacity="0.1"></path>
                <path d="M59.2790742,206.366667 C57.8635792,210.01241 59.9442512,213.951986 61.7519304,217.435467 C66.205426,226.017581 69.2980302,235.175147 72.374128,244.293479 C72.6045465,244.976497 72.8347811,245.721657 72.577905,246.395982 C72.3560741,246.875095 71.9959623,247.283718 71.5398499,247.573878 C69.4188698,249.115013 66.718196,249.66387 64.1916447,250.470156 C61.7499381,251.249705 59.4113638,252.298455 57.2231161,253.595239 C55.3922828,254.680533 53.6772015,255.933385 51.9654861,257.184002 L46.5165206,261.165155 C46.1637402,261.393219 45.8554823,261.678679 45.6057429,262.008573 C45.0801966,262.797348 45.2954624,263.827093 45.5571172,264.728358 C46.2500434,267.114715 47.1422045,269.443975 48.224995,271.693672 C48.4031505,272.186803 48.7423511,272.612056 49.1925064,272.906633 C50.0430078,273.34387 51.0832776,272.764104 51.7327389,272.080614 C52.3822003,271.397125 52.9439382,270.546591 53.8594541,270.25317 C54.7738959,269.960093 55.7803506,270.315014 56.73538,270.186758 C58.279966,269.979322 59.3054325,268.61814 60.4188137,267.573185 C64.9677103,263.303857 72.5624027,263.613584 77.5663682,259.838832 C78.2897057,259.219621 79.0554882,258.647343 79.8585977,258.125822 C80.7045411,257.647453 81.6638784,257.384903 82.5415694,256.962099 C85.2111027,255.676124 86.8893561,253.017525 87.7883655,250.290643 C88.6873749,247.56376 88.9437654,244.685219 89.5897982,241.893508 C89.9237772,240.450288 90.3634063,239.022607 90.5119727,237.551289 C90.6075283,236.182806 90.576373,234.80892 90.4188709,233.445688 L88.6132922,212.078358 C88.4662893,210.33868 88.31904,208.596971 88.0336167,206.873109 C82.6712343,207.056497 77.3126925,207.262881 71.9472568,207.323574 C67.6778569,207.371848 63.3300078,207.657368 59.2790742,206.366667 Z" id="Path" fill="#2F2E41"></path>
                <path d="M59.5837111,211.679563 C60.2358318,212.893182 61.823051,212.868113 62.9160177,212.202745 C64.0089845,211.537376 64.8580964,210.419554 65.9536355,209.759876 C67.4257838,208.873423 69.1678239,208.906758 70.826697,208.960976 C73.4530181,209.046812 76.111583,209.138174 78.638452,209.971034 C81.2520068,210.832472 83.7962954,212.491045 86.4987127,212.160166 C86.968963,212.10259 87.4831581,211.946535 87.7390799,211.486399 C87.8890432,211.153057 87.9595802,210.779513 87.9434388,210.404171 L88.0318032,207.672097 C88.0859651,207.199591 88.0206729,206.719046 87.8438218,206.28857 C87.6170208,205.930335 87.3061655,205.654916 86.9481465,205.494998 C83.101658,203.340281 78.7150297,202.939076 74.4440494,202.769766 C72.2730116,202.683702 70.1010592,202.648303 67.9281921,202.663571 C66.0843255,202.67658 63.8707621,202.367863 62.0781022,202.937984 C59.6722371,203.703137 58.3631413,209.408049 59.5837111,211.679563 Z" id="Path" fill="#2F2E41"></path>
                <path d="M86.205859,145.440104 C80.7782557,145.398206 75.8597162,142.276217 70.4325993,142.200163 C69.7769055,142.160638 69.1199392,142.25942 68.5173571,142.488142 C67.7611095,142.820123 67.2639009,143.462046 66.6894273,144.004172 C65.0847185,145.518519 62.7609403,146.327081 61.1123622,147.805194 C59.5665886,149.191122 58.7069151,151.256008 59.3171887,153.114103 C59.9274623,154.972198 62.2307479,156.397452 64.388507,155.95076 C65.257851,153.498578 67.0520912,151.374139 69.4803678,149.921829 C70.7438489,149.215587 72.0754255,148.606452 73.4600439,148.10131 C75.8992489,147.138242 78.6268219,146.156765 81.1733454,146.878681 C82.1124843,147.187738 82.9980293,147.60856 83.8047839,148.129175 L88.0503145,150.614475 C87.5556203,148.914072 87.110787,147.007053 86.205859,145.440104 Z" id="Path" fill="#CE7953"></path>
                <path d="M65.2145632,153.058364 C64.5128265,153.969133 65.5237105,155.28877 65.3689847,156.444877 C65.2661915,157.213015 64.6585995,157.799526 64.4055794,158.529033 C64.1434923,159.284676 64.2824738,160.121705 64.1830763,160.918336 C64.0833285,161.497638 63.9358058,162.066926 63.7421438,162.619887 C63.2969485,164.271771 62.9861992,165.959713 62.8131872,167.665834 L61.8882005,174.852304 C61.7276871,175.933829 61.6299937,177.024438 61.5956518,178.118196 C61.6422809,178.935674 61.589754,179.756007 61.4393111,180.559826 C61.2344854,181.34519 60.7809518,182.032248 60.4758504,182.781534 C60.170749,183.53082 60.0293262,184.437165 60.441488,185.128756 C59.0612387,186.324811 58.6508335,188.673777 59.6159471,190.249987 C59.7996718,190.495567 59.9433785,190.770874 60.041329,191.064915 C60.0946713,191.475955 60.0294671,191.894217 59.8539871,192.266647 L58.9186955,194.859335 C58.6792896,195.522987 58.6035727,196.533365 59.2691731,196.684854 C58.7178513,197.280535 58.2883219,197.98631 58.0065346,198.75954 C57.7287637,199.54843 57.8554457,200.430116 58.342817,201.100013 C58.575195,201.312121 58.7730611,201.561941 58.928748,201.839794 C59.0202201,202.226882 58.9966028,202.633739 58.8610191,203.006561 C58.578342,204.151019 58.7626684,205.36613 59.370386,206.364394 C60.0069935,207.360008 61.1494605,207.869491 62.2815092,207.662607 C64.1524555,207.223584 65.8336808,206.53054 67.7201329,206.890659 C71.7819273,207.666053 75.8567896,208.444797 79.7907719,209.751497 C84.2806696,211.24286 88.6281175,213.429872 93.3205862,213.888937 C93.6293147,213.954649 93.9504617,213.90268 94.2254195,213.742513 C94.4645192,213.506796 94.6132078,213.188767 94.6438404,212.847555 C95.1272721,210.489328 95.6107095,208.131103 96.0941527,205.772878 C96.6785971,203.158882 97.1236614,200.513263 97.4273072,197.848138 C97.5924002,196.128019 97.6394604,194.398284 97.6864169,192.670302 L98.0601739,178.916169 C98.2352964,176.889107 97.9754503,174.846884 97.2994088,172.937043 L95.1493896,165.796352 C93.9224379,161.721367 91.1077451,158.107761 90.1055995,153.966759 C89.4713392,151.345883 89.0027909,148.533282 87.3018721,146.490517 C84.8769781,143.578262 80.6815899,143.125291 77.0095044,143.626003 C75.3505972,143.852207 73.6774878,144.242572 72.242543,145.137642 C70.5832968,146.172616 69.3609443,147.802988 68.1783764,149.395908 C67.2037774,150.708703 66.211788,151.764086 65.2145632,153.058364 Z" id="Path" fill="#CE7953"></path>
                <path d="M70.7969988,193.728661 C71.1117738,195.060323 71.7728405,196.288188 72.1774741,197.596274 C72.8554324,199.787887 72.7978892,202.148245 73.47452,204.340253 C73.7585194,205.260298 74.1699925,206.143659 74.3738293,207.08393 C74.8490661,209.276175 74.1551803,211.544121 73.2932305,213.619736 C72.4312808,215.69535 71.3815511,217.741907 71.1017395,219.966292 C70.9046593,221.533017 71.1877737,223.302053 72.4185985,224.31879 C73.696425,225.374353 75.5533892,225.30287 77.2176804,225.162427 C77.8151771,225.146035 78.4049444,225.025548 78.9594502,224.806593 C80.232229,224.215831 80.7683046,222.73815 81.0658209,221.387922 C82.0628716,216.862951 81.7780303,212.172793 81.4882816,207.552028 L80.7305385,195.467831 C80.5846585,193.141367 80.4283666,190.76673 79.6976789,188.532911 C79.4318807,187.720337 78.9685994,186.078309 78.2120867,185.559458 C77.4628092,185.045567 75.3230761,185.022679 74.3953514,184.979936 C70.0428031,184.779391 70.0915964,190.739759 70.7969988,193.728661 Z" id="Path" fill="#FBBEBE"></path>
                <path d="M76.3980155,148.723131 C75.6618534,148.295989 74.7343657,148.480148 74.0227848,148.955702 C73.3357217,149.476989 72.7339689,150.124349 72.2434304,150.869914 C70.6526752,153.021395 68.968696,155.490107 69.2046253,158.259092 C69.293085,159.29729 69.651855,160.279837 69.8950961,161.287223 C70.9616063,165.70438 69.7822488,170.376032 69.9175678,174.946071 C69.99576,177.586773 70.5143498,180.1842 71.0308152,182.763609 C71.1362166,183.290021 71.3050346,183.899407 71.7646295,184.076665 C72.1098783,184.209824 72.4827981,184.03863 72.8244983,183.894669 C75.4079696,182.836917 78.294531,183.240034 80.5603295,184.975 C81.4139692,184.470318 81.0941001,182.874447 80.902718,181.823551 C80.3340957,178.701194 81.1059766,175.480112 82.043398,172.46893 C82.9808195,169.457747 84.1024364,166.450368 84.2577511,163.269728 C84.4337261,159.665895 83.3553215,156.14837 82.2912902,152.737266 C82.0590407,151.992707 81.8052251,151.211952 81.2667409,150.697558 C80.8057469,150.317728 80.2774295,150.050288 79.7165075,149.912814 C78.5863274,149.542684 77.442054,149.328912 76.3980155,148.723131 Z" id="Path" fill="#2F2E41"></path>
            </g>
        </g>
    </g>
</svg>
