<svg xmlns="http://www.w3.org/2000/svg">
    <symbol id="twitter" fill="currentColor" viewBox="0 0 24 24">
        <circle fill="white" cx="12" cy="12" r="10" />
        <path d="M12 0c-6.627 0-12 5.373-12 12s5.373 12 12 12 12-5.373 12-12-5.373-12-12-12zm6.066 9.645c.183 4.04-2.83 8.544-8.164 8.544-1.622 0-3.131-.476-4.402-1.291 1.524.18 3.045-.244 4.252-1.189-1.256-.023-2.317-.854-2.684-1.995.451.086.895.061 1.298-.049-1.381-.278-2.335-1.522-2.304-2.853.388.215.83.344 1.301.359-1.279-.855-1.641-2.544-.889-3.835 1.416 1.738 3.533 2.881 5.92 3.001-.419-1.796.944-3.527 2.799-3.527.825 0 1.572.349 2.096.907.654-.128 1.27-.368 1.824-.697-.215.671-.67 1.233-1.263 1.589.581-.07 1.135-.224 1.649-.453-.384.578-.87 1.084-1.433 1.489z"/>
    </symbol>
    <symbol id="linkedin" fill="currentColor" viewBox="0 0 24 24">
        <circle fill="white" cx="12" cy="12" r="10" />
        <path d="M12 0c-6.627 0-12 5.373-12 12s5.373 12 12 12 12-5.373 12-12-5.373-12-12-12zm-2 16h-2v-6h2v6zm-1-6.891c-.607 0-1.1-.496-1.1-1.109 0-.612.492-1.109 1.1-1.109s1.1.497 1.1 1.109c0 .613-.493 1.109-1.1 1.109zm8 6.891h-1.998v-2.861c0-1.881-2.002-1.722-2.002 0v2.861h-2v-6h2v1.093c.872-1.616 4-1.736 4 1.548v3.359z"/>
    </symbol>
    <symbol id="mail" fill="currentColor" viewBox="0 0 24 24">
        <circle fill="white" cx="12" cy="12" r="10" />
        <path d="M12 .02c-6.627 0-12 5.373-12 12s5.373 12 12 12 12-5.373 12-12-5.373-12-12-12zm6.99 6.98l-6.99 5.666-6.991-5.666h13.981zm.01 10h-14v-8.505l7 5.673 7-5.672v8.504z"/>
    </symbol>
    <symbol id="github" fill="currentColor" viewBox="0 0 24 24">
        <circle fill="white" cx="12" cy="12" r="10" />
        <path d="M12 0c-6.627 0-12 5.373-12 12s5.373 12 12 12 12-5.373 12-12-5.373-12-12-12zm2.218 18.616c-.354.069-.468-.149-.468-.336v-1.921c0-.653-.229-1.079-.481-1.296 1.56-.173 3.198-.765 3.198-3.454 0-.765-.273-1.389-.721-1.879.072-.177.312-.889-.069-1.853 0 0-.587-.188-1.923.717-.561-.154-1.159-.231-1.754-.234-.595.003-1.193.08-1.753.235-1.337-.905-1.925-.717-1.925-.717-.379.964-.14 1.676-.067 1.852-.448.49-.722 1.114-.722 1.879 0 2.682 1.634 3.282 3.189 3.459-.2.175-.381.483-.444.936-.4.179-1.413.488-2.037-.582 0 0-.37-.672-1.073-.722 0 0-.683-.009-.048.426 0 0 .46.215.777 1.024 0 0 .405 1.25 2.353.826v1.303c0 .185-.113.402-.462.337-2.782-.925-4.788-3.549-4.788-6.641 0-3.867 3.135-7 7-7s7 3.133 7 7c0 3.091-2.003 5.715-4.782 6.641z"/>
    </symbol>
    <symbol id="blog" fill="currentColor" viewBox="0 0 24 24">
        <circle fill="white" cx="12" cy="12" r="10" />
        <path d="M12 0c-6.627 0-12 5.373-12 12s5.373 12 12 12 12-5.373 12-12-5.373-12-12-12zm9.567 9.098c-.059-.058-.127-.108-.206-.138-.258-.101-1.35.603-1.515.256-.108-.231-.327.148-.578.008-.121-.067-.459-.52-.611-.465-.312.112.479.974.694 1.087.203-.154.86-.469 1.002-.039.271.812-.745 1.702-1.264 2.171-.775.702-.63-.454-1.159-.86-.277-.213-.274-.667-.555-.824-.125-.071-.7-.732-.694-.821l-.017.167c-.095.072-.297-.27-.319-.325 0 .298.485.772.646 1.011.273.409.42 1.005.756 1.339.179.18.866.923 1.045.908l.921-.437c.649.154-1.531 3.237-1.738 3.619-.171.321.139 1.112.114 1.49-.029.437-.374.579-.7.817-.35.255-.268.752-.562.934-.521.321-.897 1.366-1.639 1.361-.219-.001-1.151.364-1.273.007-.095-.258-.223-.455-.356-.71-.131-.25-.015-.51-.175-.731-.11-.154-.479-.502-.513-.684-.002-.157.118-.632.283-.715.231-.118.044-.462.016-.663-.048-.357-.27-.652-.535-.859-.393-.302-.189-.542-.098-.974 0-.206-.126-.476-.402-.396-.57.166-.396-.445-.812-.417-.299.021-.543.211-.821.295-.349.104-.707-.083-1.053-.126-1.421-.179-1.885-1.804-1.514-2.976.037-.192-.115-.547-.048-.696.159-.352.485-.752.768-1.021.16-.152.365-.113.553-.231.29-.182.294-.558.578-.789.404-.328.956-.321 1.482-.392.281-.037 1.35-.268 1.518-.06 0 .039.193.611-.019.578.438.023 1.061.756 1.476.585.213-.089.135-.744.573-.427.265.19 1.45.275 1.696.07.152-.125.236-.939.053-1.031.117.116-.618.125-.686.099-.122-.044-.235.115-.43.025.117.055-.651-.358-.22-.674-.181.132-.349-.037-.544.109-.135.109.062.181-.13.277-.305.155-.535-.53-.649-.607-.118-.077-1.024-.713-.777-.298l.797.793c-.04.026-.209-.289-.209-.059.053-.136.02.585-.105.35-.056-.09.091-.14.006-.271 0-.085-.23-.169-.275-.228-.126-.157-.462-.502-.644-.585-.05-.024-.771.088-.832.111-.071.099-.131.203-.181.314-.149.055-.29.127-.423.216l-.159.356c-.068.061-.772.294-.776.303.03-.076-.492-.172-.457-.324.038-.167.215-.687.169-.877-.048-.199 1.085.287 1.158-.238.029-.227.047-.492-.316-.531.069.008.702-.249.807-.364.148-.169.486-.447.731-.447.286 0 .225-.417.356-.622.133.053-.071.38.088.512-.01-.104.45.057.494.033.105-.056.691-.023.601-.299-.101-.28.052-.197.183-.255-.02.008.248-.458.363-.456-.104-.089-.398.112-.516.103-.308-.024-.177-.525-.061-.672.09-.116-.246-.258-.25-.036-.006.332-.314.633-.243 1.075.109.666-.743-.161-.816-.115-.283.172-.515-.216-.368-.449.149-.238.51-.226.659-.48.104-.179.227-.389.388-.524.541-.454.689-.091 1.229-.042.526.048.178.125.105.327-.07.192.289.261.413.1.071-.092.232-.326.301-.499.07-.175.578-.2.527-.365 2.72 1.148 4.827 3.465 5.694 6.318zm-11.113-3.779l.068-.087.073-.019c.042-.034.086-.118.151-.104.043.009.146.095.111.148-.037.054-.066-.049-.081.101-.018.169-.188.167-.313.222-.087.037-.175-.018-.09-.104l.088-.108-.007-.049zm.442.245c.046-.045.138-.008.151-.094.014-.084.078-.178-.008-.335-.022-.042.116-.082.051-.137l-.109.032s.155-.668.364-.366l-.089.103c.135.134.172.47.215.687.127.066.324.078.098.192.117-.02-.618.314-.715.178-.072-.083.317-.139.307-.173-.004-.011-.317-.02-.265-.087zm1.43-3.547l-.356.326c-.36.298-1.28.883-1.793.705-.524-.18-1.647.667-1.826.673-.067.003.002-.641.36-.689-.141.021.993-.575 1.185-.805.678-.146 1.381-.227 2.104-.227l.326.017zm-5.086 1.19c.07.082.278.092-.026.288-.183.11-.377.809-.548.809-.51.223-.542-.439-1.109.413-.078.115-.395.158-.644.236.685-.688 1.468-1.279 2.327-1.746zm-5.24 8.793c0-.541.055-1.068.139-1.586l.292.185c.113.135.113.719.169.911.139.482.484.751.748 1.19.155.261.414.923.332 1.197.109-.179 1.081.824 1.259 1.033.418.492.74 1.088.061 1.574-.219.158.334 1.14.049 1.382l-.365.094c-.225.138-.235.397-.166.631-1.562-1.765-2.518-4.076-2.518-6.611zm14.347-5.823c.083-.01-.107.167-.107.167.033.256.222.396.581.527.437.157.038.455-.213.385-.139-.039-.854-.255-.879.025 0 .167-.679.001-.573-.175.073-.119.05-.387.186-.562.193-.255.38-.116.386.032-.001.394.398-.373.619-.399z"/>
    </symbol>
    <symbol id="a11y" fill="currentColor" viewBox="0 0 24 24" fill-rule="evenodd" clip-rule="evenodd">
        <circle fill="white" cx="12" cy="12" r="10" />
        <path d="M12 0c6.623 0 12 5.377 12 12s-5.377 12-12 12-12-5.377-12-12 5.377-12 12-12m0 2c5.52 0 10 4.481 10 10 0 5.52-4.48 10-10 10-5.519 0-10-4.48-10-10 0-5.519 4.481-10 10-10m0 1c4.967 0 9 4.033 9 9s-4.033 9-9 9-9-4.033-9-9 4.033-9 9-9m-.011 11.5c-.474.006-.765.448-.989.804-.483.767-1.005 1.58-1.455 2.264-.155.238-.325.43-.609.432-.285.002-.526-.343-.389-.632.366-.769 1.953-3.539 1.953-5.868 0-.806-.429-1-1-1h-2c-.276 0-.5-.224-.5-.5s.224-.5.5-.5h9c.276 0 .5.224.5.5s-.224.5-.5.5h-2c-.57 0-1 .194-1 1 0 2.329 1.587 5.099 1.953 5.868.137.289-.103.634-.389.632-.284-.002-.454-.194-.609-.432-.45-.684-.973-1.497-1.455-2.264-.226-.359-.52-.806-1-.804h-.011zm.011-8.5c.828 0 1.5.672 1.5 1.5s-.672 1.5-1.5 1.5-1.5-.672-1.5-1.5.672-1.5 1.5-1.5"/>
    </symbol>
</svg>
