<?xml version="1.0" encoding="UTF-8"?>
<svg width="300px" height="30px" viewBox="0 0 300 30" version="1.1" xmlns="http://www.w3.org/2000/svg" xmlns:xlink="http://www.w3.org/1999/xlink">
    <!-- Generator: Sketch 55 (78076) - https://sketchapp.com -->
    <title>ATOMICDESIGN</title>
    <desc>Created with Sketch.</desc>
    <g id="Paddix" stroke="none" stroke-width="1" fill="none" fill-rule="evenodd">
        <g id="Desktop-HD" transform="translate(-730.000000, -1669.000000)" fill="#22252A" fill-rule="nonzero">
            <g id="Projet-3" transform="translate(-61.000000, 1369.000000)">
                <path d="M798,317.539854 L809,317.539854 L803.597865,302.539854 L798,317.539854 Z M802.158631,301.539854 L805.11353,301.539854 L816,329.539854 L813.161742,329.539854 L809.77916,320.833972 L797.143079,320.833972 L793.799378,329.539854 L791,329.539854 L802.158631,301.539854 Z M815,301.539854 L837,301.539854 L837,303.814364 L827.304425,303.814364 L827.304425,329.539854 L824.656637,329.539854 L824.656637,303.814364 L815,303.814364 L815,301.539854 Z M841,315.539854 C841,317.017569 841.202046,318.476153 841.606145,319.91565 C842.010244,321.355148 842.635936,322.641759 843.48324,323.775523 C844.330544,324.909287 845.418988,325.820105 846.748603,326.508007 C848.078219,327.195909 849.66852,327.539854 851.519553,327.539854 C853.370587,327.539854 854.95437,327.195909 856.27095,326.508007 C857.58753,325.820105 858.669456,324.909287 859.51676,323.775523 C860.364064,322.641759 860.989756,321.355148 861.393855,319.91565 C861.797954,318.476153 862,317.017569 862,315.539854 C862,314.036662 861.797954,312.571708 861.393855,311.14495 C860.989756,309.718191 860.364064,308.437949 859.51676,307.304185 C858.669456,306.170422 857.58753,305.259603 856.27095,304.571701 C854.95437,303.8838 853.370587,303.539854 851.519553,303.539854 C849.66852,303.539854 848.078219,303.8838 846.748603,304.571701 C845.418988,305.259603 844.330544,306.170422 843.48324,307.304185 C842.635936,308.437949 842.010244,309.718191 841.606145,311.14495 C841.202046,312.571708 841,314.036662 841,315.539854 Z M838,315.05937 C838,313.133833 838.270428,311.299396 838.811293,309.556005 C839.352157,307.812613 840.163442,306.270906 841.245171,304.930837 C842.3269,303.590767 843.68548,302.523932 845.320951,301.730298 C846.956422,300.936665 848.855858,300.539854 851.019316,300.539854 C853.182775,300.539854 855.075772,300.936665 856.698366,301.730298 C858.320959,302.523932 859.6731,303.590767 860.754829,304.930837 C861.836558,306.270906 862.647843,307.812613 863.188707,309.556005 C863.729572,311.299396 864,313.133833 864,315.05937 C864,316.984906 863.729572,318.819343 863.188707,320.562734 C862.647843,322.306126 861.836558,323.841328 860.754829,325.168387 C859.6731,326.495446 858.320959,327.555777 856.698366,328.34941 C855.075772,329.143043 853.182775,329.539854 851.019316,329.539854 C848.855858,329.539854 846.956422,329.143043 845.320951,328.34941 C843.68548,327.555777 842.3269,326.495446 841.245171,325.168387 C840.163442,323.841328 839.352157,322.306126 838.811293,320.562734 C838.270428,318.819343 838,316.984906 838,315.05937 Z M872.806735,301.539854 L881.828697,326.088874 L891.193265,301.539854 L895,301.539854 L895,329.539854 L892.41142,329.539854 L892.41142,305.343776 L892.335286,305.343776 L883.046852,329.539854 L880.610542,329.539854 L871.664714,305.343776 L871.58858,305.343776 L871.58858,329.539854 L869,329.539854 L869,301.539854 L872.806735,301.539854 Z M901,301.539854 L904,301.539854 L904,329.539854 L901,329.539854 L901,301.539854 Z M929.047319,309.556005 C928.820188,308.489153 928.447952,307.532905 927.930599,306.68723 C927.413247,305.841555 926.782338,305.132499 926.037855,304.560043 C925.293372,303.987586 924.473191,303.551744 923.577287,303.252506 C922.681384,302.953267 921.74133,302.80365 920.757098,302.80365 C918.965291,302.80365 917.425874,303.154925 916.138801,303.857485 C914.851729,304.560046 913.798111,305.490275 912.977918,306.648199 C912.157725,307.806123 911.552052,309.113647 911.160883,310.57081 C910.769714,312.027973 910.574132,313.524144 910.574132,315.05937 C910.574132,316.568574 910.769714,318.058241 911.160883,319.528414 C911.552052,320.998587 912.157725,322.312616 912.977918,323.470541 C913.798111,324.628465 914.851729,325.558693 916.138801,326.261254 C917.425874,326.963815 918.965291,327.31509 920.757098,327.31509 C922.018934,327.31509 923.154569,327.080906 924.164038,326.612532 C925.173507,326.144159 926.04416,325.506659 926.776025,324.700016 C927.50789,323.893372 928.100944,322.950133 928.555205,321.870271 C929.009466,320.79041 929.299684,319.625998 929.425868,318.377001 L932,318.377001 C931.823343,320.094371 931.43218,321.642584 930.826498,323.021685 C930.220817,324.400785 929.438491,325.571702 928.479495,326.534471 C927.5205,327.497239 926.391174,328.23882 925.091483,328.759235 C923.791792,329.27965 922.347011,329.539854 920.757098,329.539854 C918.637213,329.539854 916.776033,329.143043 915.173502,328.34941 C913.57097,327.555777 912.239753,326.495446 911.179811,325.168387 C910.119869,323.841328 909.324924,322.306126 908.794953,320.562734 C908.264982,318.819343 908,316.984906 908,315.05937 C908,313.133833 908.264982,311.299396 908.794953,309.556005 C909.324924,307.812613 910.119869,306.270906 911.179811,304.930837 C912.239753,303.590767 913.57097,302.523932 915.173502,301.730298 C916.776033,300.936665 918.637213,300.539854 920.757098,300.539854 C922.04417,300.539854 923.299678,300.735007 924.523659,301.125318 C925.74764,301.51563 926.858039,302.094583 927.85489,302.862196 C928.85174,303.629809 929.684539,304.573047 930.353312,305.69194 C931.022085,306.810833 931.444794,308.098842 931.621451,309.556005 L929.047319,309.556005 Z M953,323.539854 L958.72327,323.539854 C959.6499,323.539854 960.549262,323.401337 961.421384,323.124299 C962.293505,322.84726 963.070227,322.387635 963.751572,321.74541 C964.432917,321.103184 964.977985,320.265785 965.386792,319.233187 C965.7956,318.20059 966,316.941343 966,315.45541 C966,314.095403 965.85692,312.867637 965.570755,311.772076 C965.28459,310.676515 964.814469,309.738377 964.160377,308.957632 C963.506286,308.176887 962.640991,307.578745 961.564465,307.163187 C960.48794,306.74763 959.159337,306.539854 957.578616,306.539854 L953,306.539854 L953,323.539854 Z M948,301.539854 L959.696203,301.539854 C961.443047,301.539854 963.069613,301.827433 964.575949,302.402599 C966.082286,302.977766 967.38607,303.840502 968.487342,304.990835 C969.588613,306.141167 970.449364,307.579061 971.06962,309.30456 C971.689877,311.030059 972,313.056182 972,315.382991 C972,317.422217 971.746838,319.304551 971.240506,321.03005 C970.734175,322.755549 969.96836,324.24573 968.943038,325.500638 C967.917716,326.755547 966.639248,327.742465 965.107595,328.461423 C963.575942,329.180381 961.772162,329.539854 959.696203,329.539854 L948,329.539854 L948,301.539854 Z M976,301.539854 L996.690037,301.539854 L996.690037,306.716325 L982.083026,306.716325 L982.083026,312.716325 L995.48893,312.716325 L995.48893,317.500638 L982.083026,317.500638 L982.083026,324.363384 L997,324.363384 L997,329.539854 L976,329.539854 L976,301.539854 Z M1005.07103,319.7179 C1005.07103,320.649631 1005.24406,321.439003 1005.59013,322.086039 C1005.9362,322.733075 1006.3954,323.257166 1006.96775,323.658328 C1007.54009,324.05949 1008.21226,324.357122 1008.98426,324.551233 C1009.75626,324.745344 1010.55487,324.842398 1011.38011,324.842398 C1011.93915,324.842398 1012.5381,324.797106 1013.177,324.706521 C1013.8159,324.615936 1014.41486,324.441239 1014.97389,324.182424 C1015.53293,323.92361 1015.99878,323.567746 1016.37147,323.114821 C1016.74416,322.661896 1016.9305,322.086042 1016.9305,321.387244 C1016.9305,320.636682 1016.68427,320.028478 1016.19178,319.562612 C1015.6993,319.096746 1015.05376,318.70853 1014.25514,318.397953 C1013.45651,318.087376 1012.55142,317.815625 1011.53983,317.582692 C1010.52825,317.349759 1009.50336,317.090949 1008.46516,316.806253 C1007.40033,316.547439 1006.36213,316.230396 1005.35055,315.855115 C1004.33896,315.479834 1003.43387,314.994565 1002.63525,314.399292 C1001.83662,313.804019 1001.19108,313.059939 1000.6986,312.16703 C1000.20612,311.27412 999.959877,310.193586 999.959877,308.925396 C999.959877,307.501918 1000.27267,306.266098 1000.89825,305.2179 C1001.52384,304.169702 1002.34242,303.296216 1003.354,302.597418 C1004.36559,301.898619 1005.51026,301.380998 1006.78806,301.04454 C1008.06585,300.708081 1009.34363,300.539854 1010.62142,300.539854 C1012.11219,300.539854 1013.54303,300.701611 1014.914,301.025129 C1016.28496,301.348646 1017.50284,301.872738 1018.56767,302.597418 C1019.6325,303.322098 1020.4777,304.247345 1021.10328,305.373187 C1021.72887,306.49903 1022.04166,307.864255 1022.04166,309.468904 L1015.97216,309.468904 C1015.91892,308.640698 1015.73923,307.95485 1015.4331,307.41134 C1015.12696,306.86783 1014.721,306.440793 1014.2152,306.130216 C1013.70941,305.819638 1013.13042,305.59965 1012.47821,305.470242 C1011.826,305.340835 1011.11391,305.276133 1010.34191,305.276133 C1009.83611,305.276133 1009.33033,305.327895 1008.82453,305.43142 C1008.31874,305.534946 1007.85954,305.716113 1007.44692,305.974928 C1007.0343,306.233742 1006.69489,306.557255 1006.42868,306.945477 C1006.16247,307.333698 1006.02937,307.825438 1006.02937,308.420711 C1006.02937,308.964221 1006.13585,309.404199 1006.34882,309.740657 C1006.56179,310.077116 1006.98106,310.387689 1007.60664,310.672384 C1008.23223,310.95708 1009.09739,311.241772 1010.20215,311.526467 C1011.30691,311.811163 1012.75106,312.173498 1014.53465,312.613482 C1015.06707,312.717008 1015.80578,312.904645 1016.75082,313.1764 C1017.69585,313.448155 1018.63422,313.881663 1019.56594,314.476936 C1020.49767,315.072209 1021.30293,315.868051 1021.98176,316.864486 C1022.66059,317.860921 1023,319.135563 1023,320.688449 C1023,321.956639 1022.74711,323.134226 1022.24131,324.221246 C1021.73552,325.308267 1020.9835,326.246454 1019.98522,327.035838 C1018.98694,327.825222 1017.7491,328.439897 1016.27165,328.879881 C1014.79419,329.319865 1013.08384,329.539854 1011.14053,329.539854 C1009.5699,329.539854 1008.04589,329.352217 1006.56844,328.976936 C1005.09099,328.601655 1003.78659,328.012861 1002.65521,327.210537 C1001.52383,326.408212 1000.6254,325.385911 999.959877,324.143602 C999.294359,322.901294 998.974915,321.426074 999.001536,319.7179 L1005.07103,319.7179 Z M1027,301.539854 L1033,301.539854 L1033,329.539854 L1027,329.539854 L1027,301.539854 Z M1057.62594,325.774125 C1056.57013,327.171722 1055.40121,328.148731 1054.11916,328.705182 C1052.8371,329.261633 1051.54249,329.539854 1050.23529,329.539854 C1048.17395,329.539854 1046.32002,329.171049 1044.67345,328.433428 C1043.02689,327.695808 1041.63801,326.679977 1040.50679,325.385905 C1039.37556,324.091833 1038.5083,322.571322 1037.90498,320.824325 C1037.30166,319.077329 1037,317.194483 1037,315.175731 C1037,313.105216 1037.30166,311.183549 1037.90498,309.410671 C1038.5083,307.637793 1039.37556,306.0914 1040.50679,304.771447 C1041.63801,303.451494 1043.02689,302.416252 1044.67345,301.665691 C1046.32002,300.915129 1048.17395,300.539854 1050.23529,300.539854 C1051.61791,300.539854 1052.9565,300.753373 1054.25113,301.180416 C1055.54576,301.60746 1056.71468,302.235075 1057.75792,303.063281 C1058.80116,303.891487 1059.66214,304.913788 1060.34087,306.130216 C1061.01961,307.346643 1061.43439,308.744219 1061.58522,310.322987 L1055.92911,310.322987 C1055.57717,308.770101 1054.89845,307.605454 1053.89291,306.829011 C1052.88738,306.052568 1051.66818,305.664352 1050.23529,305.664352 C1048.90296,305.664352 1047.77175,305.929633 1046.84163,306.460202 C1045.91151,306.990772 1045.15737,307.7025 1044.57919,308.59541 C1044.001,309.488319 1043.57994,310.50415 1043.31599,311.642933 C1043.05203,312.781716 1042.92006,313.959304 1042.92006,315.175731 C1042.92006,316.340395 1043.05203,317.472691 1043.31599,318.572652 C1043.57994,319.672613 1044.001,320.662563 1044.57919,321.542532 C1045.15737,322.4225 1045.91151,323.127759 1046.84163,323.658328 C1047.77175,324.188897 1048.90296,324.454178 1050.23529,324.454178 C1052.19609,324.454178 1053.71065,323.943027 1054.77903,322.920711 C1055.84742,321.898394 1056.46958,320.416705 1056.64555,318.475597 L1050.68778,318.475597 L1050.68778,313.933428 L1062,313.933428 L1062,328.918703 L1058.22926,328.918703 L1057.62594,325.774125 Z M1067,301.539854 L1073.20896,301.539854 L1085.06965,320.324168 L1085.14925,320.324168 L1085.14925,301.539854 L1091,301.539854 L1091,329.539854 L1084.75124,329.539854 L1072.93035,310.794756 L1072.85075,310.794756 L1072.85075,329.539854 L1067,329.539854 L1067,301.539854 Z" id="ATOMICDESIGN"></path>
            </g>
        </g>
    </g>
</svg>