<?xml version="1.0" encoding="UTF-8"?>
<svg width="362px" height="39px" viewBox="0 0 362 39" version="1.1" xmlns="http://www.w3.org/2000/svg" xmlns:xlink="http://www.w3.org/1999/xlink">
    <!-- Generator: Sketch 55 (78076) - https://sketchapp.com -->
    <title>Logo</title>
    <desc>Created with Sketch.</desc>
    <g id="Paddix" stroke="none" stroke-width="1" fill="none" fill-rule="evenodd">
        <g id="Desktop-HD" transform="translate(-730.000000, -120.000000)">
            <g id="Projet-1" transform="translate(-18.000000, -24.000000)">
                <g id="Logo" transform="translate(748.000000, 144.000000)">
                    <g id="paddix" transform="translate(217.000000, 15.000000)" fill-rule="nonzero">
                        <path d="M76.0506257,21.9759994 L63.3490448,21.9759994 C59.1829173,22.2464088 55.2099533,20.2155404 53.0433741,16.7080281 C50.8767949,13.2005157 50.8767949,8.79948431 53.0433741,5.29197195 C55.2099533,1.78445958 59.1829173,-0.246408795 63.3490448,0.0240005726 L76.0992908,0.0240005726 L76.0506257,21.9759994 Z M59.8451604,17.1456032 L65.4903074,17.1456032 C68.9455268,17.1456032 71.9140955,15.2804006 71.9140955,10.9760871 C71.9140955,6.67177365 69.2861822,4.80657113 65.5389725,4.80657113 L59.8451604,4.80657113 L59.8451604,17.1456032 Z" id="Shape" fill="#32DCD7"></path>
                        <path d="M79.1843972,0.0240005726 L92.0048015,0.0240005726 C96.1464299,-0.246408795 100.096031,1.78445958 102.249869,5.29197195 C104.403708,8.79948431 104.403708,13.2005157 102.249869,16.7080281 C100.096031,20.2155404 96.1464299,22.2464088 92.0048015,21.9759994 L79.1843972,21.9759994 L79.1843972,0.0240005726 Z M84.9414844,17.1456032 L90.8920872,17.1456032 C94.326988,17.1456032 97.2781,15.2804006 97.2781,10.9760871 C97.2781,6.67177365 94.6656402,4.80657113 90.9404661,4.80657113 L84.9414844,4.80657113 L84.9414844,17.1456032 Z" id="Shape" fill="#1D2A46"></path>
                        <path d="M24.6808511,7.17391304 C24.6808511,11.7173913 21.9385343,14.2043478 16.6987504,14.2043478 L4.99493414,14.2043478 L4.99493414,22 L0,22 L0,0 L16.8946302,0 C21.5957447,0 24.6808511,2.9173913 24.6808511,7.17391304 M19.7348869,7.12608696 C19.7348869,5.26086957 18.5106383,4.16086957 16.3559608,4.16086957 L4.99493414,4.16086957 L4.99493414,9.94782609 L16.3559608,9.94782609 C18.4616684,9.94782609 19.7348869,8.84782609 19.7348869,7.12608696" id="Shape" fill="#1D2A46"></path>
                        <path d="M45.9961315,22 L43.4752339,17.2652174 L29.4913864,17.2652174 L26.9704888,22 L21.5957447,22 L33.2489509,0 L39.8127976,0 L51.4184397,21.9521739 L45.9961315,22 Z M36.435746,4.0173913 L31.6317712,13.0565217 L41.2397208,13.0565217 L36.435746,4.0173913 Z" id="Shape" fill="#1D2A46"></path>
                        <rect id="Rectangle" fill="#1D2A46" x="106.950355" y="0" width="5.14184397" height="22"></rect>
                        <polygon id="Path" fill="#1D2A46" points="138.414319 22 130.626872 14.0608696 122.743284 22 116.205674 22 127.261926 10.8565217 116.542168 0 123.079778 0 130.578802 7.60434783 138.077825 0 144.615435 0 133.895677 10.8565217 145 22"></polygon>
                    </g>
                    <g id="logo">
                        <g id="deco" transform="translate(13.282609, 0.000000)" fill="#67C8D2">
                            <path d="M20.9456522,3.07894737 C20.9456522,3.07894737 12.5673913,9.85263158 10.626087,13.5473684 C10.7282609,13.7526316 12.3630435,12.6236842 13.8956522,12.2131579 C15.4282609,11.8026316 21.2521739,10.7763158 20.9456522,3.07894737 C20.9456522,2.77105263 20.9456522,3.07894737 20.9456522,3.07894737 Z" id="Path"></path>
                            <path d="M18.4934783,4.72105263 C19.4130435,4.00263158 20.026087,3.59210526 19.6173913,3.69473684 C19.6173913,3.69473684 10.1152174,4.51578947 10.4217391,13.2394737 C11.5456522,11.5973684 17.573913,5.43947368 18.4934783,4.72105263 Z" id="Path"></path>
                            <path d="M8.78695652,0.718421053 C8.78695652,0.718421053 3.98478261,6.77368421 9.09347826,9.95526316 C9.09347826,9.03157895 10.3195652,6.97894737 10.9326087,5.85 C11.4434783,4.72105263 10.7282609,1.53947368 8.78695652,0.718421053 Z M8.88913043,9.33947368 C8.17391304,8.00526316 8.88913043,1.12894737 8.88913043,1.12894737 C8.78695652,1.95 8.78695652,3.69473684 8.88913043,9.33947368 Z" id="Shape"></path>
                            <path d="M4.18913043,13.5473684 C7.35652174,14.0605263 7.76521739,14.2657895 8.17391304,14.5736842 L0.102173913,7.8 C-2.08166817e-16,7.8 1.02173913,13.0342105 4.18913043,13.5473684 Z" id="Path"></path>
                            <path d="M0.613043478,8.00526316 C0.613043478,8.00526316 7.45869565,13.1368421 7.96956522,14.0605263 C8.07173913,14.2657895 8.27608696,14.2657895 8.27608696,14.0605263 C8.17391304,13.8552632 8.68478261,8.72368421 0.613043478,8.00526316 Z" id="Path"></path>
                        </g>
                        <g id="text" transform="translate(0.000000, 9.236842)" fill="#B42E5D">
                            <path d="M2.65652174,6.56842105 L2.65652174,7.69736842 L0.102173913,7.69736842 L0.102173913,11.4947368 L2.65652174,11.4947368 L2.65652174,28.3263158 L7.56086957,28.3263158 L7.56086957,11.4947368 L10.8304348,11.4947368 L10.8304348,7.69736842 L7.56086957,7.69736842 L7.56086957,6.67105263 C7.56086957,3.79736842 9.60434783,3.79736842 10.8304348,3.79736842 L10.8304348,0 C7.25434783,0.102631579 2.65652174,0.410526316 2.65652174,6.56842105 Z" id="Path"></path>
                            <path d="M22.5804348,7.08157895 C16.3478261,7.08157895 11.8521739,12.2131579 11.8521739,18.0631579 C11.8521739,23.8105263 16.3478261,28.9421053 22.6826087,28.9421053 C24.8282609,28.9421053 26.8717391,28.3263158 28.5065217,27.0947368 C30.2434783,25.9657895 31.673913,24.2210526 32.6956522,21.8605263 L27.6891304,21.8605263 C26.7695652,23.5026316 25.1347826,24.6315789 22.7847826,24.6315789 C20.026087,24.6315789 17.0630435,22.7842105 16.8586957,19.5 L33.4108696,19.5 C33.8195652,15.9078947 32.9,12.6236842 30.3456522,10.0578947 C28.4043478,8.21052632 25.6456522,7.08157895 22.5804348,7.08157895 Z M16.8586957,15.9078947 C17.0630435,13.8552632 19.0043478,11.2894737 22.6826087,11.2894737 C26.2586957,11.2894737 28.3021739,13.9578947 28.5065217,15.9078947 L16.8586957,15.9078947 Z" id="Shape"></path>
                            <path d="M60.1804348,7.08157895 C58.0347826,7.08157895 56.1956522,7.90263158 54.9695652,9.13421053 C54.2543478,9.75 53.8456522,10.4684211 53.4369565,11.0842105 C53.1304348,10.5710526 52.6195652,9.64736842 52.2108696,9.23684211 C50.6782609,7.59473684 48.8391304,7.08157895 47.2043478,7.08157895 C43.6282609,7.08157895 41.6869565,9.33947368 41.176087,10.3657895 L41.176087,7.69736842 L36.5782609,7.69736842 L36.5782609,28.3263158 L41.4826087,28.3263158 L41.4826087,17.2421053 C41.4826087,16.0105263 41.6869565,14.7789474 42.3,13.65 C42.9130435,12.6236842 44.0369565,11.7 45.773913,11.7 C47.5108696,11.7 48.5326087,12.5210526 49.1456522,13.65 C49.6565217,14.6763158 49.7586957,15.9078947 49.7586957,17.0368421 L49.7586957,28.3263158 L54.6630435,28.3263158 L54.6630435,17.0368421 C54.6630435,15.8052632 54.7652174,14.6763158 55.3782609,13.5473684 C55.9913043,12.4184211 57.2173913,11.7 58.9543478,11.7 C60.6913043,11.7 61.6108696,12.4184211 62.1217391,13.3421053 C62.8369565,14.4710526 62.9391304,15.9078947 62.9391304,17.1394737 L62.9391304,28.3263158 L67.8434783,28.3263158 L67.8434783,17.0368421 C67.8434783,12.8289474 67.4347826,11.0842105 65.5956522,9.13421053 C64.0630435,7.59473684 61.9173913,7.08157895 60.1804348,7.08157895 Z" id="Path"></path>
                            <rect id="Rectangle" x="71.5217391" y="7.69736842" width="4.90434783" height="20.6289474"></rect>
                            <path d="M90.7304348,7.08157895 C87.0521739,7.08157895 85.2130435,8.82631579 84.2934783,10.4684211 C84.2934783,9.44210526 84.2934783,8.62105263 84.2934783,7.69736842 L79.6956522,7.69736842 L79.6956522,28.3263158 L84.6,28.3263158 L84.6,17.0368421 C84.6,14.1631579 85.826087,11.8026316 89.3,11.8026316 C92.773913,11.8026316 93.7956522,14.1631579 93.7956522,17.2421053 L93.7956522,28.4289474 L98.7,28.4289474 L98.7,15.9078947 C98.5978261,12.3157895 97.3717391,7.08157895 90.7304348,7.08157895 Z" id="Path"></path>
                            <rect id="Rectangle" x="102.071739" y="7.69736842" width="4.90434783" height="20.6289474"></rect>
                            <path d="M121.893478,7.08157895 C118.215217,7.08157895 116.376087,8.82631579 115.456522,10.4684211 C115.456522,9.44210526 115.456522,8.62105263 115.456522,7.69736842 L110.858696,7.69736842 L110.858696,28.3263158 L115.763043,28.3263158 L115.763043,17.0368421 C115.763043,14.1631579 116.98913,11.8026316 120.463043,11.8026316 C123.936957,11.8026316 124.958696,14.1631579 124.958696,17.2421053 L124.958696,28.4289474 L129.863043,28.4289474 L129.863043,15.9078947 C129.863043,12.3157895 128.636957,7.08157895 121.893478,7.08157895 Z" id="Path"></path>
                            <path d="M145.18913,7.08157895 C143.35,7.08157895 140.386957,7.8 138.343478,10.2631579 L138.343478,7.8 L138.343478,0.513157895 L133.43913,0.513157895 L133.43913,28.3263158 L138.13913,28.3263158 L138.13913,25.35 C139.263043,27.4026316 141.715217,28.9421053 144.984783,28.9421053 C150.604348,28.9421053 155.508696,24.8368421 155.508696,17.8578947 C155.406522,10.6736842 149.991304,7.08157895 145.18913,7.08157895 Z M150.4,18.0631579 C150.4,21.2447368 148.152174,24.4263158 144.065217,24.4263158 C140.386957,24.4263158 137.934783,21.45 137.934783,18.0631579 C137.934783,14.6763158 140.284783,11.7 144.167391,11.7 C147.947826,11.7 150.4,14.5736842 150.4,18.0631579 L150.4,18.0631579 Z" id="Shape"></path>
                            <rect id="Rectangle" x="157.96087" y="7.69736842" width="4.90434783" height="20.6289474"></rect>
                            <path d="M176.863043,7.08157895 C169.71087,7.08157895 165.828261,12.7263158 165.828261,17.9605263 L165.828261,17.9605263 C165.828261,23.2973684 169.71087,28.9421053 176.863043,28.9421053 C184.015217,28.9421053 187.897826,23.2973684 187.897826,17.9605263 C187.795652,12.7263158 184.015217,7.08157895 176.863043,7.08157895 Z M176.863043,24.4263158 C173.491304,24.4263158 170.732609,21.7578947 170.732609,18.1657895 L170.732609,18.1657895 C170.732609,14.4710526 173.491304,11.8026316 176.863043,11.8026316 C180.234783,11.8026316 182.891304,14.4710526 182.891304,18.1657895 C182.891304,21.8605263 180.132609,24.4263158 176.863043,24.4263158 Z" id="Shape"></path>
                            <path d="M73.973913,0.410526316 C72.6456522,0.410526316 71.5217391,1.53947368 71.5217391,2.87368421 C71.5217391,4.20789474 72.6456522,5.33684211 73.973913,5.33684211 C75.3021739,5.33684211 76.426087,4.20789474 76.426087,2.87368421 C76.426087,1.53947368 75.4043478,0.410526316 73.973913,0.410526316 Z" id="Path"></path>
                            <path d="M104.523913,5.33684211 C105.852174,5.33684211 106.976087,4.20789474 106.976087,2.87368421 C106.976087,1.53947368 105.852174,0.410526316 104.523913,0.410526316 C103.195652,0.410526316 102.071739,1.53947368 102.071739,2.87368421 C102.071739,4.20789474 103.093478,5.33684211 104.523913,5.33684211 Z" id="Path"></path>
                            <path d="M160.515217,0.410526316 C159.186957,0.410526316 158.063043,1.53947368 158.063043,2.87368421 C158.063043,4.20789474 159.186957,5.33684211 160.515217,5.33684211 C161.843478,5.33684211 162.967391,4.20789474 162.967391,2.87368421 C162.967391,1.53947368 161.741304,0.410526316 160.515217,0.410526316 Z" id="Path"></path>
                        </g>
                    </g>
                    <polygon id="X" fill="#1D2A46" fill-rule="nonzero" points="206.289703 20 206.769634 20 201.77836 27.289916 207 35 206.52007 35 201.509599 27.6260504 196.47993 35 196 35 201.260035 27.289916 196.287958 20 196.767888 20 201.509599 26.9537815"></polygon>
                </g>
            </g>
        </g>
    </g>
</svg>