<?xml version="1.0" encoding="UTF-8"?>
<svg width="293px" height="63px" viewBox="0 0 293 63" version="1.1" xmlns="http://www.w3.org/2000/svg" xmlns:xlink="http://www.w3.org/1999/xlink">
    <!-- Generator: Sketch 55 (78076) - https://sketchapp.com -->
    <title>5ea6e16a239d7bc888e7f129_placemeet-logo</title>
    <desc>Created with Sketch.</desc>
    <g id="Home" stroke="none" stroke-width="1" fill="none" fill-rule="evenodd">
        <g id="Desktop-HD-Copy" transform="translate(-478.000000, -2150.000000)" fill-rule="nonzero">
            <g id="5ea6e16a239d7bc888e7f129_placemeet-logo" transform="translate(478.000000, 2150.000000)">
                <path d="M98.404757,23.5307692 C98.848531,25.1373626 99.0707896,26.8857143 99.0707896,28.7758242 C99.0707896,30.4769231 98.8165674,32.1622957 98.3096095,33.8318681 C97.8650923,35.343956 97.1678394,36.6827593 96.2163643,37.8483516 C95.3600367,38.9194385 94.2658403,39.8014406 92.9337752,40.4945055 C91.6968575,41.1245175 90.2376813,41.4395604 88.5569897,41.4395604 C87.1609973,41.4395604 86.003617,41.2348231 85.0841055,40.8252747 C84.0374829,40.3527473 83.1648018,39.769988 82.467549,39.0769231 L82.467549,44.321978 C82.7842118,44.3849571 83.0540442,44.4322098 83.2763028,44.4637363 C83.5297817,44.5267153 83.7356869,44.5739681 83.8947616,44.6054945 C84.4017195,44.6684736 84.6395883,44.7 84.6076246,44.7 L84.8938105,44.7472527 C85.6862109,44.9362637 86.0831544,45.4403177 86.0831544,46.2593407 L86.0831544,49 L73,49 L73,46.2593407 C73,45.4403177 73.3964232,44.9362637 74.1897156,44.7472527 L74.4751581,44.7 L75.1887644,44.6054945 L76.6159771,44.321978 L76.6159771,21.5461538 L75.1887644,21.3098901 C75.0296897,21.2783637 74.8869684,21.2469111 74.7606006,21.2153846 C74.6654531,21.1838582 74.5703056,21.1681319 74.4751581,21.1681319 L74.1897156,21.1208791 C73.3964232,20.9318681 73,20.4436144 73,19.656044 L73,16.8681319 L80.1840087,16.8681319 C80.5645988,16.8681319 80.8976151,16.9626374 81.1830576,17.1516484 C81.4365365,17.3091329 81.6112214,17.5769231 81.7063689,17.9549451 L82.1821065,20.1758242 C83.1335816,19.1047373 84.2589982,18.2069351 85.5598431,17.4824176 C86.827981,16.7893527 88.3191209,16.4428571 90.0317761,16.4428571 C91.4270251,16.4428571 92.6483326,16.7106473 93.6949553,17.2461538 C94.8047618,17.8131868 95.7562369,18.6164835 96.5493806,19.656044 C97.3417809,20.664078 97.9602398,21.9557023 98.404757,23.5307692 Z M92.6007589,32.4615385 C92.8542378,31.54801 92.9813489,30.3351648 92.9813489,28.8230769 C92.9813489,27.310989 92.8698479,26.0981439 92.6483326,25.1846154 C92.426074,24.2395604 92.0930577,23.45199 91.6492838,22.821978 C91.2047665,22.191966 90.6814552,21.7351648 90.0793498,21.4516484 C89.4765012,21.1681319 88.7948585,21.0263736 88.0336784,21.0263736 C86.7647971,21.0263736 85.7181745,21.2783637 84.8938105,21.7824176 C84.0055193,22.3179241 83.1967655,23.0425155 82.467549,23.956044 L82.467549,34.8241758 C83.1016179,35.6117462 83.8308344,36.1787792 84.6559417,36.5252747 C85.3851582,36.8403177 86.2258757,36.9978022 87.1773508,36.9978022 C88.1288259,36.9978022 88.9375797,36.8403177 89.6036123,36.5252747 C90.2376813,36.2417582 90.8405299,35.7377043 91.411415,35.0131868 C91.9503364,34.2886693 92.3465366,33.4381198 92.6007589,32.4615385 Z M112.636,36.856044 C113.429144,37.0450549 113.825344,37.5333087 113.825344,38.3208791 L113.825344,41.1087912 L100.742561,41.1087912 L100.742561,38.3208791 C100.742561,37.5333087 101.138761,37.0450549 101.931905,36.856044 L102.217348,36.8087912 L102.930954,36.667033 L104.358167,36.4307692 L104.358167,10.678022 L102.930954,10.4417582 C102.772622,10.4102318 102.629901,10.3787792 102.50279,10.3472527 C102.407643,10.3157263 102.312495,10.3 102.217348,10.3 L101.931905,10.2527473 C101.138761,10.0637363 100.742561,9.57548249 100.742561,8.78791209 L100.742561,6 L110.209738,6 L110.209738,36.4307692 L111.636951,36.667033 L112.350557,36.8087912 L112.636,36.856044 Z M137.352796,36.8087912 C138.14594,36.9978022 138.54214,37.486056 138.54214,38.2736264 L138.54214,41.0615385 L132.928437,41.0615385 C132.325588,41.0615385 131.881814,40.9827593 131.596371,40.8252747 C131.278965,40.6992428 131.041097,40.3527473 130.882765,39.7857143 L130.359454,38.0846154 C129.725385,38.6831748 129.122536,39.1714286 128.551651,39.5494505 C128.107877,39.8644935 127.489418,40.210989 126.696275,40.589011 C126.12539,40.841001 125.459357,41.0458122 124.698177,41.2032967 C123.905033,41.3607812 123.112633,41.4395604 122.319489,41.4395604 C121.272867,41.4395604 120.321391,41.2978022 119.465064,41.0142857 C118.545552,40.6992428 117.799982,40.2897682 117.229097,39.7857143 C116.563065,39.1871549 116.071717,38.4941638 115.754311,37.7065934 C115.405685,36.856044 115.231,35.910989 115.231,34.8714286 C115.231,33.9263736 115.468868,33.0128451 115.944606,32.1307692 C116.420344,31.2172407 117.229097,30.413944 118.370867,29.7208791 C119.575822,28.9648352 121.066961,28.3662758 122.8428,27.9252747 C124.713787,27.4527473 127.044901,27.2164835 129.836143,27.2164835 L129.836143,25.7989011 C129.836143,24.2238341 129.487516,23.010989 128.78952,22.1604396 C128.123487,21.3728692 127.124438,20.9791209 125.792373,20.9791209 C124.777714,20.9791209 123.984571,21.0893527 123.413686,21.3098901 C122.684469,21.5934066 122.129194,21.8453966 121.748604,22.0659341 L120.464113,22.7747253 C120.115486,22.9952627 119.687323,23.1054945 119.179621,23.1054945 C118.767068,23.1054945 118.418441,23.010989 118.132999,22.821978 C117.942704,22.6959461 117.720445,22.443956 117.466966,22.0659341 L116.37277,20.2230769 C119.227195,17.6399021 122.604932,16.3483516 126.50598,16.3483516 C127.933192,16.3483516 129.217684,16.5846154 130.359454,17.0571429 C131.46926,17.5296703 132.405125,18.1754825 133.166305,18.9945055 C134.022633,19.9710869 134.625482,20.9633946 134.974108,21.9714286 C135.354698,23.1054945 135.544993,24.3655924 135.544993,25.7516484 L135.544993,36.478022 L136.829485,36.7142857 L137.352796,36.8087912 Z M129.836143,30.7604396 C128.060303,30.7604396 126.633091,30.8706714 125.554505,31.0912088 C124.380771,31.3431988 123.445649,31.6267153 122.747653,31.9417582 C122.049657,32.2568012 121.558309,32.6348231 121.272867,33.0758242 C120.987424,33.4853726 120.844703,33.9736264 120.844703,34.5406593 C120.844703,35.6117462 121.145755,36.35199 121.748604,36.7615385 C122.382673,37.2025395 123.175817,37.4230769 124.127292,37.4230769 C124.730141,37.4230769 125.284672,37.3758242 125.792373,37.2813187 C126.331295,37.1868132 126.823386,37.0135285 127.26716,36.7615385 C127.838045,36.4464955 128.266209,36.1787792 128.551651,35.9582418 C128.995425,35.6117462 129.423589,35.2337242 129.836143,34.8241758 L129.836143,30.7604396 Z M160.68698,37.4703297 C159.925799,38.3208791 159.227803,38.9666913 158.593734,39.4076923 C157.959665,39.8172407 157.166522,40.2267153 156.215047,40.6362637 C155.51705,40.8882538 154.677076,41.0930649 153.693638,41.2505495 C152.932457,41.3765814 152.06052,41.4395604 151.077081,41.4395604 C149.522757,41.4395604 148.111898,41.1717703 146.843017,40.6362637 C145.510952,40.0692308 144.353571,39.2502078 143.370133,38.1791209 C142.32351,37.0450549 141.530366,35.7377043 140.991445,34.2571429 C140.42056,32.6820759 140.135117,30.9021978 140.135117,28.9175824 C140.135117,27.121978 140.388596,25.4838582 140.896297,24.0032967 C141.435219,22.4912088 142.196399,21.1681319 143.179838,20.0340659 C144.163276,18.9315264 145.400194,18.0651769 146.89059,17.4351648 C148.412951,16.8051528 150.109996,16.4901099 151.980982,16.4901099 C154.011044,16.4901099 156.580026,17.0728692 159.687931,18.2384615 L159.640357,25.7043956 L156.928653,25.7043956 C156.357768,25.7043956 155.992788,25.4051528 155.834457,24.8065934 L155.453866,21.4043956 C154.280133,21.0893527 153.23351,20.9318681 152.313999,20.9318681 C151.267376,20.9318681 150.363475,21.1208791 149.602295,21.4989011 C148.809151,21.8769231 148.175082,22.3967033 147.699344,23.0582418 C147.128459,23.8458122 146.732259,24.6963616 146.51,25.6098901 C146.256522,26.680977 146.12941,27.7835165 146.12941,28.9175824 C146.12941,30.2091329 146.272132,31.358999 146.557574,32.367033 C146.843017,33.4065934 147.239217,34.2571429 147.746918,34.9186813 C148.28584,35.5802198 148.920652,36.1 149.649868,36.478022 C150.443012,36.8245175 151.282986,36.9978022 152.171277,36.9978022 C153.154716,36.9978022 153.915896,36.8875704 154.454818,36.667033 C155.152814,36.3835165 155.644161,36.1315264 155.929604,35.910989 C156.087935,35.7849571 156.24701,35.6747253 156.405342,35.5802198 C156.595637,35.4541878 156.785932,35.3124296 156.976227,35.1549451 C157.229706,34.9344076 157.547112,34.8241758 157.927702,34.8241758 C158.435403,34.8241758 158.799639,34.9974605 159.021898,35.343956 L160.68698,37.4703297 Z M173.721445,16.4901099 C175.275769,16.4901099 176.686628,16.7263736 177.955509,17.1989011 C179.160463,17.6399021 180.271013,18.3644935 181.285672,19.3725275 C182.205184,20.286056 182.935144,21.435922 183.474065,22.821978 C184.012986,24.2395604 184.282819,25.7831748 184.282819,27.4527473 C184.282819,27.8307692 184.250855,28.2087912 184.187671,28.5868132 C184.124487,28.9333087 184.06056,29.1538462 183.997376,29.2483516 C183.934192,29.4058362 183.791471,29.5318681 183.569213,29.6263736 C183.442101,29.6893527 183.220586,29.7208791 182.90318,29.7208791 L167.8223,29.7208791 C168.012595,32.2095484 168.694237,34.0366054 169.867971,35.2021978 C171.041705,36.3677902 172.595285,36.9505495 174.530199,36.9505495 C175.513638,36.9505495 176.322392,36.8403177 176.956461,36.6197802 C177.654457,36.3992428 178.256562,36.1472527 178.764263,35.8637363 C178.986522,35.7377043 179.208037,35.6274725 179.430296,35.532967 C179.683775,35.4069351 179.921644,35.280977 180.143902,35.1549451 C180.492529,34.9344076 180.857508,34.8241758 181.238099,34.8241758 C181.491577,34.8241758 181.713836,34.8714286 181.904131,34.9659341 C182.062463,35.0289131 182.205184,35.1549451 182.332295,35.343956 L184.04495,37.4703297 C183.315734,38.2893527 182.585774,38.9351648 181.856557,39.4076923 C181.00023,39.9431988 180.159512,40.3527473 179.335148,40.6362637 C178.542005,40.8882538 177.638103,41.0930649 176.623444,41.2505495 C175.830301,41.3765814 174.942753,41.4395604 173.959314,41.4395604 C172.214695,41.4395604 170.644761,41.1717703 169.249512,40.6362637 C167.854263,40.1007572 166.585382,39.2659341 165.443612,38.1318681 C164.365026,37.0607812 163.508698,35.7062517 162.874629,34.0681319 C162.27178,32.4930649 161.970728,30.6186813 161.970728,28.4450549 C161.970728,26.869988 162.24056,25.3263736 162.779481,23.8142857 C163.287183,22.3967033 164.063973,21.1208791 165.110595,19.9868132 C166.094034,18.9157263 167.314598,18.0651769 168.773775,17.4351648 C170.232951,16.8051528 171.881679,16.4901099 173.721445,16.4901099 Z M173.816593,20.6483516 C172.135901,20.6483516 170.803836,21.1366054 169.820397,22.1131868 C168.868922,23.0582418 168.250463,24.4128451 167.965021,26.1769231 L179.002132,26.1769231 C179.002132,25.5153846 178.891374,24.8065934 178.669116,24.0505495 C178.478821,23.45199 178.161415,22.8692308 177.717641,22.3021978 C177.305087,21.7981439 176.766166,21.4043956 176.100133,21.1208791 C175.370916,20.8058362 174.609736,20.6483516 173.816593,20.6483516 Z M226.196784,36.856044 C226.989184,37.0450549 227.386128,37.5333087 227.386128,38.3208791 L227.386128,41.1087912 L217.918951,41.1087912 L217.918951,25.7043956 C217.918951,24.1293286 217.585934,22.9637363 216.919902,22.2076923 C216.253869,21.4201219 215.25482,21.0263736 213.922755,21.0263736 C213.38309,21.0263736 212.812205,21.1366054 212.2101,21.3571429 C211.702399,21.5461538 211.258625,21.8296703 210.878035,22.2076923 C210.560629,22.5227352 210.259576,23.010989 209.974133,23.6725275 C209.751875,24.208034 209.641117,24.8853726 209.641117,25.7043956 L209.641117,36.4307692 L211.020756,36.667033 L211.734362,36.8087912 L212.019805,36.856044 C212.812205,37.0450549 213.209149,37.5333087 213.209149,38.3208791 L213.209149,41.1087912 L203.741972,41.1087912 L203.741972,25.7043956 C203.741972,24.0978022 203.408955,22.9164835 202.742923,22.1604396 C202.07689,21.4043956 201.109061,21.0263736 199.840924,21.0263736 C198.984596,21.0263736 198.191452,21.2311109 197.462236,21.6406593 C196.796203,22.0186813 196.113817,22.6014406 195.416564,23.389011 L195.416564,36.4307692 L196.796203,36.667033 L197.50981,36.8087912 L197.795252,36.856044 C198.587652,37.0450549 198.983853,37.5333087 198.983853,38.3208791 L198.983853,41.1087912 L185.949387,41.1087912 L185.949387,38.3208791 C185.949387,37.5333087 186.345587,37.0450549 187.138731,36.856044 L187.424173,36.8087912 C187.519321,36.8087912 187.614468,36.7930649 187.709616,36.7615385 C187.835984,36.730012 187.978705,36.6985594 188.137036,36.667033 L189.517419,36.4307692 L189.517419,21.5461538 L188.137036,21.3098901 C187.978705,21.2783637 187.835984,21.2469111 187.709616,21.2153846 C187.614468,21.1838582 187.519321,21.1681319 187.424173,21.1681319 L187.138731,21.1208791 C186.313624,20.9318681 185.901813,20.4436144 185.901813,19.656044 L185.901813,16.8681319 L193.133024,16.8681319 C193.862241,16.8681319 194.353588,17.2304275 194.60781,17.9549451 L194.988401,19.7505495 C195.559286,19.1205374 196.00306,18.6794626 196.320466,18.4274725 C196.76424,18.080977 197.271941,17.7502078 197.842826,17.4351648 C198.349784,17.1516484 198.920669,16.9153846 199.555481,16.7263736 C200.062439,16.5688891 200.728471,16.4901099 201.553579,16.4901099 C203.139123,16.4901099 204.408004,16.8996583 205.359479,17.7186813 C206.374138,18.6007572 207.119708,19.7032967 207.595446,21.0263736 C207.976036,20.2073506 208.451773,19.5142857 209.021915,18.9472527 C209.529616,18.4431988 210.148075,17.9864715 210.878035,17.5769231 C211.416956,17.2618802 212.146173,16.9941638 213.066428,16.7736264 C213.827608,16.5846154 214.604398,16.4901099 215.397542,16.4901099 C216.760827,16.4901099 217.950171,16.6948472 218.965573,17.1043956 C220.07538,17.5453966 220.963671,18.143956 221.629704,18.9 C222.326956,19.6875704 222.866621,20.6483516 223.247211,21.7824176 C223.627801,22.9164835 223.818096,24.2238341 223.818096,25.7043956 L223.818096,36.4307692 L225.197735,36.667033 C225.356067,36.6985594 225.483178,36.730012 225.578325,36.7615385 C225.704693,36.7930649 225.816194,36.8087912 225.911342,36.8087912 L226.196784,36.856044 Z M240.761787,16.4901099 C242.315367,16.4901099 243.72697,16.7263736 244.995851,17.1989011 C246.200805,17.6399021 247.310611,18.3644935 248.326014,19.3725275 C249.245525,20.286056 249.974742,21.435922 250.514406,22.821978 C251.053328,24.2395604 251.32316,25.7831748 251.32316,27.4527473 C251.32316,27.8307692 251.291197,28.2087912 251.228013,28.5868132 C251.164086,28.9333087 251.100902,29.1538462 251.037718,29.2483516 C250.973791,29.4058362 250.831069,29.5318681 250.609554,29.6263736 C250.482443,29.6893527 250.260184,29.7208791 249.943521,29.7208791 L234.862641,29.7208791 C235.052936,32.2095484 235.734579,34.0366054 236.908312,35.2021978 C238.081303,36.3677902 239.635627,36.9505495 241.57054,36.9505495 C242.553236,36.9505495 243.36199,36.8403177 243.996802,36.6197802 C244.694055,36.3992428 245.296903,36.1472527 245.804605,35.8637363 C246.02612,35.7377043 246.248379,35.6274725 246.470637,35.532967 C246.724116,35.4069351 246.961985,35.280977 247.184244,35.1549451 C247.53287,34.9344076 247.89785,34.8241758 248.27844,34.8241758 C248.531919,34.8241758 248.754177,34.8714286 248.944473,34.9659341 C249.102804,35.0289131 249.245525,35.1549451 249.372636,35.343956 L251.085291,37.4703297 C250.355332,38.2893527 249.626115,38.9351648 248.896899,39.4076923 C248.040571,39.9431988 247.199854,40.3527473 246.37549,40.6362637 C245.582346,40.8882538 244.678445,41.0930649 243.663786,41.2505495 C242.870642,41.3765814 241.982351,41.4395604 240.999655,41.4395604 C239.255037,41.4395604 237.685103,41.1717703 236.289854,40.6362637 C234.893861,40.1007572 233.625723,39.2659341 232.483953,38.1318681 C231.405367,37.0607812 230.549039,35.7062517 229.91497,34.0681319 C229.312122,32.4930649 229.011069,30.6186813 229.011069,28.4450549 C229.011069,26.869988 229.280158,25.3263736 229.819823,23.8142857 C230.326781,22.3967033 231.104314,21.1208791 232.150937,19.9868132 C233.133632,18.9157263 234.35494,18.0651769 235.814116,17.4351648 C237.272549,16.8051528 238.92202,16.4901099 240.761787,16.4901099 Z M240.856191,20.6483516 C239.175499,20.6483516 237.843434,21.1366054 236.860739,22.1131868 C235.909264,23.0582418 235.290805,24.4128451 235.005362,26.1769231 L246.042473,26.1769231 C246.042473,25.5153846 245.930972,24.8065934 245.709457,24.0505495 C245.519162,23.45199 245.201756,22.8692308 244.757982,22.3021978 C244.345428,21.7981439 243.806507,21.4043956 243.140474,21.1208791 C242.410515,20.8058362 241.649334,20.6483516 240.856191,20.6483516 Z M264.501834,16.4901099 C266.056158,16.4901099 267.467017,16.7263736 268.735898,17.1989011 C269.940852,17.6399021 271.051402,18.3644935 272.066061,19.3725275 C272.985572,20.286056 273.715532,21.435922 274.254454,22.821978 C274.793375,24.2395604 275.063208,25.7831748 275.063208,27.4527473 C275.063208,27.8307692 275.031244,28.2087912 274.96806,28.5868132 C274.904876,28.9333087 274.840949,29.1538462 274.777765,29.2483516 C274.714581,29.4058362 274.57186,29.5318681 274.349601,29.6263736 C274.22249,29.6893527 274.000975,29.7208791 273.683569,29.7208791 L258.602688,29.7208791 C258.792983,32.2095484 259.474626,34.0366054 260.64836,35.2021978 C261.822093,36.3677902 263.375674,36.9505495 265.310588,36.9505495 C266.294026,36.9505495 267.10278,36.8403177 267.736849,36.6197802 C268.434845,36.3992428 269.036951,36.1472527 269.544652,35.8637363 C269.766911,35.7377043 269.988426,35.6274725 270.210684,35.532967 C270.464163,35.4069351 270.702032,35.280977 270.924291,35.1549451 C271.272917,34.9344076 271.637897,34.8241758 272.018487,34.8241758 C272.271966,34.8241758 272.494225,34.8714286 272.68452,34.9659341 C272.842851,35.0289131 272.985572,35.1549451 273.112684,35.343956 L274.825339,37.4703297 C274.096122,38.2893527 273.366162,38.9351648 272.636946,39.4076923 C271.780618,39.9431988 270.939901,40.3527473 270.115537,40.6362637 C269.322393,40.8882538 268.418492,41.0930649 267.403833,41.2505495 C266.610689,41.3765814 265.723141,41.4395604 264.739703,41.4395604 C262.995084,41.4395604 261.42515,41.1717703 260.029901,40.6362637 C258.634652,40.1007572 257.365771,39.2659341 256.224,38.1318681 C255.145414,37.0607812 254.289087,35.7062517 253.655018,34.0681319 C253.052169,32.4930649 252.751116,30.6186813 252.751116,28.4450549 C252.751116,26.869988 253.020949,25.3263736 253.55987,23.8142857 C254.067571,22.3967033 254.844362,21.1208791 255.890984,19.9868132 C256.874423,18.9157263 258.094987,18.0651769 259.554163,17.4351648 C261.01334,16.8051528 262.662068,16.4901099 264.501834,16.4901099 Z M264.596981,20.6483516 C262.91629,20.6483516 261.584225,21.1366054 260.600786,22.1131868 C259.649311,23.0582418 259.030852,24.4128451 258.745409,26.1769231 L269.782521,26.1769231 C269.782521,25.5153846 269.671763,24.8065934 269.449504,24.0505495 C269.259209,23.45199 268.941803,22.8692308 268.498029,22.3021978 C268.085476,21.7981439 267.546554,21.4043956 266.880522,21.1208791 C266.151305,20.8058362 265.390125,20.6483516 264.596981,20.6483516 Z M286.625117,41.4868132 C284.499908,41.4868132 282.86679,40.8882538 281.72502,39.6912088 C280.58325,38.4941638 280.012365,36.856044 280.012365,34.7769231 L280.012365,21.2626374 L277.53853,21.2626374 C277.284307,21.2626374 277.015218,21.1524056 276.729776,20.9318681 C276.475553,20.7428571 276.349186,20.4436144 276.349186,20.0340659 L276.349186,17.6714286 L280.297807,17.0571429 L281.534725,10.4417582 C281.565945,10.1582418 281.708666,9.92197802 281.962889,9.73296703 C282.216368,9.54395604 282.51742,9.44945055 282.86679,9.44945055 L285.91151,9.44945055 L285.91151,17.1043956 L292.333967,17.1043956 L292.333967,21.2626374 L285.91151,21.2626374 L285.91151,34.3989011 C285.91151,35.1234186 286.101805,35.7062517 286.482396,36.1472527 C286.862986,36.5568012 287.369943,36.7615385 288.004012,36.7615385 C288.44853,36.7615385 288.749582,36.730012 288.908657,36.667033 L289.527116,36.3835165 L290.050427,36.1 C290.145575,36.0370209 290.271942,36.0054945 290.431017,36.0054945 C290.684496,36.0054945 290.842828,36.0370209 290.906755,36.1 L291.239771,36.478022 L293,39.3131868 C292.174893,39.9747253 291.192197,40.5102318 290.050427,40.9197802 C288.971841,41.2978022 287.830071,41.4868132 286.625117,41.4868132 Z" id="Shape" fill="#2D3958"></path>
                <path d="M0,28.1404694 C1.24062277e-06,14.0701976 13.0076034,0 28.6178014,0 C44.2279994,0 57,12.6632224 57,28.1404694 C57,41.1554541 46.6338178,55.0305741 28.6178014,55.0305741 L28.6178014,63 C8.22295287,52.6235294 -1.24062277e-06,42.2106671 0,28.1404694 Z M28.6178014,42.2106671 C36.4229004,42.2106671 42.8088633,35.8790929 42.8088633,28.1404694 C42.8088633,20.4018459 36.4229004,14.0701976 28.6178014,14.0701976 C20.8127024,14.0701976 14.4266647,20.4018459 14.4266647,28.1404694 C14.4266647,35.8790929 20.8127024,42.2106671 28.6178014,42.2106671 Z" id="Shape" fill="#5956E0"></path>
                <path d="M27.9993306,21 C27.9993306,23.0999705 29.7491264,24.5 31.4989959,24.5 C32.1989437,24.5 32.8988915,24.1499926 33.5987655,23.7999853 C37.0985046,28.3500074 33.5987655,35 27.9993306,35 C24.1496914,35 21,31.8500074 21,28 C21,24.1499926 24.1496914,21 27.9993306,21 Z" id="Path" fill="#5956E0"></path>
            </g>
        </g>
    </g>
</svg>