<?xml version="1.0" encoding="UTF-8"?>
<svg width="452px" height="94px" viewBox="0 0 452 94" version="1.1" xmlns="http://www.w3.org/2000/svg" xmlns:xlink="http://www.w3.org/1999/xlink">
    <title>Group 5</title>
    <defs>
        <linearGradient x1="50%" y1="0%" x2="50%" y2="100%" id="linearGradient-1">
            <stop stop-color="#CE455B" offset="0%"></stop>
            <stop stop-color="#CE457D" offset="100%"></stop>
        </linearGradient>
        <path d="M31.5958241,9.02005868 C32.764592,3.98323911 37.334123,0 43.0020612,0 C48.8146296,0 53.3177088,4.13990535 54.4278429,9.0709752 C61.0769209,10.723804 66.6119557,14.1861279 70.2824344,20.0767784 C73.2063087,24.7728489 74.4024391,29.4493362 76.3529917,43.9252966 C80.2697325,44.9632104 82.7401718,47.313204 83.8268523,50.8186111 C84.8548991,54.132102 85.8438566,64.8833226 85.9923956,70.5154739 C86.129208,76.2847081 84.4483711,80.8554456 78.6397116,82.7785237 L78.6006224,82.7902737 C76.6539788,94.8457407 64.8138512,93.9449098 60.9049283,93.9879931 C55.2604435,94.023243 50.3821077,93.9723264 43.0176969,93.9449098 C38.3348072,93.9605765 22.2026823,93.9958264 20.3303082,93.8822434 C12.5750051,93.2634117 8.48627169,89.0725898 7.44258927,82.8020236 C2.97078143,81.3802775 0,77.7103709 0,71.8158037 C0,66.8416506 0.801329202,57.7040923 1.88410085,52.0131911 C2.7948799,47.7714527 5.34740658,45.0611268 9.67849319,43.9174633 C11.515687,29.6295023 12.8212672,23.5939355 16.9803612,18.1145338 C20.6977469,13.2147972 25.7558932,10.4535548 31.5958241,9.02005868 M64.9234799,45.0642249 C66.3262328,46.4537345 66.3583004,48.6893669 65.0185034,50.1175474 L64.9271512,50.2115451 L39.0348013,75.9321333 C37.6326302,77.3250029 35.3761397,77.3552827 33.9368241,76.0229726 L33.8420988,75.9321333 L22.0728488,64.2409568 C20.6409512,62.818558 20.6425949,60.5140242 22.0765201,59.0936367 C23.4792731,57.7041271 25.733065,57.6754808 27.1709214,59.0065277 L27.2655514,59.0972785 L36.4380128,68.2088971 L59.7344486,45.0678667 C61.1663462,43.6454679 63.4895546,43.6438374 64.9234799,45.0642249 Z M42.9726257,3 C46.1089385,3 48.7173184,5.0234869 50,8 C45.5731844,7.34056007 40.2312849,7.37669377 36,7.97741644 C37.2631285,5.07768744 39.7893855,3.04516712 42.9726257,3 Z" id="path-2"></path>
        <filter x="-19.2%" y="-17.6%" width="138.4%" height="135.1%" filterUnits="objectBoundingBox" id="filter-3">
            <feGaussianBlur stdDeviation="16" in="SourceAlpha" result="shadowBlurInner1"></feGaussianBlur>
            <feOffset dx="0" dy="1" in="shadowBlurInner1" result="shadowOffsetInner1"></feOffset>
            <feComposite in="shadowOffsetInner1" in2="SourceAlpha" operator="arithmetic" k2="-1" k3="1" result="shadowInnerInner1"></feComposite>
            <feColorMatrix values="0 0 0 0 0   0 0 0 0 0   0 0 0 0 0  0 0 0 0.00305346509 0" type="matrix" in="shadowInnerInner1"></feColorMatrix>
        </filter>
    </defs>
    <g id="Logotype" stroke="none" stroke-width="1" fill="none" fill-rule="evenodd">
        <g id="A4" transform="translate(-96.000000, -390.000000)">
            <g id="Group-5" transform="translate(96.000000, 390.000000)">
                <path d="M138.189286,92 C143.165476,92 147.044643,90.8506648 149.826786,88.5519943 C152.608929,86.2533238 154,83.140076 154,79.2122507 C154,76.4895537 153.163095,74.0681387 151.489286,71.9480057 C149.815476,69.8278727 147.59881,68.4776828 144.839286,67.8974359 C147.282143,67.1832858 149.23869,65.9112061 150.708929,64.0811966 C152.179167,62.2511871 152.914286,59.9525166 152.914286,57.1851852 C152.914286,53.4358974 151.545833,50.4677113 148.808929,48.2806268 C146.072024,46.0935423 142.283333,45 137.442857,45 L137.442857,45 L116,45 L116,92 L138.189286,92 Z M134.879397,65 L127,65 L127,56 L134.879397,56 C136.849246,56 138.361809,56.3877551 139.417085,57.1632653 C140.472362,57.9387755 141,59.0612245 141,60.5306122 C141,62 140.472362,63.1122449 139.417085,63.8673469 C138.361809,64.622449 136.849246,65 134.879397,65 L134.879397,65 Z M135.75,83 L127,83 L127,73 L135.611111,73 C137.601852,73 139.164352,73.4516129 140.298611,74.3548387 C141.43287,75.2580645 142,76.5053763 142,78.0967742 C142,79.688172 141.456019,80.9032258 140.368056,81.7419355 C139.280093,82.5806452 137.740741,83 135.75,83 L135.75,83 Z M175.222411,93 C177.826825,93 180.111205,92.4703833 182.075552,91.4111498 C184.039898,90.3519164 185.573854,88.9616725 186.677419,87.2404181 L186.677419,87.2404181 L186.677419,92.4703833 L198,92.4703833 L198,55.5296167 L186.677419,55.5296167 L186.677419,60.7595819 C185.617997,59.0383275 184.106112,57.6480836 182.141766,56.5888502 C180.177419,55.5296167 177.893039,55 175.288625,55 C172.242784,55 169.483871,55.7723577 167.011885,57.3170732 C164.539898,58.8617886 162.586587,61.068525 161.151952,63.9372822 C159.717317,66.8060395 159,70.1382114 159,73.9337979 C159,77.7293844 159.717317,81.07259 161.151952,83.9634146 C162.586587,86.8542393 164.539898,89.083043 167.011885,90.6498258 C169.483871,92.2166086 172.220713,93 175.222411,93 Z M179,84 C176.770492,84 174.879781,83.1394928 173.327869,81.4184783 C171.775956,79.6974638 171,77.3683575 171,74.4311594 C171,71.4939614 171.775956,69.1878019 173.327869,67.5126812 C174.879781,65.8375604 176.770492,65 179,65 C181.229508,65 183.120219,65.8490338 184.672131,67.5471014 C186.224044,69.2451691 187,71.5628019 187,74.5 C187,77.4371981 186.224044,79.7548309 184.672131,81.4528986 C183.120219,83.1509662 181.229508,84 179,84 Z M222.394161,93 C226.948905,93 230.781022,91.7642276 233.890511,89.2926829 C237,86.8211382 239.036496,83.4227642 240,79.097561 L240,79.097561 L228.043796,79.097561 C227.036496,81.9221835 225.087591,83.3344948 222.19708,83.3344948 C220.138686,83.3344948 218.49635,82.529036 217.270073,80.9181185 C216.043796,79.3072009 215.430657,77.0011614 215.430657,74 C215.430657,70.9988386 216.043796,68.6927991 217.270073,67.0818815 C218.49635,65.470964 220.138686,64.6655052 222.19708,64.6655052 C225.087591,64.6655052 227.036496,66.0778165 228.043796,68.902439 L228.043796,68.902439 L240,68.902439 C239.036496,64.4889663 237.010949,61.068525 233.923358,58.641115 C230.835766,56.213705 226.992701,55 222.394161,55 C218.80292,55 215.616788,55.7723577 212.835766,57.3170732 C210.054745,58.8617886 207.886861,61.068525 206.332117,63.9372822 C204.777372,66.8060395 204,70.1602787 204,74 C204,77.8397213 204.777372,81.1939605 206.332117,84.0627178 C207.886861,86.931475 210.054745,89.1382114 212.835766,90.6829268 C215.616788,92.2276423 218.80292,93 222.394161,93 Z M258.132007,94 L258.132007,78.1891892 L269.198915,94 L283,94 L267.766727,75.2162162 L282.869801,56.2972973 L269.133816,56.2972973 L258.132007,71.6351351 L258.132007,44 L247,44 L247,94 L258.132007,94 Z M299.186916,92 L299.186916,75.1282051 L306.121495,75.1282051 C309.872274,75.1282051 313.012461,74.4363723 315.542056,73.0527066 C318.071651,71.6690408 319.94704,69.8501899 321.168224,67.5961538 C322.389408,65.3421178 323,62.8537512 323,60.1310541 C323,57.1851852 322.367601,54.5740741 321.102804,52.2977208 C319.838006,50.0213675 317.94081,48.2359924 315.411215,46.9415954 C312.88162,45.6471985 309.785047,45 306.121495,45 L306.121495,45 L288,45 L288,92 L299.186916,92 Z M305.363158,67 L299,67 L299,56 L305.363158,56 C307.598246,56 309.263158,56.4791667 310.357895,57.4375 C311.452632,58.3958333 312,59.75 312,61.5 C312,63.25 311.452632,64.6041667 310.357895,65.5625 C309.263158,66.5208333 307.598246,67 305.363158,67 L305.363158,67 Z M343.222411,93 C345.826825,93 348.111205,92.4703833 350.075552,91.4111498 C352.039898,90.3519164 353.573854,88.9616725 354.677419,87.2404181 L354.677419,87.2404181 L354.677419,92.4703833 L366,92.4703833 L366,55.5296167 L354.677419,55.5296167 L354.677419,60.7595819 C353.617997,59.0383275 352.106112,57.6480836 350.141766,56.5888502 C348.177419,55.5296167 345.893039,55 343.288625,55 C340.242784,55 337.483871,55.7723577 335.011885,57.3170732 C332.539898,58.8617886 330.586587,61.068525 329.151952,63.9372822 C327.717317,66.8060395 327,70.1382114 327,73.9337979 C327,77.7293844 327.717317,81.07259 329.151952,83.9634146 C330.586587,86.8542393 332.539898,89.083043 335.011885,90.6498258 C337.483871,92.2166086 340.220713,93 343.222411,93 Z M347,84 C344.770492,84 342.879781,83.1394928 341.327869,81.4184783 C339.775956,79.6974638 339,77.3683575 339,74.4311594 C339,71.4939614 339.775956,69.1878019 341.327869,67.5126812 C342.879781,65.8375604 344.770492,65 347,65 C349.229508,65 351.120219,65.8490338 352.672131,67.5471014 C354.224044,69.2451691 355,71.5628019 355,74.5 C355,77.4371981 354.224044,79.7548309 352.672131,81.4528986 C351.120219,83.1509662 349.229508,84 347,84 Z M391.394161,93 C395.948905,93 399.781022,91.7642276 402.890511,89.2926829 C406,86.8211382 408.036496,83.4227642 409,79.097561 L409,79.097561 L397.043796,79.097561 C396.036496,81.9221835 394.087591,83.3344948 391.19708,83.3344948 C389.138686,83.3344948 387.49635,82.529036 386.270073,80.9181185 C385.043796,79.3072009 384.430657,77.0011614 384.430657,74 C384.430657,70.9988386 385.043796,68.6927991 386.270073,67.0818815 C387.49635,65.470964 389.138686,64.6655052 391.19708,64.6655052 C394.087591,64.6655052 396.036496,66.0778165 397.043796,68.902439 L397.043796,68.902439 L409,68.902439 C408.036496,64.4889663 406.010949,61.068525 402.923358,58.641115 C399.835766,56.213705 395.992701,55 391.394161,55 C387.80292,55 384.616788,55.7723577 381.835766,57.3170732 C379.054745,58.8617886 376.886861,61.068525 375.332117,63.9372822 C373.777372,66.8060395 373,70.1602787 373,74 C373,77.8397213 373.777372,81.1939605 375.332117,84.0627178 C376.886861,86.931475 379.054745,89.1382114 381.835766,90.6829268 C384.616788,92.2276423 387.80292,93 391.394161,93 Z M427.132007,94 L427.132007,78.1891892 L438.198915,94 L452,94 L436.766727,75.2162162 L451.869801,56.2972973 L438.133816,56.2972973 L427.132007,71.6351351 L427.132007,44 L416,44 L416,94 L427.132007,94 Z" id="BackPack-Copy" fill="#111111" fill-rule="nonzero"></path>
                <g id="Shape">
                    <use fill="url(#linearGradient-1)" fill-rule="evenodd" xlink:href="#path-2"></use>
                    <use fill="black" fill-opacity="1" filter="url(#filter-3)" xlink:href="#path-2"></use>
                </g>
            </g>
        </g>
    </g>
</svg>
