<?xml version="1.0" encoding="UTF-8"?>
<svg width="295px" height="62px" viewBox="0 0 295 62" version="1.1" xmlns="http://www.w3.org/2000/svg" xmlns:xlink="http://www.w3.org/1999/xlink">
    <!-- Generator: Sketch 55 (78076) - https://sketchapp.com -->
    <title>Logo</title>
    <desc>Created with Sketch.</desc>
    <defs>
        <polygon id="path-1" points="0 61.3162664 294.708512 61.3162664 294.708512 0 0 0"></polygon>
        <polygon id="path-3" points="0 61.3162664 294.708512 61.3162664 294.708512 0 0 0"></polygon>
        <polygon id="path-5" points="0 61.3162664 294.708512 61.3162664 294.708512 0 0 0"></polygon>
        <polygon id="path-7" points="0 61.3162664 294.708512 61.3162664 294.708512 0 0 0"></polygon>
        <polygon id="path-9" points="0 61.3162664 294.708512 61.3162664 294.708512 0 0 0"></polygon>
        <polygon id="path-11" points="0 61.3162664 294.708512 61.3162664 294.708512 0 0 0"></polygon>
        <polygon id="path-13" points="0 61.3162664 294.708512 61.3162664 294.708512 0 0 0"></polygon>
        <polygon id="path-15" points="0 61.3162664 294.708512 61.3162664 294.708512 0 0 0"></polygon>
        <polygon id="path-17" points="0 61.3162664 294.708512 61.3162664 294.708512 0 0 0"></polygon>
        <polygon id="path-19" points="0 61.3162664 294.708512 61.3162664 294.708512 0 0 0"></polygon>
        <polygon id="path-21" points="0 61.3162664 294.708512 61.3162664 294.708512 0 0 0"></polygon>
        <polygon id="path-23" points="0 61.3162664 294.708512 61.3162664 294.708512 0 0 0"></polygon>
        <polygon id="path-25" points="0 61.3162664 294.708512 61.3162664 294.708512 0 0 0"></polygon>
        <polygon id="path-27" points="0 61.3162664 294.708512 61.3162664 294.708512 0 0 0"></polygon>
        <polygon id="path-29" points="0 61.3162664 294.708512 61.3162664 294.708512 0 0 0"></polygon>
        <polygon id="path-31" points="0 61.3162664 294.708512 61.3162664 294.708512 0 0 0"></polygon>
        <polygon id="path-33" points="0 61.3162664 294.708512 61.3162664 294.708512 0 0 0"></polygon>
        <polygon id="path-35" points="0 61.3162664 294.708512 61.3162664 294.708512 0 0 0"></polygon>
        <polygon id="path-37" points="0 61.3162664 294.708512 61.3162664 294.708512 0 0 0"></polygon>
        <polygon id="path-39" points="0 61.3162664 294.708512 61.3162664 294.708512 0 0 0"></polygon>
        <polygon id="path-41" points="0 61.3162664 294.708512 61.3162664 294.708512 0 0 0"></polygon>
        <polygon id="path-43" points="0 61.3162664 294.708512 61.3162664 294.708512 0 0 0"></polygon>
        <polygon id="path-45" points="0 61.3162664 294.708512 61.3162664 294.708512 0 0 0"></polygon>
        <polygon id="path-47" points="0 61.3162664 294.708512 61.3162664 294.708512 0 0 0"></polygon>
        <polygon id="path-49" points="0 61.3162664 294.708512 61.3162664 294.708512 0 0 0"></polygon>
        <polygon id="path-51" points="0 61.3162664 294.708512 61.3162664 294.708512 0 0 0"></polygon>
        <polygon id="path-53" points="0 61.3162664 294.708512 61.3162664 294.708512 0 0 0"></polygon>
        <polygon id="path-55" points="0 61.3162664 294.708512 61.3162664 294.708512 0 0 0"></polygon>
        <polygon id="path-57" points="0 61.3162664 294.708512 61.3162664 294.708512 0 0 0"></polygon>
        <polygon id="path-59" points="0 61.3162664 294.708512 61.3162664 294.708512 0 0 0"></polygon>
        <polygon id="path-61" points="0 61.3162664 294.708512 61.3162664 294.708512 0 0 0"></polygon>
    </defs>
    <g id="Home" stroke="none" stroke-width="1" fill="none" fill-rule="evenodd">
        <g id="Desktop-HD-Copy" transform="translate(-838.000000, -2150.000000)">
            <g id="Logo" transform="translate(838.000000, 2150.000000)">
                <path d="M150.726734,26.8649556 L156.735608,26.8649556 C158.51438,26.8649556 159.871111,26.442245 160.805412,25.5956496 C161.738939,24.7494456 162.206281,23.5408062 162.206281,21.9693404 C162.206281,20.3528638 161.73584,19.045592 160.794183,18.0483081 C159.852139,17.0510241 158.551939,16.5375091 156.892809,16.5069799 L150.726734,16.5069799 L150.726734,26.8649556 Z M150.726734,32.3727183 L150.726734,44 L144,44 L144,11 L156.735608,11 C159.186938,11 161.343225,11.4532397 163.20447,12.3601106 C165.065327,13.26659 166.496399,14.5550746 167.497685,16.2243901 C168.49897,17.8940971 169,19.7943378 169,21.924721 C169,25.1584571 167.905401,27.7080284 165.715815,29.5738261 C163.525842,31.4404066 160.495268,32.3731097 156.623709,32.3731097 L150.726734,32.3731097 L150.726734,32.3727183 Z" id="Fill-1" fill="#ECBD51" fill-rule="nonzero"></path>
                <path d="M178.355084,31.6932501 L186.621385,31.6932501 L182.465096,19.3407066 L178.355084,31.6932501 Z M188.461478,37.2006214 L176.515775,37.2006214 L174.245072,44 L167,44 L179.30925,11 L185.62251,11 L198,44 L190.754928,44 L188.461478,37.2006214 Z" id="Fill-3" fill="#ECBD51" fill-rule="nonzero"></path>
                <polygon id="Fill-5" fill="#ECBD51" fill-rule="nonzero" points="223 16.5076974 212.846792 16.5076974 212.846792 44 206.016788 44 206.016788 16.5076974 196 16.5076974 196 11 223 11"></polygon>
                <g id="Fill-7-Clipped">
                    <mask id="mask-2" fill="white">
                        <use xlink:href="#path-1"></use>
                    </mask>
                    <g id="path-1"></g>
                    <polygon id="Fill-7" fill="#ECBD51" fill-rule="nonzero" mask="url(#mask-2)" points="226.920165 43.8565618 233.698922 43.8565618 233.698922 10.9101174 226.920165 10.9101174"></polygon>
                </g>
                <g id="Fill-9-Clipped">
                    <mask id="mask-4" fill="white">
                        <use xlink:href="#path-3"></use>
                    </mask>
                    <g id="path-1"></g>
                    <polygon id="Fill-9" fill="#BEE1E2" fill-rule="nonzero" mask="url(#mask-4)" points="266.734513 43.8564836 259.955757 43.8564836 246.759578 22.1784868 246.661635 35.977128 239.882879 35.977128 239.980432 10.9096485 246.759578 10.9096485 259.978388 32.6325832 259.978388 10.9096485 266.734513 10.9096485"></polygon>
                </g>
                <g id="Fill-10-Clipped">
                    <mask id="mask-6" fill="white">
                        <use xlink:href="#path-5"></use>
                    </mask>
                    <g id="path-1"></g>
                    <polygon id="Fill-10" fill="#ECBD51" fill-rule="nonzero" mask="url(#mask-6)" points="292.448445 29.5325779 279.433326 29.5325779 279.433326 38.4029098 294.708551 38.4029098 294.708551 43.8564055 272.654569 43.8564055 272.654569 10.9099611 294.663286 10.9099611 294.663286 16.4087854 279.433326 16.4087854 279.433326 24.2607873 292.448445 24.2607873"></polygon>
                </g>
                <g id="Fill-11-Clipped">
                    <mask id="mask-8" fill="white">
                        <use xlink:href="#path-7"></use>
                    </mask>
                    <g id="path-1"></g>
                    <path d="M246.72204,48.0556675 L240.892279,48.0556675 C242.293138,48.9837308 242.810949,50.5303728 242.810949,51.7761269 C242.810949,52.597121 242.716128,53.8135678 242.624428,54.9897661 C242.547556,55.9748808 242.474977,56.9045072 242.474977,57.4257858 C242.474977,58.6629431 242.975228,60.533528 243.730288,60.533528 C243.91759,60.533528 244.079527,60.4616276 244.225857,60.3135282 C244.958284,59.5734222 244.946577,57.3788942 244.946188,57.3570114 C244.946188,55.926817 244.824831,55.1249703 244.717523,54.4169067 C244.60163,53.6514011 244.501736,52.9898384 244.566901,51.7780808 C244.680062,49.7152401 245.917424,48.5800721 246.72204,48.0556675" id="Fill-11" fill="#5E5549" fill-rule="nonzero" mask="url(#mask-8)"></path>
                </g>
                <g id="Fill-12-Clipped">
                    <mask id="mask-10" fill="white">
                        <use xlink:href="#path-9"></use>
                    </mask>
                    <g id="path-1"></g>
                    <polygon id="Fill-12" fill="#5E5549" fill-rule="nonzero" mask="url(#mask-10)" points="240.272427 46.3403247 247.473783 46.3403247 247.473783 45.7783367 240.272427 45.7783367"></polygon>
                </g>
                <g id="Fill-13-Clipped">
                    <mask id="mask-12" fill="white">
                        <use xlink:href="#path-11"></use>
                    </mask>
                    <g id="path-1"></g>
                    <polygon id="Fill-13" fill="#5E5549" fill-rule="nonzero" mask="url(#mask-12)" points="240.272818 47.2968438 247.474173 47.2968438 247.474173 44.6400426 240.272818 44.6400426"></polygon>
                </g>
                <g id="Fill-14-Clipped">
                    <mask id="mask-14" fill="white">
                        <use xlink:href="#path-13"></use>
                    </mask>
                    <g id="path-1"></g>
                    <polygon id="Fill-14" fill="#5E5549" fill-rule="nonzero" mask="url(#mask-14)" points="240.272427 47.2968438 247.473783 47.2968438 247.473783 46.5375902 240.272427 46.5375902"></polygon>
                </g>
                <g id="Fill-15-Clipped">
                    <mask id="mask-16" fill="white">
                        <use xlink:href="#path-15"></use>
                    </mask>
                    <g id="path-1"></g>
                    <path d="M248.643013,39.1121847 C248.711301,39.0633392 248.74798,38.9679929 248.72925,38.8855418 C248.703496,38.7690944 248.570044,38.6807817 248.364402,38.6432685 C248.114276,38.5975491 247.78962,38.5592543 247.415017,38.5295563 C247.408773,38.5295563 247.406823,38.5303378 247.399409,38.529947 C246.898378,38.4955598 246.399686,39.5412431 246.098443,40.3458251 C246.098443,40.3458251 246.24048,39.2114386 246.434806,38.4752401 C246.086346,38.4627357 245.719937,38.455702 245.339482,38.455702 C243.761855,38.455702 242.36646,38.5651157 241.605936,38.7479931 C241.172021,38.852327 240.85751,39.1344582 240.765811,39.5025575 C240.427497,40.8573346 240.309654,43.1933188 240.281168,43.8806718 L247.473939,43.8806718 C247.475109,43.0534255 247.555103,39.8905856 248.643013,39.1121847" id="Fill-15" fill="#BEE1E2" fill-rule="nonzero" mask="url(#mask-16)"></path>
                </g>
                <g id="Fill-16-Clipped">
                    <mask id="mask-18" fill="white">
                        <use xlink:href="#path-17"></use>
                    </mask>
                    <g id="path-1"></g>
                    <path d="M194.278572,50.6561205 L195.632996,50.6561205 C196.139491,50.6561205 196.509802,50.5537405 196.743538,50.3489804 C196.977665,50.1442202 197.094729,49.8679505 197.094729,49.520171 C197.094729,49.1493364 196.978056,48.864079 196.745099,48.6647896 C196.512923,48.4655003 196.159392,48.3654648 195.686454,48.3654648 L194.278572,48.3654648 L194.278572,50.6561205 Z M194.278572,51.0500102 L194.278572,53.591536 L193.81578,53.591536 L193.81578,47.9711844 L195.686454,47.9711844 C196.288161,47.9711844 196.749781,48.1032624 197.071316,48.3670278 C197.39285,48.631184 197.554008,49.0168675 197.554008,49.5240786 C197.554008,49.8226219 197.468552,50.0899042 197.296858,50.3255345 C197.125945,50.561165 196.884014,50.7331009 196.569895,50.8413424 C196.917573,50.9288735 197.167309,51.0855696 197.320271,51.3106494 C197.473624,51.5357292 197.550105,51.818642 197.550105,52.1582154 L197.550105,52.6873093 C197.550105,52.8623713 197.570786,53.0194582 197.611368,53.1585701 C197.652341,53.2972912 197.720629,53.4110033 197.81584,53.4985343 L197.81584,53.5911453 L197.345245,53.5911453 C197.250033,53.4985343 197.183307,53.36841 197.145066,53.2007725 C197.106046,53.0335258 197.086924,52.859636 197.086924,52.679494 L197.086924,52.1660307 C197.086924,51.8209865 196.975715,51.5486244 196.753684,51.3489443 C196.530872,51.1492641 196.220655,51.0496193 195.821858,51.0496193 L194.278572,51.0496193 L194.278572,51.0500102 Z" id="Fill-16" fill="#5E5549" fill-rule="nonzero" mask="url(#mask-18)"></path>
                </g>
                <g id="Fill-17-Clipped">
                    <mask id="mask-20" fill="white">
                        <use xlink:href="#path-19"></use>
                    </mask>
                    <g id="path-1"></g>
                    <polygon id="Fill-17" fill="#5E5549" fill-rule="nonzero" mask="url(#mask-20)" points="201.962424 50.8686959 199.443608 50.8686959 199.443608 53.201554 202.355758 53.201554 202.355758 53.5919267 198.980816 53.5919267 198.980816 47.9676675 202.336637 47.9676675 202.336637 48.3615571 199.443608 48.3615571 199.443608 50.4744155 201.962424 50.4744155"></polygon>
                </g>
                <g id="Fill-18-Clipped">
                    <mask id="mask-22" fill="white">
                        <use xlink:href="#path-21"></use>
                    </mask>
                    <g id="path-1"></g>
                    <polygon id="Fill-18" fill="#5E5549" fill-rule="nonzero" mask="url(#mask-22)" points="203.798409 53.2014369 206.699242 53.2014369 206.699242 53.5918096 203.335228 53.5918096 203.335228 47.9675502 203.798799 47.9675502 203.798799 53.2014369"></polygon>
                </g>
                <g id="Fill-19-Clipped">
                    <mask id="mask-24" fill="white">
                        <use xlink:href="#path-23"></use>
                    </mask>
                    <g id="path-1"></g>
                    <path d="M211.096186,50.3161171 C211.096186,49.7084799 210.942052,49.2188532 210.634956,48.8484094 C210.327469,48.4775748 209.901358,48.2923529 209.356622,48.2923529 C208.821642,48.2923529 208.405286,48.4775748 208.106775,48.8484094 C207.808263,49.219244 207.659202,49.7084799 207.659202,50.3161171 L207.659202,51.2391006 C207.659202,51.8518178 207.809434,52.3437891 208.108725,52.7146236 C208.408018,53.0854582 208.825544,53.2710708 209.360525,53.2710708 C209.908382,53.2710708 210.334492,53.0858489 210.639247,52.7169682 C210.943613,52.3469151 211.096186,51.8545532 211.096186,51.2391006 L211.096186,50.3161171 Z M211.555465,51.2394913 C211.555465,51.9655299 211.356848,52.5532383 210.959221,53.0010533 C210.562376,53.4492591 210.029348,53.6731666 209.360525,53.6731666 C208.701848,53.6731666 208.177013,53.4496498 207.78485,53.0010533 C207.392688,52.5532383 207.19641,51.9659207 207.19641,51.2394913 L207.19641,50.3239325 C207.19641,49.6002384 207.391906,49.0133117 207.782509,48.5627613 C208.173501,48.1122109 208.697945,47.8867404 209.356232,47.8867404 C210.024664,47.8867404 210.558474,48.1122109 210.957271,48.5627613 C211.355677,49.0133117 211.555074,49.6006292 211.555074,50.3239325 L211.555074,51.2394913 L211.555465,51.2394913 Z" id="Fill-19" fill="#5E5549" fill-rule="nonzero" mask="url(#mask-24)"></path>
                </g>
                <g id="Fill-20-Clipped">
                    <mask id="mask-26" fill="white">
                        <use xlink:href="#path-25"></use>
                    </mask>
                    <g id="path-1"></g>
                    <path d="M216.411687,50.3161171 C216.411687,49.7084799 216.257555,49.2188532 215.950457,48.8484094 C215.642971,48.4775748 215.216859,48.2923529 214.672124,48.2923529 C214.137145,48.2923529 213.720788,48.4775748 213.422276,48.8484094 C213.123374,49.219244 212.974703,49.7084799 212.974703,50.3161171 L212.974703,51.2391006 C212.974703,51.8518178 213.124935,52.3437891 213.424228,52.7146236 C213.72352,53.0854582 214.141047,53.2710708 214.676026,53.2710708 C215.223884,53.2710708 215.649995,53.0858489 215.95475,52.7169682 C216.259115,52.3469151 216.411687,51.8545532 216.411687,51.2391006 L216.411687,50.3161171 Z M216.870577,51.2394913 C216.870577,51.9655299 216.67196,52.5532383 216.274333,53.0010533 C215.877488,53.4492591 215.34446,53.6731666 214.675637,53.6731666 C214.01696,53.6731666 213.492124,53.4496498 213.099962,53.0010533 C212.707799,52.5532383 212.511522,51.9659207 212.511522,51.2394913 L212.511522,50.3239325 C212.511522,49.6002384 212.707018,49.0133117 213.09762,48.5627613 C213.488612,48.1122109 214.013057,47.8867404 214.671344,47.8867404 C215.339776,47.8867404 215.873586,48.1122109 216.272383,48.5627613 C216.670788,49.0133117 216.870186,49.6006292 216.870186,50.3239325 L216.870186,51.2394913 L216.870577,51.2394913 Z" id="Fill-20" fill="#5E5549" fill-rule="nonzero" mask="url(#mask-26)"></path>
                </g>
                <g id="Fill-21-Clipped">
                    <mask id="mask-28" fill="white">
                        <use xlink:href="#path-27"></use>
                    </mask>
                    <g id="path-1"></g>
                    <polygon id="Fill-21" fill="#5E5549" fill-rule="nonzero" mask="url(#mask-28)" points="219.13478 50.9226994 218.529172 50.9226994 218.529172 53.5920049 218.06599 53.5920049 218.06599 47.9677457 218.529172 47.9677457 218.529172 50.5323266 219.130878 50.5323266 221.337525 47.9677457 221.861578 47.9677457 221.869383 47.986893 219.539819 50.6905858 222.101169 53.5724668 222.092974 53.5916142 221.537312 53.5916142"></polygon>
                </g>
                <g id="Fill-22-Clipped">
                    <mask id="mask-30" fill="white">
                        <use xlink:href="#path-29"></use>
                    </mask>
                    <g id="path-1"></g>
                    <polygon id="Fill-22" fill="#5E5549" fill-rule="nonzero" mask="url(#mask-30)" points="223.049656 53.5916533 223.628088 53.5916533 223.628088 47.967394 223.049656 47.967394"></polygon>
                </g>
                <g id="Fill-23-Clipped">
                    <mask id="mask-32" fill="white">
                        <use xlink:href="#path-31"></use>
                    </mask>
                    <g id="path-1"></g>
                    <polygon id="Fill-23" fill="#5E5549" fill-rule="nonzero" mask="url(#mask-32)" points="229.205986 53.5918096 228.742805 53.5918096 225.552824 48.7795568 225.529411 48.7830737 225.529411 53.5922004 225.066621 53.5922004 225.066621 47.967941 225.529411 47.967941 228.719783 52.7696431 228.742805 52.7657355 228.742805 47.967941 229.205986 47.967941"></polygon>
                </g>
                <g id="Fill-24-Clipped">
                    <mask id="mask-34" fill="white">
                        <use xlink:href="#path-33"></use>
                    </mask>
                    <g id="path-1"></g>
                    <path d="M234.632737,52.8347052 C234.50982,53.038293 234.281547,53.2285949 233.948306,53.4063923 C233.615456,53.5841897 233.195589,53.6728929 232.689094,53.6728929 C232.043293,53.6728929 231.515337,53.4501578 231.103663,53.0046874 C230.69199,52.559217 230.486349,51.98245 230.486349,51.2739958 L230.486349,50.2427708 C230.486349,49.5476026 230.685746,48.9809955 231.084152,48.5433403 C231.482949,48.1052944 231.998029,47.8864668 232.630952,47.8864668 C233.240853,47.8864668 233.724715,48.0474614 234.08371,48.3694506 C234.442314,48.6914397 234.615958,49.1009598 234.606203,49.5976203 L234.594107,49.6210661 L234.169947,49.6210661 C234.169947,49.2322564 234.036493,48.9118303 233.768809,48.6593971 C233.501514,48.4069638 233.121839,48.2807473 232.630952,48.2807473 C232.126798,48.2807473 231.720589,48.4636245 231.411931,48.8293792 C231.103273,49.1951338 230.94953,49.6636593 230.94953,50.2353463 L230.94953,51.2743866 C230.94953,51.8617041 231.110297,52.3431248 231.431441,52.7190393 C231.752586,53.0949537 232.171673,53.2825202 232.689094,53.2825202 C233.082036,53.2825202 233.403961,53.2239057 233.652915,53.1047228 C233.902262,52.9867123 234.075905,52.8487728 234.173458,52.6916858 L234.173458,51.2509407 L232.661388,51.2509407 L232.661388,50.8570511 L234.632348,50.8570511 L234.632348,52.8347052 L234.632737,52.8347052 Z" id="Fill-24" fill="#5E5549" fill-rule="nonzero" mask="url(#mask-34)"></path>
                </g>
                <g id="Fill-25-Clipped">
                    <mask id="mask-36" fill="white">
                        <use xlink:href="#path-35"></use>
                    </mask>
                    <g id="path-1"></g>
                    <path d="M253.361374,48.3619088 L253.361374,53.2019058 L254.611223,53.2019058 C255.166493,53.2019058 255.624212,53.0073056 255.984767,52.6188866 C256.344543,52.2296861 256.52443,51.7381056 256.52443,51.1429727 L256.52443,50.4091189 C256.52443,49.8218014 256.344152,49.3341285 255.982426,48.9449279 C255.62109,48.5557275 255.164152,48.3615181 254.611223,48.3615181 L253.361374,48.3615181 L253.361374,48.3619088 Z M252.898193,53.5918877 L252.898193,47.9676284 L254.610832,47.9676284 C255.297215,47.9676284 255.864973,48.1970066 256.313716,48.6553722 C256.762849,49.1137378 256.986831,49.7022276 256.986831,50.420451 L256.986831,51.1429727 C256.986831,51.8615868 256.76246,52.4492952 256.313716,52.9064886 C255.864973,53.3632911 255.297215,53.5918877 254.610832,53.5918877 L252.898193,53.5918877 Z" id="Fill-25" fill="#5E5549" fill-rule="nonzero" mask="url(#mask-36)"></path>
                </g>
                <g id="Fill-26-Clipped">
                    <mask id="mask-38" fill="white">
                        <use xlink:href="#path-37"></use>
                    </mask>
                    <g id="path-1"></g>
                    <path d="M260.412616,46.395704 L260.979594,46.395704 L260.990909,46.4187591 L260.030599,47.4230214 L259.617755,47.4230214 L260.412616,46.395704 Z M261.19538,50.8687741 L258.676564,50.8687741 L258.676564,53.2016322 L261.588714,53.2016322 L261.588714,53.5920049 L258.213773,53.5920049 L258.213773,47.9677457 L261.569594,47.9677457 L261.569594,48.3616353 L258.676564,48.3616353 L258.676564,50.4744936 L261.19538,50.4744936 L261.19538,50.8687741 Z" id="Fill-26" fill="#5E5549" fill-rule="nonzero" mask="url(#mask-38)"></path>
                </g>
                <g id="Fill-27-Clipped">
                    <mask id="mask-40" fill="white">
                        <use xlink:href="#path-39"></use>
                    </mask>
                    <g id="path-1"></g>
                    <path d="M266.437639,51.8343506 L266.445444,51.8574057 C266.45559,52.4087731 266.275702,52.8487728 265.905391,53.1785772 C265.535079,53.5083816 265.048876,53.6728929 264.44678,53.6728929 C263.822441,53.6728929 263.318288,53.4466409 262.93471,52.9949182 C262.551911,52.5431957 262.360318,51.957832 262.360318,51.2392179 L262.360318,50.3236589 C262.360318,49.6077802 262.551911,49.0224164 262.93471,48.5679584 C263.318288,48.1135004 263.822051,47.886076 264.44678,47.886076 C265.056681,47.886076 265.544445,48.0470706 265.910464,48.3690598 C266.277263,48.6910489 266.45559,49.133784 266.445053,49.6976558 L266.436859,49.7207108 L266.005285,49.7207108 C266.005285,49.2674251 265.86676,48.9141749 265.59049,48.6605694 C265.31422,48.4069638 264.932983,48.2799657 264.44678,48.2799657 C263.955893,48.2799657 263.56178,48.4706583 263.264828,48.8516527 C262.967878,49.2330379 262.819598,49.7207108 262.819598,50.3158436 L262.819598,51.238827 C262.819598,51.8413844 262.967878,52.3325741 263.264828,52.7123962 C263.562171,53.0922185 263.956284,53.2821295 264.44678,53.2821295 C264.933374,53.2821295 265.31422,53.1586482 265.59049,52.9112949 C265.86676,52.6639416 266.005285,52.3048299 266.005285,51.8335691 L266.437639,51.8335691 L266.437639,51.8343506 Z" id="Fill-27" fill="#5E5549" fill-rule="nonzero" mask="url(#mask-40)"></path>
                </g>
                <g id="Fill-28-Clipped">
                    <mask id="mask-42" fill="white">
                        <use xlink:href="#path-41"></use>
                    </mask>
                    <g id="path-1"></g>
                    <path d="M271.29359,50.3161171 C271.29359,49.7084799 271.139846,49.2188532 270.832749,48.8484094 C270.525263,48.4775748 270.099151,48.2923529 269.554026,48.2923529 C269.019046,48.2923529 268.60269,48.4775748 268.304178,48.8484094 C268.005665,49.219244 267.856995,49.7084799 267.856995,50.3161171 L267.856995,51.2391006 C267.856995,51.8518178 268.006837,52.3437891 268.306129,52.7146236 C268.605811,53.0854582 269.023339,53.2710708 269.557928,53.2710708 C270.105785,53.2710708 270.531896,53.0858489 270.836651,52.7169682 C271.141406,52.3469151 271.29359,51.8545532 271.29359,51.2391006 L271.29359,50.3161171 Z M271.752478,51.2394913 C271.752478,51.9655299 271.553861,52.5532383 271.156625,53.0010533 C270.759389,53.4492591 270.226751,53.6731666 269.557538,53.6731666 C268.899251,53.6731666 268.374415,53.4496498 267.982254,53.0010533 C267.589701,52.5532383 267.393424,51.9659207 267.393424,51.2394913 L267.393424,50.3239325 C267.393424,49.6002384 267.588921,49.0133117 267.979522,48.5627613 C268.370514,48.1122109 268.895349,47.8867404 269.553245,47.8867404 C270.221678,47.8867404 270.755487,48.1122109 271.154674,48.5627613 C271.55269,49.0133117 271.752089,49.6006292 271.752089,50.3239325 L271.752089,51.2394913 L271.752478,51.2394913 Z" id="Fill-28" fill="#5E5549" fill-rule="nonzero" mask="url(#mask-42)"></path>
                </g>
                <g id="Fill-29-Clipped">
                    <mask id="mask-44" fill="white">
                        <use xlink:href="#path-43"></use>
                    </mask>
                    <g id="path-1"></g>
                    <path d="M33.1777837,29.0759708 C33.1976845,28.9337329 33.2589478,28.826273 33.360793,28.7547633 C33.4626383,28.6836443 33.5594107,28.647694 33.6507202,28.647694 C33.7420298,28.647694 33.823584,28.6938041 33.8949927,28.7852427 C33.9664014,28.8766814 33.991375,28.9943012 33.9714742,29.1365392 C33.8899199,29.5644252 33.7525655,30.2021512 33.5598009,31.0473727 C33.3666462,31.8933758 33.1329094,32.8620785 32.8585906,33.951918 C32.5838816,35.0429297 32.2682004,36.2144387 31.9131078,37.4680081 C31.5568445,38.7215774 31.1857533,39.9751468 30.7994437,41.2287162 C30.4131342,42.4822856 30.0112163,43.6846649 29.5948604,44.8366357 C29.1777242,45.987825 28.7711237,47.0022472 28.3742784,47.8787297 C27.9778234,48.7552123 27.5911237,49.4581959 27.2149596,49.9884619 C26.8380152,50.5179465 26.487215,50.7836657 26.1621686,50.7836657 C25.1643975,50.7836657 24.3757798,50.3561705 23.7959253,49.5000076 C23.2156806,48.6442355 22.7876184,47.4774156 22.5125191,45.9999387 C22.2374199,44.5220711 22.0887493,42.800367 22.0680681,40.8336542 C22.0469967,38.8669414 22.1078697,36.7779198 22.2495165,34.5661982 C22.3907732,32.3548675 22.5890007,30.077107 22.8430284,27.7333073 C23.0962758,25.3895079 23.3503035,23.1117473 23.6039411,20.9000257 C23.8575786,18.688695 24.0913155,16.5996732 24.3047612,14.6325697 C24.5178168,12.6658569 24.6645363,10.9437621 24.7457004,9.46589451 C24.8264742,7.98841764 24.805793,6.82120702 24.6836568,5.96543493 C24.5615204,5.10927206 24.2965668,4.681386 23.889576,4.681386 C23.2180219,4.681386 22.6686038,5.11513352 22.2413221,5.98145623 C21.8140404,6.84777894 21.4683129,7.99466986 21.2045298,9.4209567 C20.9399663,10.8480251 20.7421289,12.4681306 20.6106276,14.2820549 C20.4787361,16.0963699 20.382744,17.9560134 20.3226514,19.8617671 C20.2621686,21.7675208 20.2215866,23.6271643 20.202076,25.4410886 C20.181785,27.2554037 20.146666,28.8758999 20.0963286,30.3021868 C20.0456012,31.7288643 19.9593645,32.8753645 19.8376184,33.7416872 C19.7158724,34.6084007 19.5328632,35.0409759 19.2885906,35.0409759 C18.8410178,35.0409759 18.4492453,34.7869797 18.1128829,34.2770332 C17.7773009,33.7678684 17.4869835,33.0953644 17.2427109,32.2591304 C16.9980483,31.4240688 16.7943578,30.4709966 16.6312493,29.401086 C16.4677507,28.3311756 16.3147878,27.2413361 16.1723604,26.1300047 C16.029543,25.0194548 15.9019437,23.9288338 15.789953,22.8589233 C15.6775721,21.7890127 15.5550456,20.8363314 15.4227639,20.0004882 C15.2900919,19.1650358 15.1375191,18.4925318 14.9642652,17.9829761 C14.7910112,17.4738112 14.582248,17.2186427 14.3383658,17.2186427 C13.8092388,17.2186427 13.422539,17.6879497 13.1786567,18.6253913 C12.9347745,19.562833 12.777129,20.7960827 12.7065007,22.3243587 C12.6350919,23.8534165 12.6261171,25.5958309 12.677625,27.5519931 C12.7287427,29.5085461 12.7903962,31.5065199 12.8625853,33.5439608 C12.9343843,35.5821833 12.9858922,37.5793757 13.0171091,39.5359286 C13.0483261,41.4924816 13.013207,43.2352869 12.911752,44.763563 C12.810297,46.291839 12.6175324,47.5250887 12.3330681,48.4629212 C12.0482136,49.3999721 11.6103962,49.8692791 11.0207864,49.8696698 C10.5728234,49.8696698 10.155297,49.6504516 9.76898743,49.2127964 C9.38189749,48.7743597 9.03070701,48.1733654 8.715416,47.4094227 C8.39895436,46.6450893 8.12385516,45.753367 7.89011839,44.7346465 C7.65560118,43.7151445 7.45698346,42.625305 7.293875,41.4635651 C7.13076654,40.3018251 7.00824008,39.1096057 6.92707605,37.8869066 C6.84474141,36.6642076 6.80415939,35.4618282 6.80376918,34.2797686 C6.80337897,32.2009067 6.7003631,30.295153 6.49667262,28.5628983 C6.29298215,26.8306437 5.99212897,25.337927 5.59489352,24.0843577 C5.19726785,22.8307883 4.69857738,21.8581779 4.09804167,21.1649635 C3.49789616,20.4725305 2.81073346,20.1259232 2.03694379,20.126314 C1.7926713,20.126314 1.55386177,20.1673442 1.31973479,20.248623 C1.08599802,20.3302925 0.856943783,20.4428325 0.63257209,20.5850703 C0.348107805,20.7484096 0.149490079,20.7331697 0.0374993387,20.5393511 C-0.0741011905,20.3459231 0.0628630952,20.1165449 0.449562831,19.8516072 C0.95839881,19.5663499 1.5179623,19.3268118 2.12864352,19.1326024 C2.73893452,18.9387836 3.43116997,18.8418743 4.20417923,18.8414835 C5.05913294,18.8410928 5.83253241,18.9532419 6.52476785,19.1771494 C7.21622288,19.4014477 7.83743982,19.7070247 8.3868578,20.0934898 C8.936666,20.4807366 9.42521098,20.9445729 9.85249272,21.4842172 C10.2805549,22.0242525 10.6465734,22.5998471 10.9521091,23.2110012 C10.9926911,22.9257438 11.0481012,22.5490478 11.1199001,22.0797408 C11.1909186,21.6112153 11.2876911,21.1168996 11.4094372,20.5967933 C11.5311832,20.0770778 11.6884385,19.5526731 11.8823737,19.0224071 C12.0751382,18.4925318 12.3038023,18.0087665 12.568756,17.5703299 C12.8329292,17.1318932 13.1435377,16.7805968 13.4998009,16.5152683 C13.8552837,16.2507215 14.2677374,16.1174711 14.7359914,16.1174711 C15.2038552,16.1174711 15.6463552,16.3159789 16.0638816,16.7129947 C16.4810178,17.1104012 16.842744,17.655907 17.1478896,18.34834 C17.4534253,19.0411637 17.692625,19.8617671 17.8662691,20.8089779 C18.0391329,21.7565794 18.1261501,22.7807705 18.1265404,23.8815514 C18.1261501,22.5775736 18.1718049,21.1759048 18.2631145,19.6777174 C18.3540337,18.1799209 18.5011435,16.6868136 18.7044437,15.1987861 C18.9073538,13.7111493 19.1715271,12.2790011 19.4969637,10.9031227 C19.8216197,9.52724438 20.2235378,8.31470518 20.701547,7.26472361 C21.1795563,6.21474205 21.734047,5.37420972 22.3646289,4.74195436 C22.9952109,4.11008974 23.7178829,3.79396206 24.5322547,3.7935713 C25.4480814,3.7935713 26.1961171,4.15502756 26.7763617,4.87833082 C27.3566065,5.60202485 27.646924,6.7582941 27.6473142,8.34792009 C27.6473142,8.65349716 27.5965866,9.28536176 27.4951316,10.2435139 C27.3932863,11.2020568 27.2668578,12.3837257 27.114285,13.7900835 C26.9621025,15.1964415 26.784166,16.7817691 26.5816462,18.5445033 C26.378346,20.3076283 26.1805086,22.1473429 25.9881342,24.0628657 C25.7949796,25.9787792 25.6123604,27.925563 25.4402771,29.9024357 C25.2681937,31.879699 25.1257665,33.7956126 25.0145563,35.6497854 C24.903346,37.5047398 24.8327176,39.2526251 24.8026714,40.8930504 C24.772625,42.5334756 24.8034517,43.9601532 24.8951514,45.1730831 C24.9872414,46.3856223 25.1499596,47.3437744 25.3848671,48.0467581 C25.6186038,48.7497416 25.9393578,49.101038 26.3467388,49.101038 C26.5703301,49.101038 26.8298207,48.85642 27.1248207,48.3671842 C27.4194306,47.8779482 27.7397943,47.2202932 28.085912,46.3950007 C28.4316396,45.5693173 28.7875126,44.6213251 29.1535311,43.5514145 C29.5195496,42.4811132 29.8750324,41.3701726 30.2207599,40.2185925 C30.5664874,39.0674032 30.9071422,37.9103525 31.2427242,36.7486125 C31.577916,35.5864818 31.8779888,34.5013315 32.142162,33.4923801 C32.4063353,32.4834287 32.6303168,31.5920972 32.813326,30.8172131 C32.9947745,30.0442828 33.1169107,29.4632175 33.1777837,29.0759708" id="Fill-29" fill="#5E5549" fill-rule="nonzero" mask="url(#mask-44)"></path>
                </g>
                <g id="Fill-30-Clipped">
                    <mask id="mask-46" fill="white">
                        <use xlink:href="#path-45"></use>
                    </mask>
                    <g id="path-1"></g>
                    <path d="M49.3580264,29.0708518 C49.3986085,28.867264 49.47509,28.7246353 49.5870807,28.6425751 C49.698291,28.5612962 49.8005264,28.5257368 49.8922262,28.5358965 C49.9835357,28.5460564 50.0600172,28.6019356 50.1212805,28.7039249 C50.1821534,28.8063049 50.1821534,28.938383 50.1212805,29.1013314 C49.9995344,29.488578 49.8055992,30.095043 49.5418161,30.9207263 C49.2772526,31.7464096 48.9518161,32.6588425 48.5658969,33.6572432 C48.1791971,34.6560347 47.7316243,35.6856966 47.2235687,36.7454473 C46.715123,37.8055888 46.1657051,38.7688208 45.5757051,39.6351435 C44.9853148,40.501857 44.355123,41.2146096 43.6835687,41.7757461 C43.0120146,42.3361009 42.3201693,42.6166691 41.6080331,42.61706 C40.9157977,42.6174507 40.2996534,42.4341826 39.7607712,42.0672557 C39.2211085,41.7007195 38.7579272,41.175924 38.3712275,40.4932602 C37.9841376,39.8105963 37.6789921,38.9853037 37.4546203,38.0173825 C37.2302487,37.0494613 37.107332,35.9740801 37.0874313,34.7920204 C36.6800503,35.4445955 36.2277949,35.9951814 35.7294947,36.443387 C35.2308043,36.8919836 34.6657777,37.1162818 34.0351957,37.1162818 C33.6886879,37.1162818 33.3277421,36.9842037 32.951578,36.7192662 C32.5746336,36.4547193 32.2285159,36.0979522 31.9132249,35.6497463 C31.5975436,35.2015407 31.3329802,34.6818251 31.1191441,34.0906 C30.9053082,33.4997655 30.7983902,32.8780607 30.798,32.2258764 C30.798,31.4924133 30.9810092,30.6362504 31.3466376,29.6577786 C31.7126561,28.6796976 32.2468559,27.752025 32.9484564,26.8751516 C33.6504471,25.9990598 34.5151561,25.2546553 35.5425833,24.6427196 C36.5700105,24.0307839 37.7558638,23.7248162 39.0989723,23.7244253 C39.5875172,23.7244253 40.0300172,23.8111749 40.4268624,23.9838924 C40.8240979,24.1570006 41.1596799,24.3812989 41.4343889,24.6563964 C41.7094882,24.9314939 41.9178611,25.2425417 42.0602884,25.5887581 C42.2023254,25.9353654 42.2745146,26.2718127 42.2745146,26.5973188 C42.2745146,26.9236063 42.2233969,27.0767856 42.1219418,27.0560751 C42.0197064,27.0357554 41.8569882,26.9443168 41.6333969,26.7809776 C41.4090251,26.6180292 41.1038797,26.4449211 40.7171799,26.261653 C40.3304802,26.077994 39.8622262,25.9865553 39.312418,25.9869462 C38.6607646,25.9869462 38.020037,26.2874433 37.3894551,26.8864837 C36.7584828,27.4863058 36.1942367,28.2076552 35.6955464,29.0509228 C35.1968559,29.8945814 34.795328,30.7839591 34.4905728,31.7182747 C34.1854272,32.6529809 34.0328546,33.4556092 34.0332447,34.1261594 C34.0332447,34.5532639 34.0687539,34.964738 34.1401628,35.3605814 C34.2115715,35.7572064 34.3895079,35.9549327 34.6747526,35.954542 C34.8780529,35.954542 35.1219352,35.761114 35.4071799,35.3734766 C35.6916441,34.9866208 35.9718161,34.5173138 36.2461349,33.9667279 C36.5208439,33.4161422 36.7799444,32.8507073 37.0238267,32.2700328 C37.2680992,31.6889675 37.4608638,31.2048113 37.6036813,30.8175647 C37.6442633,30.6952557 37.6844551,30.5780267 37.7254272,30.4658775 C37.7660092,30.3537284 37.806201,30.2466593 37.8471733,30.14467 C38.0504736,29.6761445 38.2791376,29.3037469 38.5339457,29.0286493 C38.7879736,28.7535518 39.0677553,28.6156124 39.3729008,28.6156124 C39.7190185,28.6156124 40.0190913,28.7277615 40.2738995,28.9516689 C40.5279272,29.1759673 40.7421534,29.4459848 40.9154074,29.7617217 C41.0882712,30.0778495 41.2209431,30.3986663 41.3130331,30.724563 C41.4043426,31.0508505 41.4507777,31.3157882 41.4507777,31.519376 C41.4507777,31.6623955 41.405123,31.9933722 41.3134233,32.5126969 C41.2221138,33.0324123 41.1304141,33.6490372 41.0391046,34.3621806 C40.9477949,35.0761055 40.8763862,35.827153 40.826049,36.615323 C40.7753215,37.403493 40.7854669,38.1310947 40.8572659,38.7973466 C40.9286746,39.463989 41.0812474,40.0118395 41.3157646,40.4424609 C41.5495013,40.8726916 41.921373,41.0880022 42.430209,41.0880022 C42.9187539,41.0880022 43.4115913,40.8379136 43.910672,40.3385178 C44.408582,39.8391221 44.8920543,39.2068667 45.3603082,38.4425332 C45.8277818,37.6778091 46.280037,36.8271169 46.7178546,35.8892844 C47.1548915,34.9518428 47.5462738,34.03433 47.8923915,33.1375278 C48.238119,32.2407255 48.5378016,31.4306728 48.7926098,30.706588 C49.0478082,29.9836754 49.2358902,29.4377787 49.3580264,29.0708518" id="Fill-30" fill="#5E5549" fill-rule="nonzero" mask="url(#mask-46)"></path>
                </g>
                <g id="Fill-31-Clipped">
                    <mask id="mask-48" fill="white">
                        <use xlink:href="#path-47"></use>
                    </mask>
                    <g id="path-1"></g>
                    <path d="M45.785912,27.0544339 C45.785912,26.9524447 45.8108855,26.8457662 45.8620033,26.7332263 C45.9123406,26.6214679 46.0188684,26.5245586 46.1823671,26.4424982 C46.3446951,26.3612194 46.5737493,26.2947897 46.8691396,26.2435996 C47.1641396,26.1928003 47.5563022,26.16701 48.0448473,26.1666192 C48.533002,26.1666192 49.0367652,26.2732976 49.5557467,26.4870453 C50.0747281,26.7007929 50.5531276,27.0220006 50.9913353,27.4498866 C51.4283724,27.8777726 51.8053168,28.4127279 52.1213883,29.0543616 C52.4370694,29.6963861 52.6255417,30.4450889 52.6868049,31.3012518 C52.7273868,31.7705588 52.7785047,32.2695638 52.8397678,32.7994392 C52.9010311,33.3297053 52.9622943,33.8287102 53.0235576,34.2972357 C53.1047216,34.8474308 53.186666,35.3976258 53.2686104,35.9478208 C53.4102573,35.316347 53.5835112,34.6590827 53.7868115,33.976028 C53.9901117,33.2933642 54.233994,32.6665795 54.5188486,32.0956741 C54.8033129,31.5255501 55.1338221,31.0515539 55.5107665,30.6740764 C55.8869306,30.2969895 56.3091396,30.1082508 56.7773935,30.10786 C57.224576,30.10786 57.5812296,30.2809683 57.8461832,30.6271847 C58.1103565,30.9741828 58.314047,31.406758 58.4568645,31.9264734 C58.5989014,32.446189 58.6960642,33.0069346 58.7471819,33.6079289 C58.7979094,34.209314 58.8341991,34.7696687 58.8544901,35.2893843 C58.8747811,35.8090998 58.8853168,36.2424565 58.8853168,36.588673 C58.8853168,36.935671 58.9161435,37.1083884 58.9770165,37.1083884 C59.0788617,37.1083884 59.195535,36.8383708 59.3274266,36.2983356 C59.4597083,35.7586913 59.6372547,35.0803258 59.8612361,34.2651931 C60.0844371,33.4500605 60.3646091,32.5731871 60.6998009,31.6357454 C61.0353829,30.6983037 61.4470563,29.8218211 61.9356012,29.0062977 C62.423756,28.1911649 63.008293,27.5131904 63.6903829,26.9727644 C64.3716924,26.4327292 65.170846,26.1623209 66.0866727,26.16193 C66.7172547,26.16193 67.1449266,26.4678979 67.3689081,27.0802243 C67.5928896,27.6925507 67.7001978,28.5037758 67.6904424,29.5142902 C67.680297,30.5244139 67.5788419,31.6724772 67.3860773,32.9584799 C67.1929227,34.2444826 66.9794768,35.5609649 66.7461303,36.9079268 C66.5120033,38.2552794 66.2934848,39.5717616 66.0905747,40.8577644 C65.8872745,42.1437672 65.7709914,43.2918304 65.7409451,44.3023448 C65.7105086,45.3120777 65.8025986,46.1233028 66.0164345,46.7364107 C66.2302704,47.3479557 66.6317983,47.6543142 67.2225786,47.6543142 C67.6295694,47.6543142 68.0666065,47.266286 68.5348604,46.4921836 C69.002334,45.7172995 69.4752704,44.7185079 69.9536699,43.4958089 C70.4312891,42.2727191 70.9042255,40.9222404 71.3720893,39.4443728 C71.8395629,37.9668959 72.2664544,36.5245878 72.653154,35.1182299 C73.0386832,33.7118719 73.3695827,32.432903 73.6442917,31.2813228 C73.9182202,30.1301335 74.116838,29.2688907 74.238584,28.6979853 C74.2990668,28.4943975 74.3802309,28.3517688 74.4824663,28.2697084 C74.5843115,28.1884297 74.681084,28.1579501 74.7723935,28.177879 C74.8640932,28.1985894 74.9351117,28.2595486 74.9862296,28.3611471 C75.036957,28.4631364 75.0521753,28.5956052 75.0322745,28.7585536 C74.9507202,29.2278606 74.8184385,29.8745742 74.6362096,30.7002575 C74.4524199,31.5255501 74.2339014,32.4583025 73.9798737,33.4977336 C73.7262361,34.5375553 73.4355284,35.6379453 73.1104822,36.7996853 C72.7850456,37.9614252 72.4397083,39.1188667 72.0736898,40.2696653 C71.7076714,41.4212453 71.3209716,42.5271062 70.9147612,43.5872475 C70.5073803,44.6469982 70.0910245,45.57936 69.6637427,46.3851143 C69.2364609,47.190478 68.8041065,47.8270317 68.3670694,48.2963387 C67.929252,48.7652549 67.4972878,48.999713 67.0696158,49.0001038 C66.234953,49.0001038 65.5532533,48.7300862 65.0241263,48.1904417 C64.4946091,47.6504066 64.0774729,46.9931423 63.7719371,46.2190399 C63.4664014,45.4441558 63.257248,44.6239432 63.1456475,43.7584019 C63.0332665,42.8916886 62.9766858,42.1328258 62.9766858,41.4806415 C62.9762956,40.7268587 63.0473142,39.850376 63.1897414,38.8515844 C63.3313883,37.8531837 63.5046422,36.8235218 63.7079424,35.7637712 C63.9108525,34.7044113 64.1239081,33.6645896 64.3482798,32.6450875 C64.5714809,31.6263671 64.7697083,30.714325 64.9421819,29.9089615 C65.1146555,29.1039885 65.2367917,28.4518043 65.3082004,27.9524085 C65.3796091,27.4534035 65.3640007,27.2033148 65.2625456,27.2033148 C64.8754557,27.2033148 64.4739279,27.3975242 64.0564014,27.7843801 C63.6396555,28.1716269 63.2326647,28.6866532 62.8358194,29.3286776 C62.4389742,29.970702 62.0678829,30.6998668 61.7221555,31.5149995 C61.3756475,32.330523 61.0662096,33.1612862 60.7915007,34.0068984 C60.5171819,34.8529014 60.303346,35.673114 60.1511634,36.467927 C59.9985906,37.2627401 59.9224993,37.9657236 59.9228896,38.5772685 C59.9228896,38.7812471 59.9123538,39.0106252 59.892453,39.2650123 C59.8717719,39.5201808 59.8315801,39.7542482 59.770707,39.9679958 C59.709834,40.1821342 59.6228168,40.3654023 59.5112163,40.5185817 C59.3992255,40.6713702 59.2517255,40.7479598 59.0687163,40.7479598 C58.8853168,40.7479598 58.6972348,40.6463614 58.5040801,40.4423827 C58.3101448,40.2387949 58.1376714,39.9636974 57.9847083,39.6170902 C57.8317453,39.270483 57.7096091,38.8527568 57.6182996,38.3635208 C57.5265999,37.8746756 57.4801647,37.3346405 57.4801647,36.7434153 C57.4797745,36.1732913 57.4743115,35.5465066 57.4637758,34.8630612 C57.4532401,34.1803974 57.4274861,33.5485328 57.3865139,32.9674674 C57.3455417,32.3864021 57.2678896,31.9026368 57.1551184,31.5153902 C57.0423473,31.1285344 56.8835311,30.9347156 56.6782798,30.9347156 C56.4320563,30.9347156 56.1909055,31.1183744 55.9552176,31.4853015 C55.7191396,31.8522284 55.4986699,32.3262245 55.2941991,32.9068991 C55.089338,33.4879644 54.8942322,34.1405395 54.709662,34.8638428 C54.5254822,35.5875369 54.361203,36.301071 54.2179953,37.0040545 C54.0747878,37.7070382 53.9518711,38.3596132 53.8496355,38.9606075 C53.7470099,39.5623833 53.6650655,40.0461485 53.6038022,40.4126847 C53.6041924,41.2074978 53.6041924,42.0124706 53.6045827,42.8279941 C53.6049729,43.6427359 53.5288816,44.3765899 53.3770893,45.029165 C53.225297,45.6809584 52.9517586,46.2163044 52.556084,46.6344214 C52.1607996,47.0521476 51.5575324,47.2615969 50.7466727,47.2615969 C50.2194967,47.2615969 49.753584,46.8540305 49.348154,46.0392886 C48.942334,45.2241559 48.5872414,44.1901957 48.2824861,42.9366263 C47.9781211,41.6834476 47.7295563,40.31812 47.5360112,38.8402523 C47.3432467,37.3627755 47.1805284,35.9618883 47.0486368,34.6368092 C46.9163552,33.3121208 46.8141197,32.1605408 46.7434914,31.1820689 C46.6720827,30.2039879 46.6260378,29.6029936 46.6061368,29.3786953 C46.5655549,29.0531894 46.4996091,28.7878609 46.4082996,28.5838824 C46.3165999,28.3802946 46.2252904,28.2017156 46.1343711,28.0489271 C46.0426714,27.8961385 45.9618975,27.74335 45.8908789,27.5905615 C45.8214214,27.4362099 45.785912,27.2584125 45.785912,27.0544339" id="Fill-31" fill="#5E5549" fill-rule="nonzero" mask="url(#mask-48)"></path>
                </g>
                <g id="Fill-32-Clipped">
                    <mask id="mask-50" fill="white">
                        <use xlink:href="#path-49"></use>
                    </mask>
                    <g id="path-1"></g>
                    <path d="M75.0967374,39.1520816 C75.5646012,39.1520816 75.9864199,38.9328633 76.3633645,38.4944267 C76.7399186,38.0563808 77.0903286,37.5112656 77.4161555,36.8586905 C77.3139199,36.7977315 77.2023194,36.7418522 77.0805734,36.6906622 C76.9584371,36.6402538 76.8363009,36.6144634 76.7141647,36.6144634 C76.3676568,36.6144634 76.0679742,36.6961329 75.8135563,36.8590813 C75.5591383,37.0224204 75.3453022,37.2213191 75.1724385,37.4553865 C74.9995747,37.6902353 74.867293,37.9293826 74.7755932,38.1740006 C74.6838935,38.4186185 74.6382388,38.6124372 74.6382388,38.7546752 C74.6386289,39.0200035 74.7912017,39.1520816 75.0967374,39.1520816 M74.2999253,28.1466179 C74.5843896,27.0868673 74.777154,26.1490348 74.8786091,25.3339022 C74.9191911,24.9876857 74.9394822,24.6414692 74.9394822,24.2944713 C74.9394822,23.9482548 74.9086555,23.6426777 74.8477824,23.3773492 C74.7869094,23.1128024 74.6897467,22.8986639 74.557465,22.7353248 C74.424793,22.5723764 74.2371012,22.4910976 73.9928286,22.4910976 C73.7071937,22.4910976 73.4836025,22.5883977 73.3212745,22.7818256 C73.1585563,22.9756443 73.0313473,23.2304222 72.9396475,23.546159 C72.848338,23.8626775 72.7925378,24.213974 72.7718565,24.6008299 C72.7519557,24.9884672 72.7414199,25.3757138 72.7418102,25.7625697 C72.7418102,26.3127648 72.7831727,26.7613612 72.8639465,27.1075777 C72.9458909,27.4545758 73.0578816,27.7089628 73.1999186,27.8719112 C73.3427361,28.0352503 73.5101368,28.1368489 73.7036819,28.1774883 C73.8972268,28.2181277 74.0958445,28.207577 74.2999253,28.1466179 M74.0037547,59.5745553 C74.5734637,59.5745553 75.1529279,59.3037561 75.7437083,58.763721 C76.3337083,58.2232951 76.8675178,57.3311819 77.3455271,56.0881632 C77.8231462,54.844363 78.2149186,53.2035469 78.5192837,51.1657152 C78.8240391,49.1274927 78.9961224,46.620354 79.035924,43.6446897 C76.1869888,45.4187561 74.0505801,47.1564815 72.6263076,48.8590381 C71.2028155,50.5608133 70.4902891,52.4009187 70.4906793,54.378182 C70.4910694,54.8873469 70.5628684,55.4484833 70.7052956,56.0596375 C70.8477229,56.6711824 71.0619491,57.2366172 71.3471937,57.7559419 C71.6324385,58.2756574 71.9988473,58.7082327 72.4464199,59.0552306 C72.8943829,59.4014471 73.4129742,59.5745553 74.0037547,59.5745553 M90.876506,28.9386956 C90.9576699,28.7347171 91.0599055,28.5971683 91.1820417,28.5252678 C91.3037878,28.4541489 91.4056329,28.4334384 91.4871871,28.4639179 C91.5683512,28.4943975 91.6245417,28.566298 91.6553684,28.6784471 C91.6858049,28.790987 91.6705866,28.9183759 91.6097137,29.0606139 C91.223404,29.9789081 90.7707586,30.9937209 90.2521673,32.1058339 C89.733576,33.2179469 89.1334306,34.3144293 88.4521211,35.395672 C87.7704214,36.4769146 86.9970219,37.5069673 86.1330932,38.4862206 C85.267994,39.4658648 84.3065126,40.2720098 83.2486488,40.9046561 C83.4519491,41.7201794 83.6560298,42.5767331 83.8597202,43.4747077 C84.0630204,44.3715099 84.1656462,45.3097332 84.1660363,46.2893772 C84.1664266,47.3092701 84.1207719,48.3854328 84.0294622,49.5182562 C83.9381527,50.6499073 83.7801171,51.7721801 83.556916,52.8839024 C83.3329345,53.9956246 83.018424,55.0616274 82.6114332,56.081911 C82.2044424,57.101413 81.6959967,57.9989969 81.086096,58.7746624 C80.4758049,59.5495465 79.7379147,60.1669527 78.8732057,60.6272723 C78.0081065,61.0856379 76.9955073,61.3157975 75.8357983,61.3161883 C75.3062811,61.3161883 74.6706263,61.2552292 73.9276634,61.133311 C73.1850906,61.0113927 72.4772467,60.7312153 71.8056924,60.2935601 C71.133748,59.8551235 70.5640391,59.2088007 70.0953948,58.3526379 C69.6271409,57.4968657 69.3926237,56.3452856 69.3922335,54.8982883 C69.3918432,53.7158379 69.6052891,52.5794976 70.0325707,51.4892674 C70.4594622,50.3986464 71.0849716,49.3490557 71.9090986,48.3397135 C72.7332255,47.3303713 73.7399716,46.3417396 74.9305073,45.3734277 C76.121043,44.4047248 77.489125,43.4414928 79.035924,42.4829499 C79.035924,42.0749927 79.0207057,41.6471068 78.9898789,41.1989009 C78.9590522,40.7506953 78.923543,40.3122585 78.8829609,39.8847632 C78.8419888,39.4564864 78.7857983,39.0645507 78.7143896,38.7077835 C78.6425906,38.3514073 78.5664993,38.0505192 78.4853353,37.8059013 C77.9562083,38.4584764 77.4064001,38.973112 76.8370814,39.3505896 C76.2669822,39.7280671 75.7175642,39.916415 75.1884371,39.916415 C74.3736753,39.9168059 73.9666845,39.5092395 73.9666845,38.6941069 C73.9666845,38.4905189 74.0322401,38.1896311 74.1653022,37.7922245 C74.2971937,37.3948182 74.5258578,36.9970209 74.8516845,36.5996144 C75.1767309,36.2018171 75.5997202,35.8556006 76.1183115,35.5597927 C76.637293,35.2643754 77.2830932,35.1162761 78.0568829,35.1158852 L78.2402824,35.1158852 C78.8298922,33.668888 79.2973658,32.3844483 79.6434835,31.2633478 C79.7855204,30.7741119 79.9076568,30.3005064 80.009502,29.8417501 C80.1113473,29.3829938 80.1718301,28.9758182 80.1925112,28.6186603 C80.212412,28.2622839 80.1714398,27.9723374 80.070375,27.7476483 C79.9681396,27.5237409 79.7851303,27.411201 79.520957,27.4115918 C78.8084306,27.4115918 78.1930668,27.497169 77.6736951,27.6671512 C77.1547137,27.8375239 76.6767044,28.0172753 76.2392771,28.207577 C75.8014596,28.3978789 75.3847137,28.5780208 74.9878684,28.7483937 C74.5906329,28.9183759 74.1680337,29.0031715 73.7208512,29.0031715 C73.3345417,29.0031715 73.0184702,28.8921948 72.7741978,28.668678 C72.5299253,28.445552 72.3367704,28.1669376 72.193953,27.8312718 C72.051916,27.4963874 71.9551435,27.1411835 71.9040258,26.7656597 C71.8532983,26.390136 71.827154,26.0400119 71.827154,25.7152874 C71.827154,25.1877566 71.8677361,24.6750749 71.9489001,24.1780237 C72.0300642,23.6809725 72.162346,23.233939 72.3453552,22.8380956 C72.5287547,22.4422521 72.7675642,22.1276875 73.0625642,21.8940109 C73.3579544,21.6607252 73.7189001,21.5434961 74.1457917,21.5434961 C74.5324914,21.5434961 74.8485629,21.6345439 75.0928353,21.8170305 C75.3371078,21.999517 75.5247996,22.2378828 75.6574716,22.5321277 C75.7897533,22.8259819 75.8716978,23.1663369 75.901744,23.551239 C75.9325707,23.9369225 75.9376435,24.3222155 75.9177427,24.7071175 C75.8572599,25.6406515 75.6531793,26.6953222 75.3082322,27.8715204 C75.7967771,27.6065827 76.2950773,27.3619648 76.8039134,27.1372757 C77.2315853,26.9536169 77.6994491,26.7805087 78.208285,26.6171696 C78.7167309,26.4542212 79.2052758,26.3725516 79.6735298,26.3721608 C80.7926568,26.3721608 81.6628286,26.5097096 82.2840456,26.7844163 C82.9044822,27.0599046 83.3372268,27.4217517 83.5814993,27.8703481 C83.8257719,28.3193354 83.9170814,28.8292819 83.8565986,29.400578 C83.7961158,29.9718744 83.6532983,30.5533304 83.4293168,31.1445557 C82.9009702,32.5524766 81.914125,34.1440564 80.4699517,35.9185135 C81.0392704,36.3675008 81.5278155,36.9286372 81.9351965,37.6015319 C82.3429676,38.2744268 82.6890853,39.039151 82.9739398,39.8960953 C83.9506396,39.3451189 84.8461753,38.6054035 85.660547,37.6769494 C86.473748,36.7484952 87.2061753,35.7637712 87.8574385,34.7231679 C88.5083115,33.6825646 89.0877758,32.6474322 89.5966117,31.6169887 C90.1050576,30.5865453 90.5307784,29.6936507 90.876506,28.9386956" id="Fill-32" fill="#5E5549" fill-rule="nonzero" mask="url(#mask-50)"></path>
                </g>
                <g id="Fill-33-Clipped">
                    <mask id="mask-52" fill="white">
                        <use xlink:href="#path-51"></use>
                    </mask>
                    <g id="path-1"></g>
                    <path d="M96.4703849,20.623248 C96.4703849,21.1328036 96.3888307,21.5966399 96.2265026,22.0143661 C96.0633941,22.4324831 95.8608743,22.8091791 95.6166018,23.1456265 C95.3727195,23.4820738 95.1175212,23.7724112 94.8533479,24.0170291 C94.5891746,24.2616471 94.3546574,24.4558566 94.1517474,24.5980944 C94.0089299,24.7004745 93.8867936,24.7411139 93.7853387,24.7204035 C93.6831031,24.7004745 93.6070118,24.6547552 93.5562844,24.5828547 C93.5051667,24.5117357 93.4895582,24.4199063 93.5102395,24.3077572 C93.5309206,24.1959988 93.6019392,24.0889295 93.7244656,23.9869404 C93.8661124,23.8646313 94.0241482,23.7266919 94.1974021,23.5739032 C94.3694854,23.420724 94.5329841,23.2632463 94.6859471,23.0999072 C94.8381297,22.9369588 94.9653387,22.7638505 95.0671839,22.5801916 C95.1686389,22.3965328 95.2201469,22.2234246 95.2201469,22.0600854 C95.1385926,22.1011156 95.0570384,22.1319859 94.9758743,22.1519149 C94.8127659,22.212874 94.6598029,22.2437443 94.5177659,22.2437443 C94.2734934,22.2437443 94.0596574,22.178096 93.8766482,22.0452364 C93.6932487,21.9131583 93.5402857,21.7502099 93.4185397,21.5563913 C93.2960133,21.3629633 93.2047036,21.1589848 93.1434405,20.9452371 C93.0821772,20.7314895 93.0517408,20.5431415 93.0517408,20.3798023 C93.0517408,20.2168539 93.0821772,20.0179552 93.1430503,19.7834971 C93.2043135,19.5494299 93.3108413,19.3251315 93.4634141,19.1109932 C93.616377,18.8972455 93.8138241,18.7186667 94.0580966,18.5756471 C94.302369,18.4334092 94.5969788,18.3615088 94.943877,18.3615088 C95.2899947,18.3615088 95.5647036,18.4377076 95.7676138,18.5901053 C95.9713043,18.742894 96.123877,18.9316327 96.2257223,19.155931 C96.3283479,19.3802292 96.3946839,19.6248472 96.4251203,19.8893941 C96.4551667,20.1547225 96.4699947,20.3989497 96.4703849,20.623248" id="Fill-33" fill="#5E5549" fill-rule="nonzero" mask="url(#mask-52)"></path>
                </g>
                <g id="Fill-34-Clipped">
                    <mask id="mask-54" fill="white">
                        <use xlink:href="#path-53"></use>
                    </mask>
                    <g id="path-1"></g>
                    <path d="M103.953747,27.4627427 C103.444911,27.4627427 103.012166,27.549883 102.656683,27.7229912 C102.30042,27.8964903 101.994884,28.1207885 101.740857,28.395886 C101.486439,28.6709835 101.277675,28.9921912 101.114957,29.3591181 C100.951849,29.726045 100.830102,30.0925812 100.748939,30.4595081 C100.525347,31.3363814 100.454329,32.3246225 100.536273,33.4250125 C101.390837,33.0377659 102.154091,32.5989384 102.825255,32.1097024 C103.394573,31.7021361 103.919408,31.2332199 104.397417,30.7029538 C104.874646,30.1730785 105.114236,29.6127236 105.114236,29.0211076 C105.113846,28.613932 105.022536,28.2520851 104.839137,27.9359573 C104.656128,27.6206112 104.360737,27.4627427 103.953747,27.4627427 M111.64755,28.6221381 C111.687741,28.5002198 111.754077,28.4185503 111.846167,28.3779108 C111.937477,28.3372714 112.023714,28.3220317 112.105658,28.3318008 C112.186432,28.3423514 112.252768,28.3826 112.303495,28.453719 C112.354223,28.5256195 112.369441,28.6018184 112.349931,28.6830972 C112.247695,29.0500241 112.074831,29.59553 111.830949,30.3188332 C111.587067,31.0425273 111.271776,31.847891 110.885466,32.7345333 C110.498767,33.6211758 110.046901,34.5336086 109.52792,35.4710502 C109.009329,36.4088827 108.418548,37.2595749 107.75831,38.024299 C107.096901,38.7886325 106.37423,39.4158079 105.590685,39.9050438 C104.80753,40.3942798 103.968185,40.6388978 103.072649,40.6392885 C102.11585,40.6392885 101.251141,40.4517221 100.477741,40.0746353 C99.7039517,39.6979392 99.0522983,39.1786145 98.5235615,38.5158795 C97.9940443,37.8539261 97.5874437,37.069273 97.3014186,36.1623109 C97.0165642,35.2557396 96.8733565,34.262028 96.8729663,33.1815668 C96.872576,32.080786 97.0762665,31.0620655 97.4824768,30.124233 C97.8890773,29.1871821 98.4131316,28.3712679 99.0534689,27.6780535 C99.6949768,26.9852298 100.411796,26.4397238 101.205876,26.0419266 C101.999567,25.6441293 102.782722,25.4452306 103.556121,25.4452306 C104.003694,25.4452306 104.395857,25.54214 104.731829,25.7351773 C105.067411,25.9289959 105.34251,26.183383 105.555565,26.4995107 C105.770182,26.8156383 105.9329,27.1720147 106.044501,27.5694211 C106.156491,27.9668276 106.213072,28.3693141 106.213462,28.7768804 C106.213462,29.1434166 106.131908,29.5103435 105.96958,29.8772704 C105.806472,30.2441975 105.598099,30.5911955 105.343681,30.9170923 C105.089263,31.2433798 104.794653,31.5591167 104.458681,31.8650845 C104.123099,32.1706616 103.782054,32.4461499 103.436326,32.6907678 C102.621954,33.3023127 101.696372,33.8634491 100.658409,34.3730047 C100.86171,35.2901267 101.127054,36.0954904 101.45288,36.7883141 C101.595308,37.0938912 101.758416,37.3896991 101.941815,37.6745657 C102.124825,37.9602138 102.328125,38.2149916 102.552497,38.4388991 C102.775698,38.6631974 103.030506,38.8413856 103.315751,38.9734636 C103.600215,39.1063232 103.915506,39.1719715 104.262404,39.1719715 C104.892596,39.1719715 105.503667,38.9527532 106.093277,38.5139257 C106.683667,38.0758798 107.232695,37.5202141 107.741921,36.8473193 C108.250367,36.1748153 108.723304,35.4206418 109.160731,34.5844078 C109.597768,33.7489555 109.984468,32.9439826 110.32005,32.1687078 C110.656022,31.3946052 110.935413,30.686151 111.159005,30.0437357 C111.382986,29.4017113 111.545314,28.928106 111.64755,28.6221381" id="Fill-34" fill="#5E5549" fill-rule="nonzero" mask="url(#mask-54)"></path>
                </g>
                <g id="Fill-35-Clipped">
                    <mask id="mask-56" fill="white">
                        <use xlink:href="#path-55"></use>
                    </mask>
                    <g id="path-1"></g>
                    <path d="M121.80628,3.73378447 C121.175308,3.73378447 120.564237,3.95886426 119.975017,4.40667925 C119.384627,4.85527577 118.835209,5.47229136 118.326763,6.25694451 C117.817927,7.04198841 117.350064,7.96458107 116.922782,9.02433173 C116.49589,10.0844732 116.119336,11.2208135 115.79429,12.4333527 C115.468853,13.6462826 115.199607,14.9053227 114.986161,16.2093005 C114.773106,17.5140599 114.625606,18.8078779 114.544832,20.0923176 C115.012696,19.582762 115.556651,18.971217 116.177868,18.2572922 C116.798304,17.5437579 117.433959,16.7692647 118.085612,15.9334215 C118.736095,15.0975784 119.376823,14.2160159 120.008185,13.2883432 C120.638377,12.3606706 121.203013,11.4337796 121.701314,10.5057162 C122.199614,9.5784344 122.601922,8.67616143 122.906677,7.79967887 C123.211823,6.9231963 123.364395,6.09790375 123.364005,5.3230197 C123.364005,5.18078178 123.323033,5.01744264 123.242259,4.83417454 C123.160315,4.65051569 123.053787,4.47779821 122.921115,4.31445906 C122.788443,4.15151067 122.625725,4.01396192 122.43218,3.90181279 C122.237855,3.79005442 122.029872,3.73339371 121.80628,3.73378447 M124.622438,28.6488663 C124.66263,28.4452785 124.728966,28.3026498 124.820665,28.2209802 C124.912365,28.1397014 125.008747,28.1139111 125.110593,28.1443907 C125.212438,28.1748701 125.298675,28.2362201 125.370083,28.3276587 C125.441102,28.4194882 125.466466,28.5265573 125.446565,28.6488663 C125.222583,29.6476579 124.952947,30.8195576 124.638827,32.1649564 C124.323145,33.5103552 123.9622,34.9010826 123.555989,36.3383108 C123.148999,37.775539 122.712352,39.1924475 122.244878,40.5882548 C121.777015,41.9840621 121.284177,43.2329422 120.765586,44.3337231 C120.246995,45.434504 119.712795,46.3262263 119.163767,47.0092809 C118.614349,47.6923355 118.065321,48.0338629 117.515513,48.0338629 C116.456869,48.0342536 115.520361,47.7181259 114.70638,47.0870428 C113.892008,46.4551782 113.189627,45.5939355 112.599237,44.504096 C112.008066,43.4138658 111.515229,42.1505273 111.117213,40.7136899 C110.719977,39.2768524 110.403906,37.7587362 110.169779,36.1589503 C109.934872,34.5591645 109.76669,32.9136594 109.664455,31.2216532 C109.561829,29.5304288 109.510712,27.9001634 109.510321,26.3300756 C109.509541,24.4145529 109.656261,22.4318188 109.951261,20.3838272 C110.24548,18.3354448 110.656763,16.3378617 111.1855,14.3914686 C111.713847,12.4454663 112.349111,10.600281 113.092464,8.85747571 C113.834257,7.11467042 114.658384,5.58561278 115.563675,4.27069356 C116.468575,2.95616508 117.440593,1.91634336 118.478556,1.15161916 C119.516128,0.386894958 120.594673,0.00433747504 121.71419,0.00433747504 C122.630017,0.00394671152 123.321862,0.421672911 123.790507,1.25712531 C124.25837,2.09296848 124.493278,3.20351838 124.493668,4.58916582 C124.494058,5.58795736 124.315732,6.62777908 123.960249,7.70745869 C123.603985,8.78831056 123.136902,9.87346086 122.556657,10.9636911 C121.976803,12.0547028 121.32593,13.1246133 120.604038,14.1742041 C119.880976,15.2245765 119.148549,16.2132081 118.406757,17.1404899 C117.663794,18.0685534 116.946585,18.9192455 116.254739,19.6937388 C115.563284,20.4686229 114.973284,21.1106473 114.48513,21.6202029 L114.48513,22.5068454 C114.48552,23.8725638 114.542101,25.3910708 114.654482,27.0619757 C114.766862,28.7332712 114.915143,30.4198066 115.098933,32.1215816 C115.282722,33.8233568 115.496948,35.4794125 115.741221,37.0893583 C115.985884,38.6996947 116.245765,40.1310615 116.520864,41.3846308 C116.795963,42.6378095 117.076135,43.6412901 117.360989,44.3958545 C117.646234,45.1496373 117.921333,45.5271149 118.185897,45.5267241 C118.551915,45.5267241 118.938225,45.235996 119.345216,44.6549307 C119.752206,44.0742561 120.159197,43.3095319 120.566188,42.3619304 C120.972788,41.4139381 121.374706,40.3389477 121.771161,39.1361775 C122.168007,37.9337982 122.538708,36.7052377 122.884825,35.4520591 C123.229773,34.1984898 123.550136,32.9808706 123.845136,31.7980295 C124.138966,30.6163606 124.398066,29.566379 124.622438,28.6488663" id="Fill-35" fill="#5E5549" fill-rule="nonzero" mask="url(#mask-56)"></path>
                </g>
                <g id="Fill-36-Clipped">
                    <mask id="mask-58" fill="white">
                        <use xlink:href="#path-57"></use>
                    </mask>
                    <g id="path-1"></g>
                    <path d="M136.550896,3.72901716 C135.919923,3.72901716 135.308852,3.95409694 134.719633,4.40191193 C134.129242,4.85050846 133.579824,5.46752405 133.071378,6.25217719 C132.562152,7.0372211 132.094679,7.95981376 131.667397,9.01956442 C131.240505,10.0797058 130.863951,11.2160461 130.538905,12.4285853 C130.213468,13.6415152 129.944222,14.9005553 129.730776,16.2045332 C129.517721,17.5092926 129.370221,18.8031105 129.289447,20.0875502 C129.757311,19.5779946 130.301266,18.9664498 130.922093,18.2525248 C131.542919,17.5389906 132.178574,16.7644973 132.830227,15.9286541 C133.48071,15.092811 134.121438,14.2112485 134.752801,13.2835759 C135.382992,12.3559033 135.947629,11.4290123 136.445928,10.5009489 C136.944229,9.57366708 137.346536,8.67139412 137.650902,7.79491156 C137.956437,6.91842899 138.10901,6.09313644 138.10823,5.31825239 C138.10823,5.17601447 138.067648,5.01267532 137.986874,4.82940723 C137.90493,4.64613914 137.798012,4.47303089 137.66573,4.30969174 C137.533059,4.14674336 137.37034,4.00919461 137.176796,3.89704547 C136.98247,3.78528711 136.774096,3.72901716 136.550896,3.72901716 M139.367053,28.6444898 C139.407245,28.440902 139.47319,28.2982733 139.56528,28.2166037 C139.65698,28.1353249 139.753362,28.1095345 139.855207,28.140014 C139.957053,28.1704936 140.0429,28.2314527 140.114698,28.3232821 C140.185717,28.4151116 140.211081,28.5221808 140.19118,28.6444898 C139.967198,29.6432814 139.697563,30.8151811 139.383441,32.1605799 C139.06776,33.5059787 138.706815,34.8967061 138.300604,36.3339343 C137.893613,37.7711625 137.456577,39.188071 136.989493,40.5838782 C136.52163,41.9796855 136.028793,43.2285657 135.510201,44.3293466 C134.991609,45.4301273 134.45741,46.3218497 133.908382,47.0049044 C133.358574,47.687959 132.809936,48.0294862 132.260128,48.0294862 C131.201484,48.0298771 130.264976,47.7137493 129.450995,47.0826663 C128.636623,46.4508017 127.934242,45.5895588 127.343462,44.4997195 C126.752681,43.4094892 126.259844,42.1461508 125.861828,40.7093134 C125.464593,39.2724759 125.148131,37.7543597 124.914394,36.1545738 C124.679487,34.5547879 124.511306,32.9092827 124.40907,31.2172767 C124.306444,29.5256614 124.254936,27.8953961 124.254546,26.3256991 C124.253766,24.4101763 124.400485,22.427833 124.695876,20.3794505 C124.990095,18.3310683 125.401378,16.3334851 125.930115,14.387092 C126.458462,12.4410898 127.093726,10.5959044 127.837079,8.85309916 C128.578482,7.11029388 129.402999,5.58123623 130.30829,4.266317 C131.2128,2.95178853 132.185208,1.91196681 133.223171,1.14724261 C134.260743,0.382518406 135.339288,0.000351687165 136.458806,-3.90763517e-05 C137.374242,-0.000429839869 138.066478,0.417296359 138.535121,1.25274876 C139.002986,2.08859192 139.237893,3.19875107 139.238283,4.58478926 C139.238673,5.58358081 139.060346,6.62340253 138.704863,7.70308213 C138.3486,8.78393401 137.881517,9.86908431 137.301272,10.9593145 C136.721418,12.0503263 136.070546,13.1202368 135.348654,14.1702183 C134.625591,15.2205907 133.893164,16.2088316 133.151372,17.1365042 C132.408409,18.0645676 131.6912,18.9152598 130.999355,19.689753 C130.307899,20.4646371 129.717509,21.1066615 129.229355,21.6162171 L129.229355,22.5028596 C129.229745,23.868578 129.286716,25.3870851 129.399097,27.0579899 C129.511477,28.7292854 129.659758,30.4158208 129.843548,32.1175958 C130.027337,33.819371 130.241564,35.4754267 130.485836,37.0853725 C130.730499,38.6957089 130.99038,40.1270757 131.265479,41.380645 C131.540578,42.6338237 131.82075,43.6373043 132.105605,44.3918687 C132.390849,45.1456515 132.665948,45.5231291 132.930512,45.5227383 C133.29653,45.5227383 133.68284,45.2320102 134.089831,44.6509449 C134.496821,44.0702703 134.903422,43.3055461 135.310413,42.3579446 C135.717013,41.4099523 136.119322,40.3349619 136.515776,39.1321917 C136.912621,37.9298124 137.283323,36.7016427 137.62944,35.4480733 C137.974388,34.194504 138.294751,32.9768848 138.589751,31.7940437 C138.883581,30.6115933 139.143072,29.5620025 139.367053,28.6444898" id="Fill-36" fill="#5E5549" fill-rule="nonzero" mask="url(#mask-58)"></path>
                </g>
                <g id="Fill-37-Clipped">
                    <mask id="mask-60" fill="white">
                        <use xlink:href="#path-59"></use>
                    </mask>
                    <g id="path-1"></g>
                    <path d="M144.494199,27.4507462 C143.985363,27.4507462 143.552618,27.5378866 143.197137,27.7109948 C142.841263,27.8844938 142.535728,28.108792 142.28131,28.3838895 C142.026892,28.658987 141.818518,28.9798039 141.655801,29.3471216 C141.492691,29.7140486 141.370556,30.0805847 141.289392,30.4475117 C141.065801,31.3243851 140.994781,32.312626 141.076727,33.413016 C141.93168,33.0257694 142.694934,32.5869419 143.366098,32.0977061 C143.935417,31.6901397 144.459861,31.2212234 144.93787,30.6909574 C145.41549,30.161082 145.655079,29.6003364 145.655079,29.0091111 C145.654689,28.6019356 145.56299,28.2404793 145.37998,27.9239608 C145.196581,27.6086147 144.90119,27.4507462 144.494199,27.4507462 M152.188003,28.6101417 C152.228585,28.4882234 152.29453,28.4065539 152.38701,28.3659145 C152.47793,28.325275 152.564557,28.3100352 152.646501,28.3198043 C152.727275,28.3299642 152.793611,28.3706036 152.844339,28.4417226 C152.895066,28.513623 152.910284,28.589822 152.890384,28.6711007 C152.788148,29.0380277 152.615674,29.5835336 152.371793,30.3068368 C152.12791,31.0305308 151.812229,31.8358945 151.42631,32.7225368 C151.039609,33.6091793 150.587354,34.5216121 150.068372,35.4590537 C149.549781,36.3964955 148.959392,37.2475784 148.298763,38.0123026 C147.637745,38.776636 146.914682,39.4038114 146.131527,39.8930474 C145.347983,40.3822833 144.508638,40.6269013 143.613102,40.6272921 C142.656303,40.6272921 141.791594,40.4397256 141.018194,40.0626388 C140.244796,39.6859427 139.593142,39.166618 139.064014,38.5038832 C138.534888,37.8419297 138.128286,37.0572765 137.841871,36.1503144 C137.557408,35.2437431 137.41381,34.2500315 137.413419,33.1695703 C137.413419,32.0687896 137.61672,31.050069 138.02293,30.1122366 C138.42953,29.1751857 138.953585,28.3592715 139.594313,27.666057 C140.23543,26.9732333 140.952249,26.4277274 141.746329,26.0299301 C142.54002,25.6321329 143.323174,25.4332343 144.096965,25.4332343 C144.544147,25.4332343 144.93631,25.5301435 145.272281,25.7231808 C145.607863,25.9169995 145.883353,26.1713865 146.096409,26.4875142 C146.310635,26.8036419 146.473353,27.1600183 146.585344,27.5574247 C146.697335,27.9548312 146.753525,28.3573177 146.753915,28.764884 C146.753915,29.1314201 146.672361,29.4983471 146.510033,29.8652741 C146.346924,30.232201 146.138552,30.579199 145.884523,30.9050958 C145.629716,31.2313833 145.335105,31.5471202 144.999134,31.8530881 C144.663941,32.1586652 144.322897,32.4341534 143.976779,32.6787714 C143.162408,33.2903163 142.236826,33.8514526 141.199253,34.3610083 C141.402163,35.2781303 141.667507,36.0834939 141.993333,36.7763176 C142.13576,37.0818947 142.298868,37.3777026 142.482659,37.6625693 C142.665668,37.9482173 142.868578,38.2029952 143.092949,38.4269028 C143.31654,38.6515917 143.571349,38.8293891 143.856203,38.9618579 C144.141059,39.0947176 144.456349,39.1603659 144.802857,39.1603659 C145.433049,39.1603659 146.04451,38.9411475 146.63412,38.5023201 C147.22412,38.0642742 147.773538,37.5086085 148.282374,36.8357136 C148.791211,36.1632097 149.264147,35.4090361 149.701184,34.5728022 C150.138221,33.7373497 150.524921,32.9323769 150.860893,32.1571021 C151.196475,31.3829996 151.476257,30.6741546 151.699457,30.0321301 C151.923049,29.3901056 152.085767,28.9161095 152.188003,28.6101417" id="Fill-37" fill="#5E5549" fill-rule="nonzero" mask="url(#mask-60)"></path>
                </g>
                <g id="Fill-38-Clipped">
                    <mask id="mask-62" fill="white">
                        <use xlink:href="#path-61"></use>
                    </mask>
                    <g id="path-1"></g>
                    <polygon id="Fill-38" fill="#ECBD51" fill-rule="nonzero" mask="url(#mask-62)" points="143.606469 42.2716249 150.386785 42.2716249 150.386785 33.0300678 143.606469 33.0300678"></polygon>
                </g>
            </g>
        </g>
    </g>
</svg>